<?xml version="1.0" encoding="utf-8"?>
<!-- Generator: Adobe Illustrator 21.1.0, SVG Export Plug-In . SVG Version: 6.00 Build 0)  -->
<svg version="1.1" id="Capa_1" xmlns="http://www.w3.org/2000/svg" xmlns:xlink="http://www.w3.org/1999/xlink" x="0px" y="0px"
	 viewBox="0 0 144.8 144.8" style="enable-background:new 0 0 144.8 144.8;" xml:space="preserve">
<style type="text/css">
	.st0{fill:#FFFFFF;}
	.st1{clip-path:url(#SVGID_2_);}
	.st2{fill:#F1C9A5;}
	.st3{fill:#E4B692;}
	.st4{opacity:0.1;fill:#DDAC8C;enable-background:new    ;}
	.st5{fill:url(#SVGID_3_);}
	.st6{fill:url(#SVGID_4_);}
	.st7{fill:#915F2C;}
</style>
<g>
	<circle class="st0" cx="72.4" cy="72.4" r="72.4"/>
	<g>
		<g>
			<defs>
				<circle id="SVGID_1_" cx="72.4" cy="72.4" r="72.4"/>
			</defs>
			<clipPath id="SVGID_2_">
				<use xlink:href="#SVGID_1_"  style="overflow:visible;"/>
			</clipPath>
			<g class="st1">
				<g>
					<path class="st2" d="M107.1,116.9c-4.7-8.8-34.7-14.4-34.7-14.4s-30,5.5-34.7,14.4c-3.4,12.3-6.3,27.8-6.3,27.8h41h41
						C113.4,144.8,111.4,128.1,107.1,116.9z"/>
					<path class="st3" d="M72.4,102.6c0,0,30,5.5,34.7,14.4c4.4,11.1,6.3,27.8,6.3,27.8h-41V102.6z"/>
					<rect x="64.2" y="84.6" class="st2" width="16.3" height="27.3"/>
					<rect x="72.4" y="84.6" class="st3" width="8.2" height="27.3"/>
					<path class="st4" d="M64.2,97.3c1.5,4.2,7.4,6.6,11.8,6.6c1.6,0,3.1-0.3,4.6-0.7V84.6H64.2V97.3z"/>
					<path class="st0" d="M107.1,116.9c-2.7-5.2-14.1-9.2-23.1-11.7c-0.4,6.1-5.4,11-11.6,11c-6.2,0-11.2-4.8-11.6-11
						c-9,2.5-20.3,6.5-23.1,11.7c-3.4,12.3-6.3,27.8-6.3,27.8h41h41C113.4,144.8,111.4,128.1,107.1,116.9z"/>
					<path class="st2" d="M93.4,67.4c0-17.1-9.4-26.8-21-26.8s-21,9.7-21,26.8c0,7.2,2.2,23,5.9,26.2c2.6,2.3,10.9,6.2,15,6.2h0
						c0,0,0,0,0,0c0,0,0,0,0,0h0c4.1,0,12.5-3.9,15-6.2C91.3,89.5,93.4,73.9,93.4,67.4z"/>
					<path class="st3" d="M72.4,99.8C72.4,99.8,72.4,99.8,72.4,99.8L72.4,99.8c4.1,0,12.5-3.9,15.1-6.2c3.9-4.1,5.9-19.7,5.9-26.2
						c0-17.1-9.4-26.8-21-26.8L72.4,99.8L72.4,99.8z"/>
					<path class="st3" d="M90.2,79.2c-3.8-0.4-6.4-4.5-5.7-9.2c0.6-4.7,4.2-8.1,8.1-7.7c3.8,0.4,6.4,4.5,5.7,9.2
						C97.6,76.1,94,79.6,90.2,79.2z"/>
					<path class="st2" d="M46.7,71.5c-0.6-4.7,1.9-8.8,5.7-9.2c3.8-0.4,7.4,3.1,8.1,7.7c0.6,4.7-1.9,8.8-5.7,9.2
						C50.9,79.6,47.3,76.1,46.7,71.5z"/>
					<linearGradient id="SVGID_3_" gradientUnits="userSpaceOnUse" x1="31.387" y1="125.7465" x2="61.164" y2="125.7465">
						<stop  offset="0" style="stop-color:#AA80F9"/>
						<stop  offset="0.9964" style="stop-color:#6165D7"/>
					</linearGradient>
					<path class="st5" d="M37.7,116.9c-3.4,12.3-6.3,27.8-6.3,27.8h29.8c-5.1-22.3-5.2-38-5.2-38.1C48.1,109.2,40,112.7,37.7,116.9z
						"/>
					<linearGradient id="SVGID_4_" gradientUnits="userSpaceOnUse" x1="83.609" y1="125.7465" x2="113.387" y2="125.7465">
						<stop  offset="0" style="stop-color:#AA80F9"/>
						<stop  offset="0.9964" style="stop-color:#6165D7"/>
					</linearGradient>
					<path class="st6" d="M107.1,116.9c4.7,11.5,6.3,27.8,6.3,27.8H83.6c5.1-22.3,5.2-38,5.2-38.1
						C96.7,109.2,104.8,112.7,107.1,116.9z"/>
				</g>
				<path class="st7" d="M52.7,78.7c0,0,3.1,10.3,6.4,12.1c1.5,0,2.7,0,2.7,0l3.3-4.7l7.3-2v15.7h-9.5l-9.5-8.5L52.7,78.7z"/>
				<path class="st7" d="M92.1,78.7c0,0-3.1,10.3-6.4,12.1c-1.5,0-2.7,0-2.7,0l-3.3-4.7l-7.3-2v15.7h9.5l9.5-8.5L92.1,78.7z"/>
				<path class="st0" d="M75.8,89.2c0,0-0.5-2.2-3.4-2.2c-2.7,0-3.4,2.2-3.4,2.2H75.8z"/>
				<path class="st7" d="M51.4,62.4c0,0,2.8,0.6,4.6,2.7c-0.3-3.7-1-15.8,3.4-18.9c4.4-3,6.5,0.1,13,0.1c0-4.8,0-8.9,0-8.9
					s-7.8,0-10.5,0c-2.7,0-11.4,1.3-11.4,9.5C50.5,55.1,51.4,62.4,51.4,62.4z"/>
				<path class="st7" d="M93.4,62.4c0,0-2.8,0.6-4.6,2.7c0.3-3.7,1-15.8-3.4-18.9c-4.4-3-6.5,0.1-13,0.1c0-4.8,0-8.9,0-8.9
					s7.8,0,10.5,0c2.7,0,11.4,1.3,11.4,9.5C94.3,55.1,93.4,62.4,93.4,62.4z"/>
			</g>
		</g>
	</g>
</g>
</svg>
