<?xml version="1.0" encoding="utf-8"?>
<!-- Generator: Adobe Illustrator 21.1.0, SVG Export Plug-In . SVG Version: 6.00 Build 0)  -->
<svg version="1.1" id="Capa_1" xmlns="http://www.w3.org/2000/svg" xmlns:xlink="http://www.w3.org/1999/xlink" x="0px" y="0px"
	 viewBox="0 0 144.8 144.8" style="enable-background:new 0 0 144.8 144.8;" xml:space="preserve">
<style type="text/css">
	.st0{fill:#FFFFFF;}
	.st1{clip-path:url(#SVGID_2_);}
	.st2{fill:#471B18;}
	.st3{fill:#F1C9A5;}
	.st4{fill:#E4B692;}
	.st5{opacity:0.1;fill:#DDAC8C;enable-background:new    ;}
	.st6{fill:url(#SVGID_3_);}
	.st7{fill:url(#SVGID_4_);}
</style>
<g>
	<circle class="st0" cx="72.4" cy="72.4" r="72.4"/>
	<g>
		<g>
			<defs>
				<circle id="SVGID_1_" cx="72.4" cy="72.4" r="72.4"/>
			</defs>
			<clipPath id="SVGID_2_">
				<use xlink:href="#SVGID_1_"  style="overflow:visible;"/>
			</clipPath>
			<g class="st1">
				<path class="st2" d="M73.4,33c0,0-10.1-2.4-18.8,4.2c-8.6,6.6-4.1,15.9-12.4,23.3c-8.3,7.4-7.1,14.1-2.5,22.3
					c4.6,8.2-5.8,12-2.9,22c2.9,9.7,13,14.6,13,14.6h45.4c0,0,14.6-10.8,15.4-18.7c0.7-7.9-7.5-11.8-5.1-17.3
					c2.4-5.5,2.6-13.2-2.9-19.3c-6.8-7.4-1.5-9-6.6-19.3C90.1,33,81.6,30.4,73.4,33z"/>
				<g>
					<path class="st3" d="M107.1,116.9c-4.7-8.8-34.7-14.4-34.7-14.4s-30,5.5-34.7,14.4c-3.4,12.3-6.3,27.8-6.3,27.8h41h41
						C113.4,144.8,111.4,128.1,107.1,116.9z"/>
					<path class="st4" d="M72.4,102.6c0,0,30,5.5,34.7,14.4c4.4,11.1,6.3,27.8,6.3,27.8h-41V102.6z"/>
					<rect x="64.2" y="84.6" class="st3" width="16.3" height="27.3"/>
					<rect x="72.4" y="84.6" class="st4" width="8.2" height="27.3"/>
					<path class="st5" d="M64.2,97.3c1.5,4.2,7.4,6.6,11.8,6.6c1.6,0,3.1-0.3,4.6-0.7V84.6H64.2V97.3z"/>
					<path class="st3" d="M93.4,67.4c0-17.1-9.4-26.8-21-26.8s-21,9.7-21,26.8s9.4,30.9,21,30.9S93.4,84.4,93.4,67.4z"/>
					<path class="st4" d="M90.2,79.2c-3.8-0.4-6.4-4.8-5.7-9.7c0.6-5,4.2-8.6,8.1-8.2c3.8,0.4,6.4,4.8,5.7,9.7
						C97.6,75.9,94,79.6,90.2,79.2z"/>
					<path class="st3" d="M46.7,71c-0.6-5,1.9-9.3,5.7-9.7c3.8-0.4,7.4,3.3,8.1,8.2c0.6,4.9-1.9,9.3-5.7,9.7
						C50.9,79.6,47.3,75.9,46.7,71z"/>
					<path class="st4" d="M93.4,67.4c0-17.1-9.4-26.8-21-26.8v57.7C84,98.3,93.4,84.4,93.4,67.4z"/>
				</g>
				<polygon class="st0" points="46.9,144.8 72.4,144.8 97.8,144.8 97.8,117.2 46.9,117.2 				"/>
				<linearGradient id="SVGID_3_" gradientUnits="userSpaceOnUse" x1="31.387" y1="124.7695" x2="67.459" y2="124.7695">
					<stop  offset="0" style="stop-color:#AA80F9"/>
					<stop  offset="0.9964" style="stop-color:#6165D7"/>
				</linearGradient>
				<path class="st6" d="M67.5,144.8l-4.7-40c-10.6,1.7-22.6,7.7-25,12.2c-3.4,12.3-6.3,27.8-6.3,27.8L67.5,144.8L67.5,144.8z"/>
				<linearGradient id="SVGID_4_" gradientUnits="userSpaceOnUse" x1="79.336" y1="124.823" x2="113.387" y2="124.823">
					<stop  offset="0" style="stop-color:#AA80F9"/>
					<stop  offset="0.9964" style="stop-color:#6165D7"/>
				</linearGradient>
				<path class="st7" d="M79.3,144.8h34.1c0,0-1.9-16.7-6.3-27.8c-3.8-6.8-19-10.5-24.2-12.1L79.3,144.8z"/>
				<path class="st2" d="M72.3,49.7c0,0-4.5,9.8-10.9,12.8c-10,4.8-1.3,12.2-2.5,22.1c-1.1,8.9-11.4,13-5.4,22.5
					c-10.5,2.1-10-3.2-10-3.2s-1-27.5-1.2-28.1s6-17.6,6-17.6l9-19.2l16.1-3.3L72.3,49.7z"/>
				<path class="st2" d="M72.3,49.7c0,0,0.5,7.7,8.2,8.3c7.7,0.7,8.7,6.3,7.2,11.4s-2.2,7.9,2,11.9c4.2,4-0.5,19.4-0.5,19.4
					l15.3-7.3c0,0-3.3-12.4-1.5-19.3s-6.2-11.8-8.2-16.8s-12-23-20.2-21.7c-8.1,1.4-7.3,10-7.3,10L72.3,49.7z"/>
			</g>
		</g>
	</g>
</g>
</svg>
