<?xml version="1.0" encoding="utf-8"?>
<!-- Generator: Adobe Illustrator 16.0.0, SVG Export Plug-In . SVG Version: 6.00 Build 0)  -->
<!DOCTYPE svg PUBLIC "-//W3C//DTD SVG 1.1//EN" "http://www.w3.org/Graphics/SVG/1.1/DTD/svg11.dtd">
<svg version="1.1" id="Calque_1" xmlns="http://www.w3.org/2000/svg" xmlns:xlink="http://www.w3.org/1999/xlink" x="0px" y="0px"
	 width="165px" height="165px" viewBox="0 0 165 165" enable-background="new 0 0 165 165" xml:space="preserve">
<circle fill="#FFFFFF" cx="83.463" cy="82.602" r="79.604"/>
<g>
	<g>
		<path fill="#F1C9A5" d="M103.33,61.588c0-10.354-6.343-18.748-14.166-18.748H77.653c-7.824,0-14.166,8.395-14.166,18.748v20.701
			c0,1.117,0,5.309,0,6.361c0,11.874,8.92,21.5,19.922,21.5s19.921-9.626,19.921-21.5c0-1.053,0-5.244,0-6.361V61.588z"/>
		<path fill="#F1C9A5" d="M74.991,106.423v11.167c0,0-24,3.333-29,13.833l-5.166,18.333c0,0,17,12.449,43.667,12.449
			s41.5-12.781,41.5-12.781s-1.001-15.001-7.167-21.001c0,0-12.667-9.667-26.5-11.167v-12.5L74.991,106.423z"/>
	</g>
	<g>
		<path fill="#E4B692" d="M89.164,42.84h-5.755v67.311c11.002,0,19.921-9.626,19.921-21.5c0-1.053,0-5.244,0-6.361V61.588
			C103.33,51.234,96.987,42.84,89.164,42.84z"/>
		<path fill="#E4B692" d="M118.825,128.423c0,0-12.667-9.667-26.5-11.167v-12.5l-8.917,0.857v56.576
			c0.362,0.006,0.719,0.016,1.084,0.016c26.667,0,41.5-12.781,41.5-12.781S124.991,134.423,118.825,128.423z"/>
	</g>
</g>
<path fill="#00C0B5" d="M95.997,117.758c12.262,2.85,22.828,10.582,22.828,10.582c6.166,6,7.167,21,7.167,21
	s-14.833,12.781-41.5,12.781s-43.667-12.449-43.667-12.449l5.166-18.332c3.658-7.681,17.482-11.527,24.642-13.039
	c0,0,3.797,10.143,12.775,14.143C83.408,132.443,92.137,130.068,95.997,117.758z"/>
<path fill="#00D7C9" d="M96.019,117.758c1.178,0.274,1.804,0.432,2.942,0.783c-3.945,11.775-11.695,16.486-15.636,16.486
	c-5.084-0.584-14.458-10.167-15.636-16.047c1.07-0.265,2.07-0.49,2.965-0.68c0,0,3.797,10.143,12.775,14.143
	C83.43,132.443,92.158,130.068,96.019,117.758z"/>
<path fill="#EDEDED" stroke="#EDEDED" stroke-miterlimit="10" d="M101.975,119.387c10.578,3.724,17.226,9.034,17.226,9.033
	c6.166,6,7.167,21.001,7.167,21.001s-10.721,9.237-30.318,12.007C96.049,161.428,100.887,144.538,101.975,119.387z"/>
<path fill="#EDEDED" stroke="#EDEDED" stroke-miterlimit="10" d="M64.844,119.644c-7.902,2.222-16.32,5.772-19.165,11.747
	l-5.166,18.333c0,0,11.393,8.343,30.155,11.369C70.668,161.093,64.296,134.973,64.844,119.644z"/>
<polygon fill="#F8B54D" points="65.288,75.134 65.288,64.384 60.101,64.884 60.101,75.134 "/>
<polygon fill="#F8B54D" points="101.351,63.884 101.351,75.322 106.788,75.697 106.788,63.884 "/>
<path fill="#00D7C9" d="M59.416,66.197c0,0,10.596-2.005,24.178-2.005s23.497,2.005,23.497,2.005s1.908-16.466-2.542-20.045
	c-4.449-3.58-6.567-3.58-20.955-3.58c-14.389,0-17.313,0.716-21.381,3.58S59.416,59.897,59.416,66.197z"/>
<path fill="#F1C9A5" d="M65.288,75.697c0,0-1.354-3.417-4.604-3.75s-6.083,1.917-5.333,8.25s2.917,9.5,8.25,10.667
	S65.288,75.697,65.288,75.697z"/>
<path fill="#E4B691" d="M101.362,76.109c0,0,1.354-3.337,4.604-3.664c3.25-0.326,6.084,1.873,5.334,8.059s-2.917,9.279-8.25,10.419
	C97.716,92.064,101.362,76.109,101.362,76.109z"/>
<path fill="#EDEDED" stroke="#EDEDED" stroke-miterlimit="10" d="M98.062,79.499c0,0-7.385-2.99-14.599-3.003
	c-7.212,0.013-14.599,3.003-14.599,3.003l-1.5,22.106c0,0,2.333,3.96,6.723,6.119c2.683,1.32,5.443,1.22,9.376,1.22
	c3.934,0,6.695,0.101,9.378-1.22c4.388-2.159,6.722-6.119,6.722-6.119L98.062,79.499z"/>
<path fill="none" stroke="#EDEDED" stroke-width="0.5" stroke-linecap="round" stroke-linejoin="round" stroke-miterlimit="10" d="
	M70.537,81.318c0,0-3.049-3.939-5.249-6.184"/>
<path fill="none" stroke="#EDEDED" stroke-width="0.5" stroke-linecap="round" stroke-linejoin="round" stroke-miterlimit="10" d="
	M63.601,90.863c0,0,3.089,3.664,5.077,5.164"/>
<path fill="none" stroke="#EDEDED" stroke-width="0.5" stroke-linecap="round" stroke-linejoin="round" stroke-miterlimit="10" d="
	M96.263,81.477c0,0,3.049-3.939,5.249-6.184"/>
<path fill="none" stroke="#EDEDED" stroke-width="0.5" stroke-linecap="round" stroke-linejoin="round" stroke-miterlimit="10" d="
	M103.33,91.123c0,0-3.089,3.664-5.077,5.164"/>
</svg>
