<svg id="Layer_1" data-name="Layer 1" xmlns="http://www.w3.org/2000/svg" viewBox="0 0 124 110"><defs><style>.cls-1,.cls-6{fill:#fff;stroke-width:1.43px;}.cls-1,.cls-4,.cls-5,.cls-9{stroke:#4b4254;}.cls-1,.cls-4,.cls-5,.cls-6,.cls-8,.cls-9{stroke-miterlimit:10;}.cls-2{fill:#dedbff;}.cls-10,.cls-3{fill:#9082ff;}.cls-4,.cls-9{fill:#4b4254;}.cls-4{stroke-width:0.2px;}.cls-5,.cls-8{fill:none;}.cls-5,.cls-8,.cls-9{stroke-width:2.25px;}.cls-6,.cls-8{stroke:#8c6bcd;}.cls-7{fill:#8c6bcd;}.cls-10{font-size:32.72px;font-family:MyriadPro-Regular, Myriad Pro;}</style></defs><title>capacites-raisonnement-illustration</title><rect class="cls-1" x="7.43" y="30.98" width="41.1" height="48.06" rx="2.45" transform="translate(-18.24 14.12) rotate(-21.54)"/><rect class="cls-2" x="15.81" y="40.67" width="21.5" height="21.5" transform="translate(-17.03 13.35) rotate(-21.54)"/><polygon class="cls-3" points="28.28 55.97 29.71 46.36 20.68 49.93 28.28 55.97"/><rect class="cls-4" x="14.52" y="68.28" width="41.1" height="9.41" rx="2.45" transform="translate(-24.35 17.98) rotate(-21.54)"/><line class="cls-5" x1="14.46" y1="76.72" x2="52.69" y2="61.63"/><rect class="cls-6" x="31.53" y="24.35" width="41.1" height="48.06" rx="2.45" transform="translate(-6.85 8.63) rotate(-8.89)"/><rect class="cls-2" x="40.73" y="33.82" width="21.5" height="21.5" transform="translate(-6.27 8.5) rotate(-8.89)"/><rect class="cls-7" x="34.52" y="62.76" width="41.1" height="9.41" rx="2.45" transform="translate(-9.77 9.32) rotate(-8.89)"/><line class="cls-8" x1="34.13" y1="66.6" x2="74.74" y2="60.25"/><rect class="cls-3" x="40.73" y="33.82" width="21.5" height="21.5" transform="translate(-6.27 8.5) rotate(-8.89)"/><polygon class="cls-2" points="56.24 43.43 47.18 39.94 48.69 49.53 56.24 43.43"/><rect class="cls-1" x="55.99" y="25.24" width="41.1" height="48.06" rx="2.45" transform="translate(15.33 -18.1) rotate(14.97)"/><rect class="cls-2" x="66.79" y="34.8" width="21.5" height="21.5" transform="translate(14.4 -18.48) rotate(14.97)"/><rect class="cls-4" x="51" y="63.23" width="41.1" height="9.41" rx="2.45" transform="translate(19.98 -16.18) rotate(14.97)"/><line class="cls-9" x1="52.76" y1="58.68" x2="92.46" y2="69.29"/><polygon class="cls-3" points="81.6 46.64 74.73 39.77 72.22 49.15 81.6 46.64"/><rect class="cls-6" x="73.69" y="35.65" width="41.1" height="48.06" rx="2.45" transform="translate(43.29 -39.55) rotate(30.48)"/><rect class="cls-7" x="63.89" y="71.63" width="41.1" height="9.41" rx="2.45" transform="translate(50.38 -32.28) rotate(30.48)"/><line class="cls-8" x1="68.8" y1="62.39" x2="104.22" y2="83.24"/><text class="cls-10" transform="translate(85.73 61.98) rotate(30.48)">?</text></svg>