<svg width="124" height="110" viewBox="0 0 124 110" fill="none" xmlns="http://www.w3.org/2000/svg">
<path d="M105.786 55.5C100.074 46.6227 92.9165 39.9835 84.3119 35.5825C86.604 39.4945 87.75 43.7263 87.75 48.2778C87.75 55.2367 85.2795 61.1894 80.3384 66.1359C75.3974 71.0823 69.4513 73.5556 62.5 73.5556C55.5487 73.5556 49.6026 71.0823 44.6616 66.1359C39.7205 61.1894 37.25 55.2367 37.25 48.2778C37.25 43.7263 38.396 39.4945 40.6881 35.5825C32.0835 39.9835 24.9256 46.6227 19.2143 55.5C24.2117 63.2112 30.4772 69.352 38.0109 73.9223C45.5445 78.4926 53.7076 80.7778 62.5 80.7778C71.2924 80.7778 79.4555 78.4926 86.9891 73.9223C94.5228 69.352 100.788 63.2112 105.786 55.5ZM113 55.5C113 56.7789 112.624 58.0767 111.873 59.3932C106.612 68.0448 99.539 74.9755 90.6526 80.1853C81.7663 85.3951 72.3821 88 62.5 88C52.6179 88 43.2337 85.3857 34.3474 80.1571C25.461 74.9285 18.3876 68.0072 13.1272 59.3932C12.3757 58.0767 12 56.7789 12 55.5C12 54.2211 12.3757 52.9233 13.1272 51.6068C18.3876 42.9928 25.461 36.0715 34.3474 30.8429C43.2337 25.6143 52.6179 23 62.5 23C72.3821 23 81.7663 25.6143 90.6526 30.8429C99.539 36.0715 106.612 42.9928 111.873 51.6068C112.624 52.9233 113 54.2211 113 55.5Z" fill="#996CD2"/>
<path d="M105.786 55.5C100.074 46.6227 92.9165 39.9835 84.3119 35.5825C86.604 39.4945 87.75 43.7263 87.75 48.2778C87.75 55.2367 85.2795 61.1894 80.3384 66.1359C75.3974 71.0823 69.4513 73.5556 62.5 73.5556C55.5487 73.5556 49.6026 71.0823 44.6616 66.1359C39.7205 61.1894 37.25 55.2367 37.25 48.2778C37.25 43.7263 38.396 39.4945 40.6881 35.5825C32.0835 39.9835 24.9256 46.6227 19.2143 55.5C24.2117 63.2112 30.4772 69.352 38.0109 73.9223C45.5445 78.4926 53.7076 80.7778 62.5 80.7778C71.2924 80.7778 79.4555 78.4926 86.9891 73.9223C94.5228 69.352 100.788 63.2112 105.786 55.5ZM65.2054 33.8333C65.2054 33.081 64.9423 32.4415 64.4163 31.9149C63.8903 31.3883 63.2515 31.125 62.5 31.125C57.8032 31.125 53.7733 32.8083 50.4104 36.1749C47.0475 39.5415 45.3661 43.5758 45.3661 48.2778C45.3661 49.0301 45.6291 49.6696 46.1551 50.1962C46.6812 50.7228 47.3199 50.9861 48.0714 50.9861C48.8229 50.9861 49.4617 50.7228 49.9877 50.1962C50.5138 49.6696 50.7768 49.0301 50.7768 48.2778C50.7768 45.0428 51.9228 42.2781 54.2148 39.9835C56.5069 37.6889 59.2686 36.5417 62.5 36.5417C63.2515 36.5417 63.8903 36.2784 64.4163 35.7517C64.9423 35.2251 65.2054 34.5856 65.2054 33.8333ZM113 55.5C113 56.7789 112.624 58.0767 111.873 59.3932C106.612 68.0448 99.539 74.9755 90.6526 80.1853C81.7663 85.3951 72.3821 88 62.5 88C52.6179 88 43.2337 85.3857 34.3474 80.1571C25.461 74.9285 18.3876 68.0072 13.1272 59.3932C12.3757 58.0767 12 56.7789 12 55.5C12 54.2211 12.3757 52.9233 13.1272 51.6068C18.3876 42.9928 25.461 36.0715 34.3474 30.8429C43.2337 25.6143 52.6179 23 62.5 23C72.3821 23 81.7663 25.6143 90.6526 30.8429C99.539 36.0715 106.612 42.9928 111.873 51.6068C112.624 52.9233 113 54.2211 113 55.5Z" fill="#4E4055"/>
</svg>
