<svg width="175" height="44" viewBox="0 0 175 44" fill="none" xmlns="http://www.w3.org/2000/svg">
<path d="M13.2177 20.5303C12.1507 11.4502 22.5414 -1.36428 41.2768 9.95748C41.7948 5.66017 65.3216 -7.72245 76.2199 20.4219C78.0847 13.5937 95.1626 17.0181 98.2342 28.5568C104.652 25.7109 120.093 40.0077 99.6586 42.4766C73.5627 45.6273 13.7772 44.7182 3.0601 29.1043C-7.65696 13.4904 13.2177 20.5303 13.2177 20.5303Z" fill="#FF8D8B"/>
<path d="M121.307 9.69255C120.717 4.67214 126.451 -2.40913 136.815 3.84573C137.1 1.46981 150.107 -5.92652 156.131 9.63058C157.167 5.8601 166.599 7.75049 168.298 14.1241C171.847 12.5746 180.378 20.4513 169.086 21.8149C154.665 23.5555 121.618 23.0545 115.692 14.4237C109.766 5.79295 121.307 9.69255 121.307 9.69255Z" fill="#FF8D8B" fill-opacity="0.8"/>
</svg>
