<svg width="66" height="46" viewBox="0 0 66 46" fill="none" xmlns="http://www.w3.org/2000/svg">
<rect x="0.222229" y="0.055542" width="65.5556" height="45.8889" rx="5" fill="#43619C"/>
<path d="M43.6522 31.7022C43.6522 32.3266 43.1461 32.8327 42.5217 32.8327H37.3012V24.8999H39.9642L40.3626 21.8085H37.3012V19.8347C37.3012 18.9397 37.5495 18.3298 38.8336 18.3298L40.4709 18.3292V15.5631C40.1879 15.5251 39.2158 15.4414 38.0853 15.4414C35.7248 15.4414 34.1087 16.8822 34.1087 19.5284V21.8085H31.439V24.8999H34.1087V32.8333H24.2973C23.6728 32.8333 23.1667 32.3272 23.1667 31.7028V13.4778C23.1667 12.8533 23.6728 12.3472 24.2973 12.3472H42.5222C43.1467 12.3472 43.6528 12.8533 43.6528 13.4778V31.7022H43.6522Z" fill="white"/>
</svg>
