<svg width="66" height="46" viewBox="0 0 66 46" fill="none" xmlns="http://www.w3.org/2000/svg">
<rect y="0.055542" width="65.5556" height="45.8889" rx="5" fill="#F24033"/>
<path d="M26.8917 20.7842V24.9511C26.8917 24.9511 30.9267 24.9453 32.5697 24.9453C31.6797 27.6462 30.2965 29.1179 26.8917 29.1179C23.446 29.1179 20.7566 26.3195 20.7566 22.868C20.7566 19.4165 23.446 16.6181 26.8917 16.6181C28.7134 16.6181 29.8901 17.2598 30.9693 18.1538C31.833 17.2884 31.7609 17.1647 33.9586 15.0858C32.0927 13.3846 29.6131 12.3472 26.8909 12.3472C21.0909 12.3464 16.3889 17.0574 16.3889 22.868C16.3889 28.6787 21.0909 33.3897 26.8917 33.3897C35.5615 33.3897 37.6805 25.8271 36.9783 20.785H26.8917V20.7842Z" fill="white"/>
<path d="M45.8168 20.9931V17.3466H43.2167V20.9931H39.4734V23.5973H43.2167V27.3471H45.8168V23.5973H49.4559V20.9931H45.8168Z" fill="white"/>
</svg>
