<svg width="535" height="346" viewBox="0 0 535 346" fill="none" xmlns="http://www.w3.org/2000/svg">
<path d="M423.293 184.414C415.327 184.129 407.349 183.664 399.365 183.018C399.251 183.147 394.794 166.412 401.898 156.591C415.985 137.53 403.485 123.204 399.391 114.349C393.082 101.931 394.089 87.6167 407.268 85.9489C421.854 83.8126 421.825 59.3099 416.73 37.5812C413.487 27.0681 422.187 12.9147 431.981 8.81679C441.95 4.37425 453.012 9.98694 458.546 31.0452C466.079 55.3031 449.627 72.2537 444.299 85.423C439.053 98.3524 455.497 106.525 444.34 118.701C435.013 129.455 422.681 137.808 428.81 149.343C435.055 160.726 434.957 170.608 423.293 184.414Z" fill="url(#paint0_linear)"/>
<path d="M412.485 186.629C412.397 185.936 416.248 148.764 425.043 113.525C426.2 107.689 427.507 101.783 428.771 96.0721C435.809 64.2734 442.456 34.2383 428.267 3.23283L428.777 3C443.044 34.1763 436.377 64.2999 429.318 96.1929C428.055 101.901 426.748 107.804 425.59 113.647C416.573 149.775 413.043 186.355 413.042 186.583L412.485 186.629Z" fill="#BEB8F2"/>
<path d="M435.2 66.6507L434.745 66.3244C442.406 55.6639 451.419 40.718 456.262 32.6883C460.196 26.1663 460.206 26.172 460.485 26.1805L460.473 26.4601L460.635 26.6822C460.4 26.9118 458.786 29.5885 456.742 32.9769C451.895 41.0129 442.874 55.9716 435.2 66.6507Z" fill="#BEB8F2"/>
<path d="M436.154 53.0195C430.136 31.4125 415.392 25.8146 415.255 25.8026L415.274 25.5815L415.051 25.3154C415.187 25.2011 415.36 25.2419 415.555 25.3019C418.666 26.2625 431.37 33.7573 436.693 52.8694L436.154 53.0195Z" fill="#BEB8F2"/>
<path d="M420.437 137.165L419.878 137.16C420.062 114.761 402.74 95.7939 395.283 88.6792C394.881 88.2948 394.751 88.1698 394.699 88.1003L395.148 87.7651C395.187 87.8124 395.41 88.0267 395.67 88.2746C403.179 95.4398 420.624 114.547 420.437 137.165Z" fill="#BEB8F2"/>
<path d="M422.751 125.938L422.246 125.698C429.955 109.506 449.633 106.212 449.959 106.212C449.96 106.212 449.961 106.212 449.962 106.212L449.92 106.488L449.65 106.561L449.921 106.489L449.933 106.767C449.745 106.784 430.332 110.017 422.751 125.938Z" fill="#BEB8F2"/>
<path d="M413.144 180.631C412.812 176.131 410.357 168.663 400.547 158.648C399.978 158.066 399.978 158.066 399.982 157.925L400.262 157.934L400.498 157.787C400.533 157.833 400.725 158.029 400.947 158.256C410.876 168.392 413.364 175.996 413.703 180.59L413.144 180.631Z" fill="#BEB8F2"/>
<path d="M414.752 171.918L414.2 171.822C415.639 163.54 426.188 156.435 432.349 152.938C432.543 152.828 432.668 152.757 432.712 152.728L433.021 153.195C432.973 153.226 432.837 153.304 432.626 153.424C426.551 156.873 416.151 163.862 414.752 171.918Z" fill="#BEB8F2"/>
<path opacity="0.19" d="M96.0658 257.03C96.0322 255.82 68.8419 216.289 104.355 213.755C166.515 209.319 197.596 207.112 226.321 202.404C312.618 188.259 391.023 200.632 464.717 202.242C478.589 202.545 508.509 200.073 524.308 218.866C532.795 228.961 536.392 243.961 533.519 257.088C530.856 269.256 522.647 279.749 459.668 313.317C426.252 331.128 410.356 341 386.385 344.513C368.251 347.17 358.154 345.065 353.281 343.753C330.697 337.676 318.84 321.347 309.383 311.254C271.675 271.013 204.596 257.872 163.71 259.175C130.731 260.227 96.6121 276.73 96.0658 257.03Z" fill="#6165D7"/>
<path opacity="0.32" d="M416.803 192.604C432.761 198.358 450.143 206.044 449.339 212.723C448.46 220.024 426.629 219.669 392.53 228.715C338.22 243.123 335.659 259.396 308.35 257.087C276.912 254.43 277.493 232.626 240.18 226.651C226.147 224.404 206.035 227.389 165.812 233.358C138.699 237.381 117.505 241.955 104.871 229.747C104.243 229.14 97.8937 223.003 98.2482 218.725C99.3198 205.786 163.067 193.445 416.803 192.604Z" fill="#6165D7"/>
<path d="M453.263 204.771C453.118 206.024 452.508 207.034 451.705 207.35C449.698 208.139 447.101 208.437 444.064 208.441C440.981 208.445 438.349 208.132 436.326 207.331C435.547 207.023 434.949 206.063 434.783 204.855L429.4 165.664H457.787L453.263 204.771Z" fill="url(#paint1_linear)"/>
<path d="M443.618 167.769C451.471 167.769 457.836 166.747 457.836 165.486C457.836 164.226 451.471 163.204 443.618 163.204C435.766 163.204 429.4 164.226 429.4 165.486C429.4 166.747 435.766 167.769 443.618 167.769Z" fill="url(#paint2_linear)"/>
<path d="M430.086 164.953C430.839 165.412 432.474 166.949 434.654 167.12C449.157 168.261 455.253 165.273 455.781 164.839C455.871 164.765 455.331 158.58 455.417 158.503C455.005 156.252 455.089 153.818 456.143 151.394C459.255 144.237 479.1 140.809 473.599 127.153C469.569 117.151 455.187 113.744 473.136 98.7708C491.085 83.7979 497.123 51.1223 476.996 47.6752C465.445 45.697 461.078 64.8348 448.913 68.0999C437.354 71.2028 433.196 81.2857 436.76 93.9701C440.325 106.654 433.449 108.989 424.808 115.34C414.429 122.97 424.777 134.697 429.323 139.64C432.984 143.621 436.78 160.085 430.086 164.953Z" fill="url(#paint3_linear)"/>
<path d="M444.432 166.023C438.991 123.037 454.462 77.6235 484.807 47.5054L485.171 47.871C454.937 77.8788 439.522 123.127 444.944 165.958L444.432 166.023Z" fill="#FCFDFE"/>
<path d="M443.499 142.434C438.054 126.268 419.966 118.334 419.784 118.255L419.988 117.781C420.173 117.86 438.471 125.888 443.988 142.269L443.499 142.434Z" fill="#FCFDFE"/>
<path d="M444.159 158.01L443.65 157.922C446.574 140.925 475.639 128.889 475.932 128.769L476.128 129.247C475.837 129.366 447.035 141.293 444.159 158.01Z" fill="#FCFDFE"/>
<path d="M452.185 100.57L451.671 100.527C452.833 86.8648 438.865 71.1361 438.724 70.9788L439.108 70.6342C439.251 70.7932 453.366 86.6852 452.185 100.57Z" fill="#FCFDFE"/>
<path d="M463.751 75.5618L463.355 75.2314C473.354 63.2563 494.323 60.97 494.533 60.9485L494.587 61.4614C494.378 61.4829 473.614 63.749 463.751 75.5618Z" fill="#FCFDFE"/>
<path d="M312.953 127.004L231.066 127.417C228.855 127.428 227.003 125.711 226.934 123.58L225.03 64.8396C224.961 62.7058 226.704 61.0192 228.919 61.0723L310.956 63.0354C313.012 63.0847 314.727 64.7865 314.791 66.8365L316.55 123.279C316.614 125.326 315.005 126.994 312.953 127.004Z" fill="#D8DEE8"/>
<path d="M314.417 126.531L232.529 126.944C230.318 126.955 228.466 125.238 228.398 123.107L226.494 64.3669C226.424 62.2332 228.167 60.5466 230.382 60.5996L312.42 62.5628C314.475 62.6121 316.19 64.3139 316.254 66.3638L318.013 122.806C318.077 124.853 316.468 126.521 314.417 126.531Z" fill="#F4F7FA"/>
<path d="M318.064 105.181L227.787 104.763L227.842 106.464L318.115 106.816L318.064 105.181Z" fill="white"/>
<path d="M280.693 61.3911L282.112 106.2L283.799 106.207L282.382 61.4319L280.693 61.3911Z" fill="white"/>
<path d="M271.092 115.027L239.156 115.021C239.007 115.021 238.882 114.904 238.877 114.76L238.785 111.893C238.78 111.749 238.897 111.633 239.047 111.633L270.986 111.686C271.131 111.686 271.252 111.801 271.257 111.943L271.347 114.77C271.351 114.912 271.238 115.027 271.092 115.027Z" fill="#C281E8"/>
<path d="M279.808 121.357L239.364 121.464C239.215 121.465 239.09 121.348 239.085 121.204L238.993 118.338C238.988 118.193 239.106 118.076 239.255 118.076L279.702 118.029C279.846 118.028 279.967 118.143 279.971 118.285L280.06 121.1C280.065 121.241 279.952 121.356 279.808 121.357Z" fill="#D8DEE8"/>
<path d="M311.936 77.4751L287.476 77.0552L287.174 67.5032L311.641 68.0279L311.936 77.4751Z" fill="#D8DEE8"/>
<path d="M312.646 100.209L288.201 100.04L287.604 81.1229L312.062 81.4983L312.646 100.209Z" fill="#D8DEE8"/>
<path d="M253.744 76.9783C257.578 77.0433 260.784 80.1238 260.903 83.8454C260.936 84.89 260.716 85.8728 260.307 86.7511L268.513 90.5399C269.42 88.5518 269.893 86.3255 269.818 83.9699C269.547 75.4685 262.238 68.4028 253.463 68.2202C253.441 68.2197 253.418 68.2207 253.395 68.2205L253.676 76.9805C253.699 76.9808 253.721 76.978 253.744 76.9783Z" fill="white"/>
<path d="M260.307 86.7511C259.26 89.0024 256.935 90.5477 254.178 90.5174C250.333 90.4751 247.097 87.3951 246.976 83.651C246.857 79.929 249.862 76.9522 253.676 76.9807L253.395 68.2207C244.584 68.0734 237.602 74.9243 237.879 83.524C238.157 92.1442 245.622 99.2071 254.458 99.2702C260.803 99.3154 266.146 95.7342 268.513 90.5399L260.307 86.7511Z" fill="url(#paint4_linear)"/>
<path d="M426.142 202.097C426.253 205.86 423.419 209.071 419.833 209.233L106.591 224.629C97.5818 225.187 93.5005 220.374 93.3513 216.007L87.5411 45.5066L88.6597 29.7374C88.5097 25.3446 90.5084 17.076 95.321 17.2731L414.564 30.3514C418.168 30.4989 421.198 33.7135 421.31 37.4946L426.142 202.097Z" fill="#D8DEE8"/>
<path d="M421.83 55.238L421.309 37.4948C421.198 33.7135 418.168 30.4992 418.578 29.0269L99.5942 16.2545C88.3928 16.7137 86.5947 23.2049 86.7446 27.5974L87.532 45.5068L93.5253 44.4685L421.83 55.238Z" fill="#F8924E"/>
<path d="M435.58 202.766C435.692 206.569 432.832 209.815 429.211 209.978L108.509 224.483C103.675 224.701 99.5812 221.268 99.4299 216.853L93.5251 44.4684L95.2486 24.3097C95.0964 19.8704 97.0642 17.4824 101.927 17.6814L423.849 29.1857C427.488 29.3352 430.549 32.5843 430.662 36.4056L435.58 202.766Z" fill="white"/>
<path d="M431.192 54.3378L430.662 36.4057C430.549 32.5843 427.488 29.3352 423.849 29.1857L101.391 15.9254C96.5282 15.7253 92.6595 19.1945 92.8115 23.6345L93.525 44.4684L431.192 54.3378Z" fill="#FFC244"/>
<path d="M114.943 31.1859C115.017 33.3831 113.133 35.0995 110.73 35.0192C108.322 34.9389 106.306 33.086 106.231 30.8808C106.156 28.6755 108.051 26.9592 110.459 27.0474C112.863 27.1357 114.868 28.9884 114.943 31.1859Z" fill="#9C73F4"/>
<path d="M133.64 31.8404C133.713 34.0206 131.858 35.724 129.493 35.645C127.122 35.5659 125.137 33.728 125.063 31.54C124.989 29.352 126.855 27.6487 129.226 27.7355C131.592 27.8223 133.566 29.6601 133.64 31.8404Z" fill="#9C73F4"/>
<path d="M152.048 32.4848C152.121 34.648 150.294 36.3389 147.965 36.2611C145.631 36.1833 143.677 34.3602 143.604 32.1892C143.531 30.018 145.368 28.3274 147.702 28.4129C150.032 28.4984 151.976 30.3213 152.048 32.4848Z" fill="#9C73F4"/>
<path d="M231.303 127.632C228.827 127.632 226.754 125.692 226.676 123.296L224.773 64.5554C224.735 63.4077 225.156 62.3301 225.958 61.5221C226.799 60.6753 227.972 60.2259 229.189 60.2557L311.227 62.2188C313.547 62.2749 315.493 64.2038 315.566 66.5196L317.325 122.962C317.359 124.093 316.951 125.159 316.174 125.963C315.398 126.767 314.346 127.213 313.214 127.218L231.326 127.632C231.319 127.632 231.311 127.632 231.303 127.632ZM229.075 61.2863C228.154 61.2863 227.31 61.6259 226.692 62.2491C226.092 62.8531 225.777 63.6606 225.805 64.5221L227.708 123.263C227.768 125.107 229.379 126.6 231.303 126.6C231.309 126.6 231.315 126.6 231.322 126.6L313.209 126.187C314.06 126.183 314.85 125.849 315.431 125.246C316.013 124.644 316.319 123.844 316.292 122.994L314.533 66.5518C314.477 64.774 312.983 63.2935 311.202 63.2507L229.165 61.2875C229.135 61.2863 229.105 61.2863 229.075 61.2863Z" fill="#F4F7FA"/>
<path d="M407.459 126.592L332.547 126.97C330.528 126.98 328.837 125.339 328.774 123.303L327.034 67.171C326.971 65.1323 328.562 63.5187 330.585 63.567L405.628 65.3628C407.511 65.4079 409.083 67.0354 409.141 68.9976L410.755 123.027C410.813 124.987 409.339 126.583 407.459 126.592Z" fill="#D8DEE8"/>
<path d="M408.793 126.055L333.882 126.433C331.862 126.443 330.171 124.801 330.108 122.766L328.368 66.6335C328.305 64.5946 329.896 62.981 331.919 63.0295L406.962 64.8254C408.845 64.8704 410.417 66.498 410.476 68.4601L412.089 122.49C412.148 124.449 410.673 126.045 408.793 126.055Z" fill="#F4F7FA"/>
<path d="M329.544 105.202L329.594 106.828L412.332 107.15L412.285 105.585L329.544 105.202Z" fill="white"/>
<path d="M360.181 115.042L339.488 115.038C339.351 115.038 339.237 114.926 339.233 114.789L339.148 112.048C339.144 111.91 339.251 111.798 339.388 111.799L360.083 111.833C360.217 111.833 360.329 111.944 360.333 112.08L360.416 114.795C360.419 114.931 360.314 115.042 360.181 115.042Z" fill="#FFC244"/>
<path d="M385.301 121.076L339.677 121.198C339.541 121.198 339.427 121.086 339.422 120.949L339.338 118.208C339.334 118.07 339.441 117.958 339.577 117.958L385.205 117.905C385.335 117.905 385.445 118.014 385.449 118.149L385.53 120.831C385.534 120.966 385.432 121.076 385.301 121.076Z" fill="#D8DEE8"/>
<path d="M340.54 97.0328C340.409 97.0328 340.277 97 340.156 96.9305C339.785 96.7184 339.656 96.246 339.868 95.8746C345.194 86.5734 351.286 81.5422 357.974 80.9205C362.203 80.5281 365.466 82.0479 368.617 83.5194C371.458 84.8463 374.396 86.2185 378.201 86.3188C385.21 86.4941 392.339 82.1799 399.375 73.4654C399.645 73.1323 400.133 73.0805 400.465 73.3486C400.798 73.6172 400.85 74.1044 400.582 74.4367C393.226 83.5459 385.696 88.0734 378.161 87.8654C374.033 87.7571 370.946 86.3153 367.96 84.9213C364.86 83.4741 361.936 82.1084 358.117 82.461C351.961 83.0332 346.273 87.8051 341.213 96.6434C341.07 96.8927 340.809 97.0328 340.54 97.0328Z" fill="url(#paint5_linear)"/>
<path d="M382.174 87.145C382.225 88.8519 380.924 90.2196 379.264 90.2001C377.602 90.1806 376.211 88.7771 376.159 87.0655C376.107 85.3539 377.414 83.9859 379.077 84.0105C380.736 84.0347 382.122 85.4382 382.174 87.145Z" fill="white"/>
<path d="M379.3 90.5925C379.287 90.5925 379.273 90.5925 379.26 90.5925C377.391 90.5702 375.824 88.9934 375.766 87.0775C375.737 86.1239 376.078 85.2366 376.726 84.5791C377.338 83.9579 378.156 83.6178 379.032 83.6178C379.049 83.6178 379.065 83.6178 379.083 83.6178C380.945 83.6451 382.508 85.2219 382.566 87.1328C382.595 88.0838 382.255 88.9699 381.609 89.6274C380.997 90.2511 380.178 90.5925 379.3 90.5925ZM379.033 84.4026C378.368 84.4026 377.749 84.6599 377.286 85.1301C376.789 85.6332 376.529 86.3165 376.551 87.0535C376.597 88.5552 377.816 89.7904 379.269 89.8077C379.944 89.8252 380.578 89.5568 381.049 89.0782C381.543 88.575 381.804 87.8928 381.781 87.1573C381.736 85.6595 380.52 84.4238 379.071 84.4031C379.058 84.4026 379.045 84.4026 379.033 84.4026Z" fill="#A67FF7"/>
<path d="M364.987 73.6939L338.547 73.1822L338.405 68.6022L364.849 69.1694L364.987 73.6939Z" fill="#D8DEE8"/>
<path d="M394.149 94.2048L383.738 94.101L383.635 90.6746L394.046 90.7951L394.149 94.2048Z" fill="#C281E8"/>
<path d="M211.505 203.808L121.747 207.226C119.319 207.318 117.286 205.586 117.21 203.356L115.121 141.865C115.045 139.631 116.959 137.802 119.391 137.78L209.321 136.962C211.57 136.941 213.447 138.661 213.517 140.803L215.44 199.781C215.51 201.92 213.749 203.722 211.505 203.808Z" fill="#D8DEE8"/>
<path d="M212.839 203.27L123.081 206.688C120.653 206.781 118.62 205.048 118.544 202.819L116.455 141.327C116.379 139.094 118.293 137.265 120.725 137.243L210.655 136.424C212.904 136.404 214.781 138.124 214.851 140.266L216.774 199.243C216.844 201.382 215.084 203.185 212.839 203.27Z" fill="#F4F7FA"/>
<path d="M216.756 179.862L117.819 182.63L117.879 184.412L216.812 181.571L216.756 179.862Z" fill="white"/>
<path d="M207.791 162.49L128.268 164.109L127.601 144.398L207.167 143.434L207.791 162.49Z" fill="#D8DEE8"/>
<path d="M208.131 172.895L128.632 174.871L128.397 167.918L207.911 166.172L208.131 172.895Z" fill="#D8DEE8"/>
<path d="M154.545 192.175L129.327 192.993C129.163 192.998 129.026 192.88 129.021 192.729L128.919 189.727C128.914 189.576 129.043 189.45 129.207 189.445L154.427 188.664C154.588 188.659 154.722 188.776 154.727 188.925L154.826 191.894C154.831 192.044 154.706 192.169 154.545 192.175Z" fill="url(#paint6_linear)"/>
<path d="M178.181 198.023L129.555 199.739C129.391 199.744 129.254 199.627 129.249 199.476L129.147 196.475C129.142 196.324 129.271 196.197 129.435 196.191L178.066 194.548C178.223 194.543 178.355 194.658 178.36 194.806L178.457 197.745C178.462 197.894 178.338 198.018 178.181 198.023Z" fill="#D8DEE8"/>
<path d="M212.83 123.628C212.899 125.771 211.136 127.517 208.886 127.529L118.932 127.983C116.499 127.995 114.461 126.193 114.385 123.959L112.291 62.3315C112.215 60.0929 114.133 58.3253 116.572 58.3839L206.697 60.5406C208.951 60.5946 210.832 62.3787 210.902 64.5255L212.83 123.628Z" fill="#D8DEE8"/>
<path d="M214.293 123.155C214.363 125.298 212.599 127.045 210.349 127.056L120.395 127.51C117.962 127.522 115.924 125.721 115.848 123.486L113.754 61.8586C113.678 59.62 115.597 57.8524 118.035 57.911L208.16 60.0677C210.414 60.1217 212.295 61.9058 212.365 64.0526L214.293 123.155Z" fill="#F4F7FA"/>
<path d="M214.284 104.742L115.133 104.281L115.194 106.067L214.339 106.454L214.284 104.742Z" fill="white"/>
<path d="M161.233 58.5104L162.806 105.71L164.677 105.717L163.107 58.5556L161.233 58.5104Z" fill="white"/>
<path d="M153.758 86.937L125.646 86.5989L124.882 64.0226L153.012 64.6258L153.758 86.937Z" fill="#D8DEE8"/>
<path d="M154.166 99.118L126.063 98.9247L125.793 90.9609L153.902 91.2478L154.166 99.118Z" fill="#D8DEE8"/>
<path d="M140.531 115.005L126.689 115.003C126.525 115.003 126.387 114.88 126.382 114.729L126.281 111.72C126.276 111.569 126.405 111.447 126.569 111.447L140.412 111.47C140.575 111.47 140.711 111.592 140.716 111.743L140.816 114.733C140.821 114.883 140.694 115.005 140.531 115.005Z" fill="url(#paint7_linear)"/>
<path d="M160.891 121.664L126.918 121.763C126.753 121.764 126.616 121.641 126.611 121.49L126.509 118.482C126.504 118.331 126.633 118.208 126.798 118.208L160.776 118.191C160.933 118.19 161.065 118.31 161.069 118.458L161.167 121.396C161.171 121.544 161.048 121.664 160.891 121.664Z" fill="#D8DEE8"/>
<path d="M180.147 98.7411L172.32 98.6853L171.203 65.016L179.037 65.184L180.147 98.7411Z" fill="white"/>
<path d="M193.145 98.8336L185.405 98.7785L184.3 65.2968L192.047 65.4631L193.145 98.8336Z" fill="white"/>
<path d="M206 98.9252L198.345 98.8707L197.252 65.5747L204.914 65.739L206 98.9252Z" fill="white"/>
<path d="M180.147 98.7409L172.32 98.6852L171.74 81.2034L179.571 81.3174L180.147 98.7409Z" fill="url(#paint8_linear)"/>
<path d="M193.145 98.8336L185.405 98.7786L184.557 73.069L192.302 73.2093L193.145 98.8336Z" fill="url(#paint9_linear)"/>
<path d="M206 98.9251L198.345 98.8706L197.603 76.2473L205.262 76.3766L206 98.9251Z" fill="url(#paint10_linear)"/>
<path d="M409.543 196.266L334.78 199.113C332.765 199.19 331.077 197.606 331.014 195.574L329.278 139.555C329.215 137.52 330.803 135.856 332.822 135.838L407.715 135.156C409.595 135.139 411.164 136.713 411.222 138.671L412.832 192.596C412.89 194.552 411.419 196.195 409.543 196.266Z" fill="#D8DEE8"/>
<path d="M410.877 195.729L336.114 198.576C334.099 198.653 332.411 197.068 332.349 195.037L330.612 139.018C330.549 136.983 332.137 135.319 334.156 135.3L409.05 134.619C410.929 134.602 412.498 136.175 412.556 138.134L414.166 192.059C414.225 194.015 412.753 195.658 410.877 195.729Z" fill="#F4F7FA"/>
<path d="M331.768 176.642L331.819 178.265L414.394 175.894L414.348 174.332L331.768 176.642Z" fill="white"/>
<path d="M355.756 185.645L341.681 186.102C341.544 186.106 341.43 185.998 341.426 185.861L341.342 183.125C341.338 182.988 341.444 182.873 341.581 182.868L355.657 182.432C355.792 182.428 355.904 182.536 355.908 182.672L355.992 185.39C355.996 185.526 355.89 185.641 355.756 185.645Z" fill="#FFC244"/>
<path d="M370.652 191.234L341.871 192.249C341.734 192.254 341.62 192.146 341.616 192.009L341.532 189.274C341.528 189.136 341.634 189.021 341.771 189.017L370.555 188.044C370.688 188.039 370.798 188.146 370.803 188.282L370.885 190.98C370.889 191.115 370.785 191.229 370.652 191.234Z" fill="#D8DEE8"/>
<path d="M343.807 170.555L339.454 170.665L338.585 142.532L342.941 142.478L343.807 170.555Z" fill="white"/>
<path d="M350.254 170.392L345.927 170.501L345.063 142.452L349.393 142.398L350.254 170.392Z" fill="white"/>
<path d="M356.662 170.229L352.361 170.338L351.502 142.372L355.807 142.318L356.662 170.229Z" fill="white"/>
<path d="M363.033 170.068L358.757 170.176L357.904 142.292L362.183 142.239L363.033 170.068Z" fill="white"/>
<path d="M369.367 169.907L365.116 170.015L364.267 142.213L368.521 142.16L369.367 169.907Z" fill="white"/>
<path d="M375.663 169.748L371.437 169.855L370.593 142.134L374.823 142.082L375.663 169.748Z" fill="white"/>
<path d="M381.923 169.589L377.722 169.695L376.883 142.056L381.087 142.004L381.923 169.589Z" fill="white"/>
<path d="M388.146 169.431L383.969 169.537L383.135 141.978L387.315 141.926L388.146 169.431Z" fill="white"/>
<path d="M394.333 169.274L390.181 169.38L389.351 141.901L393.507 141.849L394.333 169.274Z" fill="white"/>
<path d="M400.485 169.119L396.356 169.223L395.531 141.824L399.663 141.773L400.485 169.119Z" fill="white"/>
<path d="M406.601 168.964L402.496 169.068L401.676 141.748L405.784 141.697L406.601 168.964Z" fill="white"/>
<path d="M343.807 170.555L339.454 170.665L339.003 156.057L343.357 155.976L343.807 170.555Z" fill="#FFC244"/>
<path d="M350.254 170.391L345.927 170.501L345.263 148.962L349.593 148.895L350.254 170.391Z" fill="#FFC244"/>
<path d="M356.662 170.229L352.361 170.338L351.777 151.335L356.081 151.264L356.662 170.229Z" fill="#FFC244"/>
<path d="M363.033 170.068L358.757 170.176L358.171 151.019L362.449 150.948L363.033 170.068Z" fill="#FFC244"/>
<path d="M369.367 169.907L365.116 170.015L364.464 148.666L368.718 148.6L369.367 169.907Z" fill="#FFC244"/>
<path d="M375.663 169.748L371.437 169.855L370.864 151.019L375.092 150.949L375.663 169.748Z" fill="#FFC244"/>
<path d="M381.923 169.589L377.722 169.695L377.104 149.349L381.308 149.283L381.923 169.589Z" fill="#FFC244"/>
<path d="M388.146 169.431L383.969 169.537L383.417 151.279L387.596 151.209L388.146 169.431Z" fill="#FFC244"/>
<path d="M394.333 169.274L390.181 169.38L389.617 150.709L393.772 150.64L394.333 169.274Z" fill="#FFC244"/>
<path d="M400.485 169.119L396.356 169.223L395.723 148.184L399.854 148.12L400.485 169.119Z" fill="#FFC244"/>
<path d="M406.601 168.963L402.496 169.068L401.902 149.292L406.009 149.226L406.601 168.963Z" fill="#FFC244"/>
<path d="M315.355 199.853L233.637 202.965C231.431 203.049 229.584 201.394 229.515 199.269L227.615 140.652C227.546 138.523 229.285 136.78 231.495 136.76L313.362 136.015C315.413 135.996 317.125 137.639 317.189 139.685L318.944 196.014C319.008 198.056 317.402 199.775 315.355 199.853Z" fill="#D8DEE8"/>
<path d="M316.689 199.316L234.971 202.428C232.765 202.512 230.917 200.857 230.849 198.731L228.949 140.114C228.879 137.985 230.619 136.243 232.829 136.223L314.696 135.477C316.747 135.459 318.459 137.102 318.522 139.148L320.278 195.476C320.342 197.519 318.736 199.238 316.689 199.316Z" fill="#F4F7FA"/>
<path d="M320.322 176.978L230.231 179.499L230.286 181.197L320.373 178.61L320.322 176.978Z" fill="white"/>
<path d="M268.681 188.471L241.554 189.351C241.405 189.356 241.281 189.243 241.276 189.099L241.184 186.238C241.179 186.094 241.296 185.974 241.445 185.969L268.575 185.129C268.72 185.125 268.842 185.236 268.846 185.379L268.936 188.205C268.941 188.347 268.827 188.466 268.681 188.471Z" fill="#C281E8"/>
<path d="M290.629 194.057L241.762 195.781C241.613 195.786 241.488 195.674 241.483 195.53L241.391 192.669C241.386 192.525 241.503 192.405 241.652 192.4L290.524 190.748C290.667 190.743 290.786 190.853 290.79 190.994L290.879 193.793C290.883 193.934 290.771 194.052 290.629 194.057Z" fill="#D8DEE8"/>
<path d="M238.252 163.073C238.139 163.073 238.023 163.048 237.915 162.996C237.53 162.809 237.369 162.346 237.555 161.962C240.407 156.075 243.713 152.869 247.383 152.434C249.645 152.167 251.353 153.006 253.004 153.82C254.752 154.682 256.405 155.497 258.837 155.197C260.687 154.971 261.573 154.273 262.694 153.388C263.842 152.483 265.143 151.458 267.656 150.778C270.396 150.038 272.1 150.383 274.072 150.785C275.517 151.079 277.155 151.414 279.57 151.362C282.979 151.291 284.798 150.538 287.099 149.583C288.783 148.885 290.692 148.093 293.557 147.447C298.537 146.323 303.908 146.243 309.52 147.208C309.942 147.281 310.225 147.681 310.152 148.103C310.079 148.524 309.68 148.805 309.257 148.734C303.846 147.802 298.678 147.878 293.897 148.956C291.163 149.574 289.32 150.338 287.694 151.012C285.338 151.989 283.304 152.832 279.602 152.909C277.01 152.961 275.287 152.611 273.763 152.301C271.911 151.925 270.448 151.626 268.061 152.272C265.853 152.869 264.735 153.75 263.654 154.603C262.447 155.555 261.306 156.454 259.026 156.734C256.134 157.085 254.107 156.089 252.318 155.207C250.738 154.428 249.372 153.759 247.565 153.97C244.455 154.339 241.557 157.255 238.95 162.636C238.816 162.912 238.539 163.073 238.252 163.073Z" fill="url(#paint11_linear)"/>
<path d="M310.437 170.263L282.632 170.954L282.264 159.357L310.079 158.81L310.437 170.263Z" fill="#D8DEE8"/>
<path d="M254.743 145.682L240.152 145.877C240.002 145.879 239.878 145.764 239.873 145.62L239.781 142.756C239.776 142.612 239.893 142.493 240.043 142.492L254.635 142.318C254.782 142.317 254.905 142.431 254.91 142.574L255.001 145.42C255.006 145.563 254.89 145.68 254.743 145.682Z" fill="#D8DEE8"/>
<path opacity="0.19" d="M111.538 285.091C97.1534 285.702 81.1537 286.967 62.242 293.453C57.9518 294.924 17.9973 309.641 19.2446 318.097C20.1662 324.344 41.208 321.593 74.1763 330.663C108.945 340.228 115.323 345.177 135.721 345.946C159.137 346.829 160.374 336.675 190.598 333.868C207.703 332.279 213.383 334.967 229.748 336.948C236.384 337.752 240.011 337.952 250.591 338.513C298.792 341.068 307.447 343.487 309.129 339.698C311.962 333.318 291.768 316.661 272.914 306.924C256.522 298.459 242.545 295.956 215.712 291.13C169.602 282.837 135.41 284.079 111.538 285.091Z" fill="#6165D7"/>
<path opacity="0.32" d="M218.89 300.582C96.8412 269.771 89.9027 276.117 87.9218 279.341C84.3088 285.218 88.342 295.912 95.7766 305.633C89.2303 304.265 82.8472 304.157 77.5076 306.216C66.4554 310.48 52.2667 307.044 51.9422 310.213C51.5802 313.753 67.4659 319.79 76.396 319.984C95.8399 320.405 117.239 326.034 128.136 327.805C151.65 333.855 178.206 326.445 190.199 324.184C211.661 320.138 220.221 314.831 242.469 314.762C260.315 314.707 273.444 317.97 273.696 316.818C274.185 314.589 225.069 302.142 218.89 300.582Z" fill="#6165D7"/>
<path d="M72.44 243.395H98.0587C98.0587 243.395 102.881 230.268 96.603 221.004C83.7936 202.102 101.261 192.215 107.957 186.98C118.055 179.086 122.504 168.887 110.361 162.271C96.6221 154.785 108.733 134.86 126.88 124.459C144.639 114.281 136.773 76.8759 96.3121 95.3793C72.149 106.43 75.9336 132.02 74.7691 145.396C73.6047 158.773 53.6878 159.88 60.504 176.221C66.3265 190.179 77.3892 200.357 68.9466 209.953C60.5038 219.55 59.6305 230.309 72.44 243.395Z" fill="url(#paint12_linear)"/>
<path d="M83.5181 245.771C83.4575 245.442 77.5158 212.398 81.5139 177.861C83.8641 157.559 89.1381 140.716 97.1889 127.801C107.268 111.632 121.745 101.61 140.218 98.0126L140.325 98.5618C98.8348 106.641 85.7451 146.179 82.07 177.925C78.0817 212.381 84.0086 245.342 84.0687 245.671L83.5181 245.771Z" fill="#BEB8F2"/>
<path d="M93.2684 134.744C91.0312 116.795 97.8644 91.3447 97.9335 91.0896L98.4741 91.2357C98.405 91.49 91.6005 116.836 93.824 134.675L93.2684 134.744Z" fill="#BEB8F2"/>
<path d="M100.293 124.163L99.9967 123.689C118.429 112.217 135.675 117.739 135.847 117.796L135.671 118.327C135.501 118.271 118.494 112.836 100.293 124.163Z" fill="#BEB8F2"/>
<path d="M80.6913 200.585L80.1465 200.455C86.2514 174.741 121.397 168.284 121.736 168.284L121.753 168.843C121.41 168.875 86.7291 175.153 80.6913 200.585Z" fill="#BEB8F2"/>
<path d="M80.5053 189.791C77.1483 173.665 59.5866 162.538 59.4096 162.427L59.7061 161.953C59.8851 162.064 77.6478 173.319 81.0538 189.677L80.5053 189.791Z" fill="#BEB8F2"/>
<path d="M83.2508 240.465L82.692 240.42C83.4959 230.209 97.4746 222.464 98.0697 222.139L98.3381 222.63C98.1954 222.708 84.0304 230.556 83.2508 240.465Z" fill="#BEB8F2"/>
<path d="M81.7231 232.675C80.4354 225.144 68.8417 216.609 65.0324 213.804C64.2728 213.245 63.9606 213.014 63.8609 212.902L64.2795 212.53C64.3516 212.608 64.8213 212.954 65.3644 213.354C69.219 216.192 80.9494 224.827 82.2749 232.581L81.7231 232.675Z" fill="#BEB8F2"/>
<path d="M128.494 202.761C128.494 202.761 111.286 172.996 88.0127 223.613C69.8907 263.028 81.6033 306.877 123.528 318.909C165.452 330.941 230.934 306.641 210.38 289.516C166.781 253.189 133.692 220.991 128.494 202.761Z" fill="url(#paint13_linear)"/>
<g opacity="0.35">
<path opacity="0.35" d="M108.513 229.583C107.367 233.214 105.398 243.383 105.915 255.194C106.376 265.73 105.418 271.238 122.2 278.902C127.952 281.528 131.93 289.864 140.737 294.822C144.729 297.07 159.771 305.204 179.196 301.917C192.049 299.742 201.619 293.446 208.064 287.578C165.617 252.048 133.599 220.665 128.494 202.761C128.494 202.761 122.206 191.894 112.094 194.467C114.548 197.198 117.246 201.343 118.042 206.914C119.169 214.799 112.275 217.67 108.513 229.583Z" fill="url(#paint14_linear)"/>
</g>
<g opacity="0.13">
<path opacity="0.13" d="M190.63 306.936C170.803 317.872 137.689 324.547 113.018 306.244C90.1746 289.296 88.1394 260.914 87.378 252.252C86.0471 237.115 89.0079 223.933 93.2769 213.301C91.5614 216.296 89.8053 219.714 88.0127 223.613C69.8907 263.027 81.6033 306.877 123.528 318.908C164.795 330.752 228.885 307.394 211.284 290.327C206.282 295.963 199.533 302.026 190.63 306.936Z" fill="url(#paint15_linear)"/>
</g>
<path d="M159.394 310.244C158.807 310.244 158.215 310.238 157.619 310.225C142.292 309.883 120.773 304.798 105.301 282.513C92.2319 263.69 93.9805 242.451 97.7482 227.947C101.825 212.255 109.084 200.849 109.157 200.735C109.256 200.58 109.462 200.536 109.617 200.635C109.772 200.734 109.817 200.94 109.718 201.095C109.646 201.207 102.437 212.539 98.3887 228.132C94.6602 242.496 92.9277 263.525 105.848 282.134C121.155 304.18 142.446 309.215 157.611 309.559C174.091 309.928 187.08 305.011 187.21 304.962C187.381 304.897 187.575 304.982 187.641 305.154C187.707 305.325 187.621 305.518 187.449 305.584C187.324 305.632 175.133 310.244 159.394 310.244Z" fill="#FFA6A4"/>
<path d="M241.626 307.368C240.533 306.193 238.575 301.135 242.146 300.096C245.737 299.051 247.733 297.728 252.678 293.768C257.622 289.808 258.893 293.209 251.908 299.639C244.924 306.07 243.18 309.039 241.626 307.368Z" fill="url(#paint16_linear)"/>
<path d="M236.947 299.982L239.888 302.547C240.502 303.083 241.397 303.152 242.086 302.717C242.407 302.514 242.613 302.17 242.64 301.792C242.668 301.413 242.513 301.044 242.225 300.797L237.925 297.122L236.947 299.982Z" fill="url(#paint17_linear)"/>
<path d="M148.844 275.278C143.647 279.826 154.496 294.741 171.827 289.907C192.829 284.048 219.539 286.681 237.544 301.324C238.588 300.396 241.175 298.94 239.992 297.745C223.727 281.316 208.662 271.884 196.184 269.354C177.319 265.528 163.643 262.329 148.844 275.278Z" fill="url(#paint18_linear)"/>
<g opacity="0.24">
<path opacity="0.24" d="M209.774 281.525C212.821 283.295 213.47 279.699 215.042 277.333C208.296 273.195 201.96 270.525 196.184 269.354C177.319 265.528 163.643 262.329 148.844 275.279C143.647 279.827 154.496 294.741 171.827 289.907C178.095 288.159 184.875 287.186 191.776 287.044C197.328 283.557 201.871 275.555 209.774 281.525Z" fill="#552D63"/>
</g>
<path d="M145.777 290.815L144.71 291.222C144.71 291.222 137.809 284.714 136.58 283.055C135.079 281.031 151.977 275.872 157.465 269.121C163.23 262.028 158.675 277.542 158.675 277.542L145.777 290.815Z" fill="url(#paint19_linear)"/>
<path d="M139.519 226.963C139.519 226.963 145.645 227.802 152.363 239.7C157.413 248.646 168.379 256.058 168.379 256.058L169.505 263.097L160.404 264.694L157.148 262.553L148.267 243.678L139.519 226.963Z" fill="url(#paint20_linear)"/>
<path d="M127.641 226.204C127.641 226.204 112.539 228.064 112.215 245.422C111.916 261.439 117.701 267.645 131.898 281.001C133.325 282.344 135.64 282.345 135.812 282.538C136.734 283.577 137.669 284.66 138.613 285.792C151.319 273.613 165.645 269.488 165.645 269.488C165.645 269.488 152.396 242.109 146.574 233.033C140.571 223.676 131.518 225.273 127.641 226.204Z" fill="url(#paint21_linear)"/>
<g opacity="0.2">
<path opacity="0.2" d="M152.713 266.638C146.338 270.045 137.303 269.66 133.981 265.444C131.479 262.269 131.073 261.085 128.027 256.099C125.577 252.088 124.384 251.445 119.03 248.068C117.01 246.793 114.716 244.948 112.468 242.183C112.326 243.199 112.236 244.274 112.215 245.421C111.915 261.439 117.701 267.645 131.897 281.001C133.325 282.344 135.64 282.345 135.811 282.538C136.734 283.577 137.669 284.659 138.613 285.791C151.319 273.612 165.645 269.488 165.645 269.488C165.645 269.488 163.446 265.181 160.534 259.126C158.421 262.662 156.802 264.453 152.713 266.638Z" fill="url(#paint22_linear)"/>
</g>
<path d="M142.3 267.148C142.3 267.148 145.162 267.28 147.195 266.462C149.228 265.644 149.06 265.456 151.4 265.159C153.674 264.871 158.153 263.523 155.617 261.219C152.795 258.654 147.956 259.373 146.566 261.075C145.226 262.717 142.903 263.759 142.903 263.759L142.3 267.148Z" fill="url(#paint23_linear)"/>
<path d="M116.774 234.856C116.774 234.856 108.387 235.831 113.281 262.809C115.819 276.801 128.366 274.832 143.517 269.05C144.543 266.907 143.223 262.364 143.223 262.364C143.223 262.364 124.399 270.117 123.912 258.807C123.366 246.126 121.667 233.516 116.774 234.856Z" fill="url(#paint24_linear)"/>
<path d="M131.155 231.973C127.554 231.973 123.9 229.313 123.725 229.184C123.651 229.129 123.635 229.025 123.689 228.951C123.744 228.877 123.848 228.863 123.922 228.916C123.97 228.952 128.756 232.431 132.62 231.468C133.685 231.202 134.414 230.683 134.786 229.925C135.496 228.479 134.69 226.613 134.682 226.594C134.645 226.51 134.683 226.412 134.768 226.375C134.851 226.339 134.95 226.375 134.987 226.46C135.023 226.542 135.863 228.483 135.086 230.07C134.668 230.922 133.866 231.501 132.7 231.792C132.193 231.918 131.674 231.973 131.155 231.973Z" fill="#9F73F8"/>
<path d="M136.491 282.014C136.446 282.014 136.4 281.995 136.367 281.959C136.305 281.891 136.311 281.785 136.379 281.724C136.515 281.602 150.039 269.509 162.252 266.526C162.34 266.507 162.431 266.56 162.453 266.649C162.475 266.738 162.42 266.828 162.33 266.85C150.199 269.813 136.737 281.85 136.602 281.971C136.57 281.999 136.531 282.014 136.491 282.014Z" fill="#AE87F9"/>
<path d="M123.624 215.713C123.624 215.713 125.766 224.367 125.338 226.137C124.909 227.907 127.444 229.831 131.887 230.028C136.33 230.226 131.409 221.138 131.409 221.138L123.624 215.713Z" fill="url(#paint25_linear)"/>
<path d="M138.735 207.291C141.502 202.723 137.985 196.149 132.238 198.428C128.317 199.983 125.831 198.882 123.236 199.839C118.614 201.544 119.116 204.826 120.183 208.165C121.111 214.786 121.075 217.396 128.166 221.267C130.87 211.893 135.359 212.863 138.735 207.291Z" fill="url(#paint26_linear)"/>
<path d="M124.484 218.896C124.484 218.896 127.337 223.613 133.056 223.263C138.774 222.913 137.147 209.787 135.709 209.041C134.042 208.175 131.706 209.287 127.905 208.684C126.305 208.429 124.828 206.561 124.146 208.705C123.37 211.144 123.946 214.836 123.946 214.836C123.946 214.836 122.183 213.311 121.29 214.931C120.569 216.238 121.76 217.915 124.484 218.896Z" fill="url(#paint27_linear)"/>
<path d="M124.067 205.895C124.067 205.895 123.793 213.723 125.736 216.148C126.618 217.671 125.472 217.706 124.507 216.582C123.541 215.459 122.496 211.868 122.496 211.868L124.067 205.895Z" fill="url(#paint28_linear)"/>
<path d="M125.243 200.03C125.225 200.031 125.213 200.031 125.206 200.032C125.12 200.037 125.046 199.971 125.041 199.884C125.037 199.798 125.102 199.725 125.188 199.72C125.19 199.719 125.191 199.719 125.199 199.719C125.457 199.703 130.446 199.369 131.525 197.295C131.564 197.218 131.658 197.189 131.736 197.228C131.813 197.268 131.842 197.362 131.803 197.439C130.657 199.641 125.76 199.998 125.243 200.03Z" fill="url(#paint29_linear)"/>
<path d="M144.312 270.773C144.174 270.793 144.047 270.893 144.013 271.024C144.007 271.043 144.061 271.727 144.059 271.747C144.046 271.906 144.144 272.054 144.296 272.103L157.137 276.269L181.134 266.882L169.732 267.753L144.312 270.773Z" fill="#26264F"/>
<path d="M144.306 270.681C144.148 270.704 144.026 270.832 144.013 270.991C143.999 271.15 144.097 271.298 144.249 271.347L157.09 275.513L181.088 266.126L169.686 266.997L144.306 270.681Z" fill="#444B8C"/>
<path d="M156.522 275.326L158.435 250.321C158.466 249.92 158.768 249.593 159.166 249.531L187.904 245.038C188.161 244.998 188.423 245.075 188.617 245.249C188.811 245.423 188.917 245.674 188.905 245.934L187.826 269.24C187.807 269.643 187.514 269.979 187.117 270.052L157.262 275.573L156.522 275.326Z" fill="url(#paint30_linear)"/>
<path d="M157.137 276.269L159.109 250.712C159.14 250.312 159.443 249.985 159.84 249.923L188.579 245.43C188.836 245.39 189.098 245.467 189.292 245.641C189.486 245.814 189.591 246.066 189.579 246.326L188.5 269.636C188.482 270.036 188.19 270.372 187.796 270.447L157.137 276.269Z" fill="#26264F"/>
<path d="M157.137 276.269L187.796 270.447C188.191 270.372 188.482 270.037 188.501 269.636L188.826 262.606C179.693 267.787 168.247 268.446 157.58 270.524L157.137 276.269Z" fill="#1F1F44"/>
<path d="M209.065 271.031C208.646 269.577 207.72 267.97 211.026 266.798C213.427 265.947 217.597 265.674 221.386 265.48C226.697 265.208 227.918 268.381 220.157 270.401C215.075 271.723 209.661 273.098 209.065 271.031Z" fill="url(#paint31_linear)"/>
<path d="M213.203 268.805C213.253 269.619 212.735 270.257 212.058 270.354C210.486 270.578 210.781 269.77 210.731 268.956C210.681 268.143 210.046 267.578 211.877 267.408C212.558 267.344 213.154 267.992 213.203 268.805Z" fill="url(#paint32_linear)"/>
<path d="M197.078 264.126L198.63 263.882C198.63 263.882 201.651 264.165 209.979 266.458C211.761 266.753 214.192 271.95 208.968 272.154C203.745 272.358 197.388 276.244 197.388 276.244L197.078 264.126Z" fill="url(#paint33_linear)"/>
<path d="M142.846 288.307C142.846 288.307 143.607 295.05 159.306 294.437C175.005 293.823 203.051 277.544 202.874 269.002C202.698 260.459 192.261 263.872 181.456 268.809C172.335 272.977 158.247 275.391 155.36 275.838C151.663 276.411 141.953 285.067 142.846 288.307Z" fill="url(#paint34_linear)"/>
<g opacity="0.2">
<path opacity="0.2" d="M163.387 279.855C170.654 279.115 172.286 273.906 181.328 272.4C187.188 271.425 189.258 273.153 192.245 271.155C194.603 269.577 195.806 266.827 196.386 263.839C192.378 264.179 186.969 266.29 181.455 268.81C172.597 272.858 159.052 275.251 155.636 275.795C155.535 275.811 153.244 274.993 153.244 274.993C153.244 274.993 151.539 275.966 150.317 276.735C155.08 279.285 160.733 280.125 163.387 279.855Z" fill="url(#paint35_linear)"/>
</g>
<path d="M62.38 291.465C57.7272 298.794 60.1422 307.058 62.7563 312.752C63.5449 312.861 63.9746 313.14 64.7464 313.439C71.7136 316.14 79.1946 317.499 86.4427 318.995C88.0027 319.316 89.5337 319.391 91.1168 319.595L92.7301 319.76C92.7301 319.76 103.158 297.684 94.1309 291.154C85.1037 284.624 91.3286 266.217 93.5085 256.018C99.4229 228.345 68.8314 226.889 73.5861 190.721C74.8507 181.101 80.4827 163.179 73.3786 154.445C65.2852 144.495 57.3992 152.165 52.4187 144.08C44.6343 131.445 30.0925 125.36 19.5471 135.912C9.13911 146.326 16.8672 170.816 41.2168 192.895C56.889 210.712 56.5525 215.381 53.6637 226.479C51.6403 234.253 41.368 253.842 51.0179 263.481C60.668 273.119 67.699 283.087 62.38 291.465Z" fill="url(#paint36_linear)"/>
<path d="M79.1595 316.986L78.5967 316.982C78.621 313.758 78.6052 310.502 78.5504 307.306C78.1433 283.669 75.5425 260.927 70.8198 239.713C66.8195 221.742 61.2433 204.611 54.2478 188.798C48.6229 176.084 42.054 164.149 34.7233 153.325C29.5735 145.72 24.1025 138.737 18.4625 132.57C17.4871 131.504 16.4245 130.462 15.397 129.454C14.0105 128.095 12.5769 126.69 11.321 125.19L11.7527 124.829C12.9907 126.308 14.4141 127.704 15.7908 129.053C16.8238 130.067 17.8919 131.113 18.8779 132.192C24.5361 138.378 30.0237 145.383 35.1892 153.01C42.5385 163.862 49.1236 175.826 54.7621 188.571C61.7729 204.418 67.3605 221.584 71.3684 239.591C76.0996 260.842 78.7051 283.622 79.113 307.296C79.1683 310.497 79.1838 313.757 79.1595 316.986Z" fill="#FCFDFE"/>
<path d="M61.9771 208.426C54.871 186.049 68.6687 148.402 68.8089 148.025L69.3364 148.22C69.1967 148.596 55.4656 186.064 62.5137 208.256L61.9771 208.426Z" fill="#FCFDFE"/>
<path d="M76.247 272.24C73.2714 256.845 46.9424 241.695 46.6765 241.544L46.9549 241.056C47.2228 241.208 73.7747 256.485 76.7999 272.133L76.247 272.24Z" fill="#FCFDFE"/>
<path d="M77.1942 281.262C77.0585 270.755 82.4686 256.393 92.4282 240.821C92.645 240.481 92.8328 240.188 92.8598 240.132L93.0741 240.237H93.4009C93.4009 240.343 93.4009 240.343 92.9016 241.123C83.0004 256.604 77.622 270.856 77.7567 281.255L77.1942 281.262Z" fill="#FCFDFE"/>
<path d="M78.5579 311.086C75.2143 300.408 59.634 294.275 59.4772 294.214L59.68 293.69C59.8395 293.752 75.6697 299.981 79.0947 310.918L78.5579 311.086Z" fill="#FCFDFE"/>
<path d="M79.4244 317.135L78.8969 316.94C82.1399 308.192 87.9952 300.095 96.7963 292.188L97.1726 292.606C88.4404 300.451 82.6351 308.474 79.4244 317.135Z" fill="#FCFDFE"/>
<path d="M38.9462 159.785C34.3149 147.602 32.282 133.755 31.6137 129.205C31.4978 128.414 31.4059 127.789 31.3741 127.688L31.9077 127.512C31.9515 127.643 32.0096 128.029 32.17 129.123C32.8363 133.659 34.8627 147.459 39.472 159.585L38.9462 159.785Z" fill="#FCFDFE"/>
<path d="M49.3577 178.391C42.018 168.979 17.3043 165.998 17.0552 165.97L17.1208 165.411C18.146 165.531 42.3181 168.449 49.8013 178.045L49.3577 178.391Z" fill="#FCFDFE"/>
<path d="M62.1058 312.642C62.2032 312.684 62.2981 312.731 62.398 312.769C69.4068 315.469 76.8462 316.828 84.0943 318.324C85.0707 318.526 86.0534 318.695 87.0401 318.844C88.349 315.188 89.3514 309.799 84.6578 308.356C77.3687 306.116 77.2926 293.279 79.331 288.754C81.8542 283.153 87.4614 269.991 76.247 266.35C66.9114 263.32 60.2669 263.27 59.7061 251.228C59.1453 239.186 52.6272 231.625 41.6932 232.255C30.1872 232.918 20.877 217.553 11.4149 222.594C-5.07192 231.377 9.59253 258.019 29.4976 265.86C49.4028 273.702 37.8937 280.798 37.2775 290.644C36.4365 304.086 54.6595 301.356 59.4254 306.676C61.04 308.478 61.8154 310.568 62.1058 312.642Z" fill="url(#paint37_linear)"/>
<path d="M73.3072 316.113C65.6705 277.367 39.2481 242.515 4.35086 225.155L4.60198 224.653C39.6515 242.088 66.1893 277.092 73.8588 316.004L73.3072 316.113Z" fill="#FCFDFE"/>
<path d="M67.8695 295.257L67.3067 295.255C67.3768 279.42 80.9692 267.172 81.1069 267.05L81.4802 267.471C81.345 267.591 67.9381 279.677 67.8695 295.257Z" fill="#FCFDFE"/>
<path d="M71.7019 308.996C64.3949 295.324 35.9679 293.254 35.6814 293.234L35.7197 292.674C36.0087 292.693 64.746 294.788 72.1981 308.731L71.7019 308.996Z" fill="#FCFDFE"/>
<path d="M48.17 261.415C43.1346 249.678 50.8193 231.797 50.8975 231.618L51.413 231.842C51.3358 232.019 43.748 249.68 48.6875 261.193L48.17 261.415Z" fill="#FCFDFE"/>
<path d="M30.9337 243.042C18.9733 235.626 0.308201 239.63 0.121177 239.67L0 239.122C0.189026 239.079 19.0787 235.032 31.2302 242.565L30.9337 243.042Z" fill="#FCFDFE"/>
<path d="M94.514 319.753C94.5135 319.753 94.6997 320.661 94.6992 320.661C78.9344 320.551 59.8543 312.961 59.6693 312.886C59.5321 312.83 59.8568 311.849 59.9131 311.711C59.9694 311.574 60.1267 311.508 60.2631 311.565C60.4474 311.641 78.8566 319.107 94.5157 319.216C94.6642 319.217 94.7834 319.338 94.7824 319.486C94.7814 319.634 94.6612 319.753 94.514 319.753Z" fill="#5A2F71"/>
<path d="M343.71 135.946L261.402 131.653C259.114 131.534 257.661 129.662 258.164 127.474L271.916 67.6748C272.411 65.5218 274.635 63.9687 276.877 64.2038L357.55 72.6677C359.514 72.8738 360.747 74.6682 360.308 76.6769L348.138 132.441C347.693 134.481 345.713 136.05 343.71 135.946Z" fill="#D8DEE8"/>
<path d="M344.737 136.214L262.523 131.907C260.237 131.787 258.784 129.942 259.285 127.786L272.966 68.8798C273.458 66.7591 275.678 65.2308 277.918 65.4647L358.503 73.8793C360.465 74.0841 361.698 75.8532 361.262 77.8322L349.157 132.766C348.714 134.775 346.738 136.319 344.737 136.214Z" fill="url(#paint38_linear)"/>
<path d="M352.987 115.531L263.566 109.281L263.169 110.993L352.635 117.127L352.987 115.531Z" fill="white"/>
<path d="M327.877 70.6873L318.076 114.272L319.746 114.387L329.524 70.8598L327.877 70.6873Z" fill="white"/>
<path d="M304.843 122.311L272.509 120.315C272.356 120.306 272.259 120.181 272.293 120.036L272.958 117.155C272.991 117.01 273.142 116.9 273.295 116.91L305.595 118.99C305.74 118.999 305.832 119.121 305.8 119.263L305.164 122.071C305.132 122.213 304.988 122.32 304.843 122.311Z" fill="#C281E8"/>
<path d="M311.928 129.116L271.013 126.798C270.86 126.789 270.763 126.664 270.797 126.519L271.463 123.634C271.496 123.489 271.647 123.378 271.8 123.387L312.672 125.812C312.816 125.821 312.906 125.941 312.875 126.082L312.245 128.877C312.213 129.017 312.071 129.124 311.928 129.116Z" fill="#D8DEE8"/>
<path d="M354.401 88.2424L330.708 86.0566L332.798 76.7289L356.423 79.0902L354.401 88.2424Z" fill="#D8DEE8"/>
<path d="M349.513 110.366L325.654 108.606L329.816 90.0363L353.538 92.1472L349.513 110.366Z" fill="#D8DEE8"/>
<path d="M297.251 83.4775C301.078 83.8291 303.495 87.1022 302.657 90.7792C302.422 91.8121 301.949 92.7659 301.314 93.6037L308.544 97.9217C309.955 96.0263 310.994 93.8683 311.52 91.5458C313.416 83.1766 307.948 75.6891 299.229 74.8275C299.206 74.8253 299.183 74.8245 299.161 74.8225L297.182 83.4747C297.205 83.4765 297.228 83.4752 297.251 83.4775Z" fill="white"/>
<path d="M301.314 93.6035C299.685 95.753 296.951 97.1167 294.184 96.8924C290.318 96.5788 287.85 93.2926 288.704 89.5724C289.552 85.8778 293.355 83.1596 297.182 83.4745L299.16 74.8223C290.342 73.9875 281.491 80.2214 279.516 88.7776C277.532 97.3755 283.269 104.931 292.195 105.593C298.571 106.066 304.849 102.884 308.544 97.9217L301.314 93.6035Z" fill="url(#paint39_linear)"/>
<path opacity="0.47" d="M265.141 95.7935C264.011 96.8093 268.1 105.683 275.47 112.645C282.939 119.701 288.561 119.862 294.406 128.25C297.231 132.303 296.212 132.687 298.408 135.601C307.014 147.017 329.688 150.468 338.82 141.662C339.775 140.742 341.91 136.664 346.179 128.508C346.663 127.585 348.877 123.32 351.043 117.46C352.922 112.375 353.958 109.506 352.936 108.69C350.847 107.022 343.619 116.107 338.82 114.021C335.785 112.701 337.328 107.736 333.311 104.219C330.064 101.377 325.637 101.517 324.488 101.554C314.474 101.871 313.347 112.893 303.96 114.966C296.155 116.69 287.895 111.067 275.813 102.843C269.366 98.4541 265.969 95.0492 265.141 95.7935Z" fill="#D8DEE8"/>
<path d="M266.776 99.4905L264.711 97.427C264.711 97.427 263.161 95.4281 264.194 92.5909C265.227 89.7536 266.647 90.5274 266.647 90.5274L266.26 92.5263C266.26 92.5263 266.002 93.816 267.228 95.4281C268.326 97.3625 268.519 98.8458 268.519 98.8458L266.776 99.4905Z" fill="url(#paint40_linear)"/>
<path d="M352.764 107.53L355.088 105.423L356.121 101.597C356.121 101.597 358.961 102.715 357.412 106.326C356.422 107.53 353.991 109.335 352.958 111.098C351.925 112.86 352.764 107.53 352.764 107.53Z" fill="url(#paint41_linear)"/>
<path d="M329.869 133.194C329.869 133.194 341.015 126.316 343.726 123.865C346.554 121.31 353.991 111.484 354.636 110.324C355.282 109.163 352.635 106.842 352.635 106.842C352.635 106.842 339.681 123.005 323.413 118.233C325.995 124.037 329.869 133.194 329.869 133.194Z" fill="url(#paint42_linear)"/>
<path d="M331.483 228.178C331.483 228.178 333.527 233.315 332.989 235.593C335.184 235.55 336.604 235.271 336.604 235.271C336.604 235.271 335.722 232.928 335.55 231.767C335.317 230.199 335.335 227.662 335.335 227.662L331.483 228.178Z" fill="url(#paint43_linear)"/>
<path d="M308.947 240.193C309.079 240.353 309.314 240.685 309.334 241.137C309.345 241.382 309.288 241.584 309.218 241.769C308.869 242.686 308.322 242.806 307.731 243.778C307.37 244.372 307.438 244.552 307.108 244.82C306.672 245.173 306.145 245.193 305.688 245.199C304.915 245.208 303.803 245.18 302.403 245.013C303.137 244.069 303.917 243.109 304.747 242.141C305.111 241.716 305.474 241.301 305.837 240.896L307.994 240.168C308.311 240.176 308.629 240.184 308.947 240.193Z" fill="#26264F"/>
<path d="M307.153 229.732C307.153 229.732 305.92 236.158 307.489 237.958C308.826 239.757 306.844 238.474 306.844 238.474L304.477 240.537L303.056 242.988C303.056 242.988 304.364 236.698 304.015 234.201C303.666 231.705 303.492 230.022 303.492 230.022L307.153 229.732Z" fill="url(#paint44_linear)"/>
<path d="M313.256 118.191C307.255 117.18 298.66 120.215 288.725 114.967C278.951 109.803 273.176 102.181 269.811 97.2982C268.348 98.0207 266.886 98.743 265.424 99.4655C267.908 103.749 273.76 112.926 281.514 119.316C291.275 127.359 300.825 127.829 306.026 134.398C308.472 131.976 316.185 118.684 313.256 118.191Z" fill="url(#paint45_linear)"/>
<path d="M302.504 159.435C302.504 159.435 299.192 162.396 299.192 174.586C299.192 186.776 300.761 213.246 300.761 213.246L303.272 232.197C303.272 232.197 305.875 232.29 307.618 231.767C309.187 224.627 311.744 212.549 310.524 202.449C310.001 191.478 314.882 177.72 314.882 177.72C314.882 177.72 319.066 191.652 322.03 198.618C324.994 205.584 330.637 227.406 331.16 228.973C334.628 229.287 336.109 228.371 336.109 228.371C336.109 228.371 333.885 204.887 331.793 196.006C329.701 187.124 329.876 165.704 326.389 159.609C318.543 156.475 302.504 159.435 302.504 159.435Z" fill="url(#paint46_linear)"/>
<path d="M302.504 159.435C302.504 159.435 299.192 162.396 299.192 174.586C299.192 186.776 300.761 213.246 300.761 213.246L303.272 232.197C303.272 232.197 305.875 232.29 307.618 231.767C309.188 224.627 311.744 212.549 310.524 202.449C310.001 191.478 314.883 177.72 314.883 177.72C314.883 177.72 319.067 191.652 322.031 198.618C324.994 205.584 330.637 227.406 331.16 228.973C334.628 229.287 336.109 228.371 336.109 228.371C336.109 228.371 333.886 204.887 331.794 196.006C329.702 187.124 329.876 165.704 326.389 159.609C318.544 156.475 302.504 159.435 302.504 159.435Z" fill="url(#paint47_linear)"/>
<path opacity="0.25" d="M319.712 181.771C320.745 188.477 322.81 192.088 327.975 196.731C332.107 199.827 329.008 206.533 330.557 211.691C331.074 213.239 332.623 214.787 333.14 216.334C335.061 220.174 333.267 224.87 334.138 228.935C335.494 228.748 336.109 228.371 336.109 228.371C336.109 228.371 333.886 204.887 331.794 196.006C329.702 187.124 329.876 165.705 326.389 159.609C318.544 156.475 302.505 159.435 302.505 159.435C302.505 159.435 299.192 162.396 299.192 174.586C299.192 175.575 299.203 176.659 299.222 177.814C302.66 180.855 309.694 181.53 314.031 178.16C314.293 177.964 314.572 177.843 314.86 177.785C314.874 177.746 314.883 177.72 314.883 177.72C314.883 177.72 314.89 177.744 314.901 177.781C316.875 177.421 319.264 179.982 319.712 181.771Z" fill="url(#paint48_linear)"/>
<path d="M332.451 237.543C332.451 237.543 331.942 237.543 331.984 238.2C332.027 238.858 331.755 241.119 334.345 241.225C336.935 241.331 337.334 241.042 337.419 241.042C337.504 241.042 336.74 238.879 336.74 238.879L335.912 237.818L333.683 237.585L332.451 237.543Z" fill="#26264F"/>
<path d="M338.194 239.813C338.139 239.266 337.833 238.407 337.525 237.715C337.068 236.688 337.444 236.303 337.006 235.367C336.855 235.043 336.709 234.737 336.389 234.432C336.316 234.362 335.601 233.703 334.56 233.736C334.356 233.743 334.04 233.757 333.699 233.938C333.298 234.152 333.096 234.473 332.925 234.755C332.655 235.198 332.717 235.334 332.301 236.604C332.267 236.706 332.194 236.927 332.138 237.233C332.095 237.467 332.077 237.663 332.07 237.797C332.749 237.797 335.36 237.903 335.912 238.306C336.464 238.709 336.74 239.388 336.74 240.066C336.74 240.745 337.08 241.063 337.419 241.042C337.723 241.023 338.326 240.461 338.194 239.813Z" fill="#444B8C"/>
<path d="M306.822 237.055C307.406 237.064 307.834 237.528 308.157 238.645C308.479 239.763 310.029 240.752 308.221 240.515C306.413 240.279 305.101 242.837 304.455 243.782C303.81 244.728 302.077 245.569 302.12 244.644C302.163 243.72 302.928 243.288 303.143 242.342C303.358 241.396 305.492 237.034 306.822 237.055Z" fill="#444B8C"/>
<path d="M319.11 117.804C316.183 117.718 308.735 116.906 305.251 120.383C301.689 123.939 305.297 128.208 304.655 134.068C304.219 138.041 304.376 140.383 303.62 146.879C303.466 148.204 303.216 149.688 302.795 151.483C301.8 155.717 300.07 164.044 299.14 166.123C302.121 167.653 309.803 170.39 318.956 169.03C323.136 168.409 326.482 167.02 328.836 165.78C326.461 158.597 326.904 148.757 327.783 145.214C329.519 138.219 329.911 135.472 334.818 125.413C336.17 122.639 332.958 124.193 330.901 121.759C327.746 118.025 322.062 117.891 319.11 117.804Z" fill="url(#paint49_linear)"/>
<path opacity="0.25" d="M310.416 136.117C310.565 134.825 310.808 132.465 309.641 129.991C309.448 129.582 308.793 128.271 307.576 127.154C304.98 124.773 301.631 124.931 297.807 124.657C295.01 124.456 291.002 123.956 286.062 122.584C293.406 127.185 300.246 128.605 304.728 132.969C304.719 133.329 304.696 133.695 304.655 134.068C304.219 138.041 304.376 140.383 303.62 146.879C303.466 148.204 303.216 149.688 302.795 151.483C301.8 155.717 300.07 164.044 299.14 166.124C302.121 167.653 309.803 170.39 318.956 169.03C323.136 168.409 326.482 167.02 328.835 165.78C328.11 163.586 327.649 161.146 327.382 158.712C324.015 158.697 319.118 158.167 314.031 155.591C311.195 154.155 309.776 153.437 308.931 151.851C307.308 148.807 309.279 145.973 310.416 136.117Z" fill="url(#paint50_linear)"/>
<path d="M314.854 109.151C315.278 105.885 317.862 103.793 318.426 103.345C320.787 101.47 321.268 101.281 322.079 101.127L323.186 100.96C323.186 100.96 323.246 100.961 323.307 100.965C323.955 101.004 325.899 101.761 326.252 102.01C327.381 102.802 326.55 108.417 323.128 115.399C322.994 115.991 322.859 116.582 322.725 117.173C325.707 117.697 326.445 118.234 326.469 118.663C326.52 119.593 323.255 120.779 320.228 120.856C316.434 120.953 312.404 119.322 312.482 118.105C312.513 117.612 313.229 117.004 315.984 116.408C316.415 115.803 316.845 115.198 317.276 114.593C316.885 114.12 314.542 111.556 314.854 109.151Z" fill="url(#paint51_linear)"/>
<path d="M322.079 98.8291C320.888 99.9905 320.597 102.01 320.949 103.466C321.159 104.336 321.431 104.428 321.393 104.998C321.284 106.598 318.364 107.296 318.527 108.102C318.643 108.678 320.162 108.467 320.424 109.191C320.711 109.983 319.042 110.665 318.325 112.658C318.213 112.969 317.535 114.854 318.406 115.964C319.219 116.999 321.037 116.754 323.088 116.488C325.35 116.194 326.972 115.527 327.447 115.319C328.944 114.662 330.553 113.957 331.887 112.335C332.203 111.951 334.061 109.622 333.905 106.368C333.7 102.093 330.122 98.4413 326.438 97.8613C325.841 97.7675 323.538 97.4049 322.079 98.8291Z" fill="url(#paint52_linear)"/>
<path d="M319.545 107.921C320.405 107.406 321.061 108.513 320.655 109.479C320.25 110.446 318.888 111.05 318.061 110.474C317.235 109.898 318.386 108.613 319.545 107.921Z" fill="url(#paint53_linear)"/>
<path d="M310.868 117.933L312.966 117.288C312.966 117.288 313.515 120.125 320.26 120.48C324.005 120.48 326.425 118.384 326.425 118.384L328.039 119.126C328.039 119.126 324.714 123.353 319.712 123.253C313.256 123.124 310.868 117.933 310.868 117.933Z" fill="url(#paint54_linear)"/>
<path opacity="0.82" d="M160.902 173.446L100.864 272.922H261.921L204.745 175.502L160.902 173.446Z" fill="url(#paint55_linear)"/>
<path d="M182.108 42.6154C181.953 42.6154 181.828 42.4906 181.828 42.3358V38.2089C181.828 38.0544 181.953 37.9293 182.108 37.9293C182.263 37.9293 182.388 38.0544 182.388 38.2089V42.3358C182.388 42.4906 182.263 42.6154 182.108 42.6154Z" fill="#6567D9"/>
<path d="M182.108 156.103C181.953 156.103 181.828 155.978 181.828 155.823V42.3359C181.828 42.1813 181.953 42.0563 182.108 42.0563C182.263 42.0563 182.388 42.1813 182.388 42.3359V155.823C182.388 155.978 182.263 156.103 182.108 156.103Z" fill="#6567D9"/>
<path d="M182.108 160.23C181.953 160.23 181.828 160.105 181.828 159.95V155.824C181.828 155.669 181.953 155.544 182.108 155.544C182.263 155.544 182.388 155.669 182.388 155.824V159.95C182.388 160.105 182.263 160.23 182.108 160.23Z" fill="#6567D9"/>
<path d="M182.108 18.8858C181.953 18.8858 181.828 18.7608 181.828 18.6062V14.4793C181.828 14.3248 181.953 14.1997 182.108 14.1997C182.263 14.1997 182.388 14.3248 182.388 14.4793V18.6062C182.388 18.7608 182.263 18.8858 182.108 18.8858Z" fill="#6567D9"/>
<path d="M182.108 26.7957C181.953 26.7957 181.828 26.6707 181.828 26.5161V18.6064C181.828 18.4518 181.953 18.3268 182.108 18.3268C182.263 18.3268 182.388 18.4518 182.388 18.6064V26.5161C182.388 26.6707 182.263 26.7957 182.108 26.7957Z" fill="#6567D9"/>
<path d="M182.108 30.9224C181.953 30.9224 181.828 30.7974 181.828 30.6428V26.5159C181.828 26.3614 181.953 26.2363 182.108 26.2363C182.263 26.2363 182.388 26.3614 182.388 26.5159V30.6428C182.388 30.7974 182.263 30.9224 182.108 30.9224Z" fill="#6567D9"/>
<path d="M182.108 8.11701C181.953 8.11701 181.828 7.99197 181.828 7.83742V1.06658C181.828 0.91203 181.953 0.786987 182.108 0.786987C182.263 0.786987 182.388 0.91203 182.388 1.06658V7.83742C182.388 7.99197 182.263 8.11701 182.108 8.11701Z" fill="#6567D9"/>
<path d="M206.064 178.017V170.712C206.064 165.032 201.412 160.384 195.725 160.384H168.49C162.804 160.384 158.151 165.032 158.151 170.712V178.017H206.064Z" fill="url(#paint56_linear)"/>
<path d="M182.142 182.508C195.391 182.508 206.132 180.384 206.132 177.765C206.132 175.145 195.391 173.022 182.142 173.022C168.892 173.022 158.151 175.145 158.151 177.765C158.151 180.384 168.892 182.508 182.142 182.508Z" fill="url(#paint57_linear)"/>
<path d="M182.142 171.614C171.985 171.614 163.123 170.174 161.069 168.19C161.003 168.127 161.002 168.021 161.066 167.955C161.129 167.889 161.236 167.887 161.301 167.951C163.298 169.881 172.063 171.281 182.142 171.281C191.509 171.281 199.903 170.05 202.555 168.288C202.632 168.236 202.735 168.257 202.786 168.334C202.837 168.41 202.817 168.514 202.74 168.565C199.995 170.389 191.718 171.614 182.142 171.614Z" fill="#726BDF"/>
<path d="M191.566 160.753C191.532 158.538 189.711 156.736 187.486 156.736H176.73C174.484 156.736 172.647 158.572 172.647 160.815H172.652C172.651 160.821 172.647 160.828 172.647 160.834C172.647 161.868 176.886 162.706 182.117 162.706C187.347 162.706 191.587 161.868 191.587 160.834C191.587 160.807 191.572 160.78 191.566 160.753Z" fill="url(#paint58_linear)"/>
<path opacity="0.3" d="M397.667 295.987C400.739 300.568 416.703 295.903 427.036 290.885C443.726 282.781 443.087 275.04 457.044 268.245C477.227 258.419 497.061 265.598 497.906 261.389C498.462 258.621 490.289 253.514 481.625 251.823C471.56 249.858 466.714 253.653 443.317 260.91C424.422 266.771 422.518 265.867 416.093 270.078C404.266 277.83 394.62 291.444 397.667 295.987Z" fill="#6165D7"/>
<path d="M492.798 235.879C493.332 235.195 494.53 234.941 495.392 235.201C497.082 235.712 497.068 238.993 497.467 242.496C497.92 246.471 498.571 250.688 496.789 250.667C495.996 250.657 494.561 248.243 494.275 246.003C493.916 243.193 492.938 240.841 492.938 240.841C492.805 240.322 492.642 239.564 492.557 238.636C492.428 237.241 492.354 236.448 492.798 235.879Z" fill="#26264F"/>
<path d="M494.973 238.729C494.973 240.446 492.076 241.14 490.324 241.14C488.572 241.14 488.628 240.446 488.628 238.729C488.628 237.012 488.692 235.759 490.444 235.759C492.196 235.759 494.973 237.012 494.973 238.729Z" fill="url(#paint59_linear)"/>
<path d="M418.616 268.807C417.665 272.572 416.713 276.338 415.762 280.104C415.983 280.482 416.53 281.284 417.468 281.456C418.518 281.649 419.432 280.937 419.773 280.64C420.514 275.307 421.812 271.936 423.084 269.722C423.977 268.167 424.854 267.19 424.786 266.635C424.664 265.63 421.582 267.132 418.616 268.807Z" fill="url(#paint60_linear)"/>
<path d="M411.789 200.485L410.045 200.744C410.045 200.744 406.945 200.615 405.137 200.937C403.328 201.26 402.295 202.163 402.295 204.034C402.295 205.905 404.58 206.135 406.557 206.356C407.76 206.491 409.4 205.477 410.649 204.541C411.528 203.883 413.773 203.293 413.773 203.293L411.789 200.485Z" fill="url(#paint61_linear)"/>
<path d="M423.953 137.739C421.751 139.205 421.348 143.414 421.932 145.958C422.361 147.822 423.15 149.729 423.922 151.019C424.361 152.14 424.741 153.191 425.047 154.133C425.271 154.824 425.427 155.372 425.571 155.965C425.837 157.065 426.023 158.19 426.124 159.308C426.131 159.382 426.192 159.437 426.265 159.437C426.27 159.437 426.274 159.437 426.278 159.437C426.357 159.43 426.415 159.361 426.407 159.282C426.306 158.15 426.117 157.012 425.848 155.898C425.703 155.297 425.544 154.743 425.318 154.045C425.157 153.549 424.974 153.02 424.775 152.47C425.532 153.819 426.238 155.366 426.637 157.666C427.847 164.647 434.561 166.687 438.505 165.183C441.996 163.851 444.527 160.39 444.987 157.046C446.426 146.574 428.792 134.517 423.953 137.739Z" fill="url(#paint62_linear)"/>
<path d="M437.787 197.779C432.649 206.708 429.325 219.986 425.02 235.021C421.153 248.525 417.791 260.616 416.093 270.079C416.925 270.764 417.912 271.457 419.067 272.081C423.486 274.47 427.865 274.5 430.31 274.3C430.461 271.826 430.786 268.159 431.577 263.776C432.695 257.579 434.685 246.075 439.434 235.652C442.728 228.421 444.375 224.806 447.157 222.335C448.868 220.816 452.833 217.601 453.515 212.705C453.546 212.484 453.553 212.283 453.553 212.087C453.531 205.235 440.804 199.141 437.787 197.779Z" fill="url(#paint63_linear)"/>
<path d="M437.787 197.779C434.979 202.658 432.714 208.842 430.534 215.896C435.671 218.647 440.057 223.251 438.05 228.864C436.135 234.603 428.952 236.995 427.515 243.691C426.079 250.866 429.431 257.084 427.994 264.259C427.285 267.62 427.037 270.982 426.906 274.319C428.24 274.415 429.407 274.373 430.31 274.3C430.46 271.826 430.786 268.159 431.577 263.776C432.695 257.579 434.685 246.075 439.433 235.652C442.727 228.421 444.374 224.806 447.157 222.336C448.868 220.816 452.832 217.601 453.514 212.705C453.545 212.484 453.553 212.283 453.552 212.087C453.531 205.235 440.804 199.141 437.787 197.779Z" fill="url(#paint64_linear)"/>
<path d="M442.585 210.396C442.549 210.503 442.43 210.767 442.415 211.141C442.316 213.681 447.015 217.007 457.229 233.282C459.033 236.156 462.109 241.187 467.092 242.68C467.66 242.85 468.197 242.957 468.693 243.021C470.186 243.214 471.323 243.026 471.552 242.994C472.788 242.82 477.578 243 491.22 244.213C491.329 243.971 493.657 238.566 490.677 234.827C489.849 233.788 488.833 233.155 487.959 232.766C484.759 232.285 482.073 232.038 480.044 231.901C477.585 231.736 476.024 231.73 474.309 231.883C473.121 231.989 472.137 232.146 471.446 232.274C466.569 218.224 468.959 206.022 463.096 205.762C461.925 205.71 443.785 206.856 442.585 210.396Z" fill="url(#paint65_linear)"/>
<path d="M426.796 172.662C423.819 173.693 428.298 184.325 422.192 192.476C419.108 196.594 414.465 198.554 410.41 199.56C411.233 202.2 411.094 202.209 411.917 204.85C414.043 204.938 421.978 205.012 428.689 199.253C430.4 197.785 435.698 193.24 436.042 186.172C436.481 177.17 429.603 171.689 426.796 172.662Z" fill="url(#paint66_linear)"/>
<path d="M430.463 162.249C428.967 164.029 428.344 165.669 427.554 167.806C426.302 171.194 425.587 173.128 425.68 175.527C425.859 180.141 428.907 183.492 430.365 184.887C433.552 195.108 434.289 197.499 434.291 197.531C434.291 197.531 434.295 197.594 434.295 197.594C434.194 198.764 433.962 200.619 433.356 202.814C431.774 208.541 429.568 209.613 430.131 211.677C431.118 215.297 439.205 216.777 445.357 216.123C448.617 215.776 448.917 215.087 451.681 214.602C463.294 212.565 468.642 222.86 476.238 220.217C481.636 218.339 481.714 212.091 488.731 210.858C491.181 210.428 493.889 210.697 494.118 209.766C494.342 208.859 492.061 207.406 490.136 206.647C485.984 205.008 482.15 206.067 480.454 206.335C472.857 207.533 465.123 199.642 460.482 194.907C447.362 181.52 447.728 162.89 447.884 159.011C446.843 158.454 443.042 156.585 434.681 158.833C433.99 159.197 432.153 160.237 430.463 162.249Z" fill="url(#paint67_linear)"/>
<path opacity="0.24" d="M494.118 209.767C494.342 208.859 492.06 207.406 490.136 206.647C485.984 205.009 482.15 206.067 480.454 206.335C472.857 207.533 465.123 199.642 460.482 194.907C453.893 188.184 450.706 180.14 449.185 173.304C448.151 180.923 445.411 188.645 448.584 195.382C450.979 201.6 460.077 201.121 463.429 208.296C464.865 211.166 468.696 210.688 472.048 211.166C474.442 211.166 475.4 214.993 478.752 214.514C480.188 214.036 481.146 211.644 482.104 211.644C483.321 211.644 484.634 211.661 485.986 211.73C486.771 211.347 487.671 211.045 488.73 210.859C491.181 210.428 493.889 210.697 494.118 209.767Z" fill="#F8944E"/>
<path d="M454.609 210.934C453.73 211.634 451.746 213.024 449.339 213.06C448.948 213.066 448.239 213.07 447.362 212.772C446.081 212.337 445.22 211.519 444.771 211.022C448.168 209.339 450.432 208.63 450.432 208.63L452.267 208.143L454.609 210.934Z" fill="url(#paint68_linear)"/>
<path d="M482.137 196.322L438.487 213.878C437.351 214.335 436.061 213.786 435.603 212.651L425.727 187.878C425.27 186.743 425.82 185.454 426.955 184.997L470.605 167.442C471.741 166.985 473.032 167.534 473.489 168.668L483.365 193.442C483.822 194.576 483.272 195.866 482.137 196.322Z" fill="#6165D7"/>
<path d="M482.955 196.58L439.305 214.136C438.169 214.593 436.878 214.044 436.421 212.91L426.545 188.136C426.088 187.002 426.637 185.712 427.773 185.256L471.423 167.7C472.558 167.243 473.849 167.792 474.307 168.926L484.183 193.7C484.64 194.834 484.09 196.124 482.955 196.58Z" fill="url(#paint69_linear)"/>
<path d="M445.617 190.787C447.985 190.829 450.129 192.807 450.405 195.197C450.483 195.867 450.4 196.498 450.196 197.062L455.463 199.495C455.914 198.218 456.085 196.789 455.911 195.276C455.281 189.818 450.389 185.281 444.968 185.164C444.954 185.163 444.94 185.164 444.926 185.164L445.575 190.789C445.589 190.789 445.603 190.787 445.617 190.787Z" fill="white"/>
<path d="M450.196 197.063C449.673 198.508 448.323 199.5 446.621 199.481C444.247 199.454 442.084 197.476 441.806 195.072C441.53 192.682 443.221 190.77 445.575 190.789L444.925 185.164C439.483 185.069 435.549 189.468 436.188 194.99C436.829 200.525 441.817 205.061 447.27 205.101C451.185 205.13 454.286 202.831 455.463 199.495L450.196 197.063Z" fill="url(#paint70_linear)"/>
<path d="M476.834 182.634L458.63 190.079C458.543 190.115 458.445 190.073 458.41 189.985L457.708 188.252C457.673 188.165 457.714 188.066 457.801 188.031L476.016 180.613C476.1 180.578 476.196 180.62 476.231 180.706L476.922 182.416C476.957 182.502 476.917 182.6 476.834 182.634Z" fill="#4C53A5"/>
<path d="M475.298 178.953L457.094 186.398C457.008 186.434 456.909 186.392 456.874 186.304L456.173 184.572C456.138 184.484 456.179 184.385 456.265 184.35L474.481 176.932C474.565 176.897 474.661 176.939 474.696 177.025L475.387 178.735C475.422 178.821 475.382 178.919 475.298 178.953Z" fill="#4C53A5"/>
<path d="M479.828 190.226L461.624 197.672C461.538 197.707 461.439 197.665 461.404 197.578L460.703 195.845C460.667 195.757 460.709 195.658 460.795 195.623L479.011 188.205C479.094 188.171 479.191 188.213 479.225 188.299L479.916 190.008C479.952 190.094 479.912 190.192 479.828 190.226Z" fill="#4C53A5"/>
<path d="M478.292 186.545L460.088 193.99C460.002 194.026 459.904 193.984 459.868 193.896L459.167 192.164C459.132 192.077 459.173 191.977 459.259 191.942L477.475 184.524C477.559 184.489 477.655 184.531 477.69 184.617L478.381 186.327C478.416 186.413 478.376 186.511 478.292 186.545Z" fill="#4C53A5"/>
<path d="M442.6 162.999C447.047 158.686 460.886 163.577 466.098 174.864C470.582 184.574 471.894 192.021 467.357 201.568C463.834 208.982 457.752 212.046 455.635 212.985C455.273 212.351 453.941 211.235 452.189 208.586C456.602 206.933 460.756 198.972 461.223 194.08C461.844 187.58 458.404 181.334 455.195 179.038C452.197 176.892 443.072 179.345 440.205 177.325C436.399 174.644 439.18 166.314 442.6 162.999Z" fill="url(#paint71_linear)"/>
<path d="M435.078 145.377C434.306 149.031 433.991 153.437 436.45 155.711C438.615 157.714 441.72 156.944 441.94 157.992C442.374 160.063 430.6 164.693 429.715 163.221C429.279 162.495 432.973 160.827 432.899 158.168C432.869 157.062 432.367 156.294 429.512 152.364L428.558 152.698L435.078 145.377Z" fill="url(#paint72_linear)"/>
<path d="M472.514 149.232C470.642 143.532 464.876 140.645 463.786 140.152C457.011 137.089 454.386 141.224 446.394 138.342C446.046 138.216 445.717 138.087 445.4 137.955C448.48 138.91 450.269 138.948 451.772 138.976C451.939 138.98 452.102 138.983 452.263 138.987C452.312 138.988 452.361 138.989 452.412 138.989C453.291 138.989 454.472 138.796 455.616 138.609C456.37 138.486 457.081 138.369 457.625 138.324C459.244 138.19 460.125 138.383 460.978 138.571C461.138 138.606 461.296 138.641 461.457 138.673C461.52 138.687 461.582 138.645 461.595 138.582C461.608 138.519 461.567 138.457 461.504 138.444C461.343 138.412 461.187 138.378 461.029 138.343C460.159 138.151 459.258 137.953 457.606 138.091C457.053 138.137 456.337 138.254 455.579 138.378C454.435 138.565 453.139 138.774 452.27 138.754C452.108 138.749 451.944 138.746 451.776 138.743C449.987 138.709 447.79 138.663 443.443 137.034C442.915 136.758 442.415 136.479 441.923 136.201C442.09 136.266 442.257 136.33 442.421 136.394C443.697 136.891 445.017 137.406 446.33 137.617C446.818 137.696 447.318 137.735 447.821 137.735C447.953 137.735 448.085 137.732 448.217 137.727C448.295 137.724 448.357 137.657 448.354 137.579C448.35 137.5 448.287 137.434 448.205 137.442C447.587 137.468 446.972 137.432 446.375 137.336C445.092 137.129 443.787 136.62 442.525 136.128C442.026 135.934 441.51 135.733 441.013 135.558C440.8 135.483 440.593 135.413 440.385 135.348C438.689 134.445 436.801 133.632 433.854 133.13C431.202 132.678 426.269 132.746 425.014 134.109C423.629 135.612 429.602 137.202 431.738 147.318C432.283 149.895 433.687 156.096 439.433 161.218C440.76 162.402 451.611 171.806 462.39 167.263C469.562 164.239 474.699 155.885 472.514 149.232Z" fill="url(#paint73_linear)"/>
<g opacity="0.2">
<path opacity="0.2" d="M472.514 149.232C470.642 143.532 464.876 140.645 463.786 140.152C463.058 139.823 462.381 139.581 461.737 139.401C462.48 139.958 463.167 140.629 463.745 141.444C464.289 142.212 465.611 144.076 465.306 146.28C465.023 148.33 463.579 148.882 462.183 151.116C459.841 154.863 461.522 157.118 459.997 159.227C457.304 162.95 448.041 161.483 442.194 158.915C438.42 157.258 435.502 154.889 433.277 152.48C434.386 155.187 436.236 158.369 439.432 161.218C440.76 162.401 451.61 171.806 462.389 167.263C469.562 164.239 474.699 155.885 472.514 149.232Z" fill="url(#paint74_linear)"/>
</g>
<path d="M433.474 149.234C433.474 149.234 433.678 153.541 429.474 154.183C424.294 154.974 421.7 141.396 422.845 140.429C424.173 139.308 425.78 141.337 429.068 140.062C430.452 139.525 431.419 137.503 432.438 139.379C433.598 141.514 433.49 145.611 433.49 145.611C433.49 145.611 434.572 144.415 434.941 145.608C435.424 147.169 434.372 148.344 433.474 149.234Z" fill="url(#paint75_linear)"/>
<path d="M423.08 135.597C421.682 137.515 421.255 140.9 422.637 142.366C424.622 144.472 429.104 141.307 431.51 143.887C432.565 145.018 432.773 146.773 433.219 146.679C433.588 146.6 433.63 145.357 433.698 144.328C434.071 138.661 435.35 137.842 434.7 136.331C433.379 133.26 425.949 131.658 423.08 135.597Z" fill="url(#paint76_linear)"/>
<path d="M409.558 276.695C409.927 276.182 412.347 276.442 413.569 277.113C415.619 278.239 416.815 280.246 417.34 280.521C418.537 281.149 419.671 280.612 419.773 280.64C419.773 280.64 420.572 282.255 419.135 283.033C417.699 283.81 407.284 279.864 409.558 276.695Z" fill="#26264F"/>
<defs>
<linearGradient id="paint0_linear" x1="432.395" y1="12.2955" x2="420.113" y2="182.269" gradientUnits="userSpaceOnUse">
<stop stop-color="#AA80F9"/>
<stop offset="0.9964" stop-color="#6165D7"/>
</linearGradient>
<linearGradient id="paint1_linear" x1="433.086" y1="181.815" x2="469.318" y2="194.008" gradientUnits="userSpaceOnUse">
<stop stop-color="#AB316D"/>
<stop offset="1" stop-color="#792D3D"/>
</linearGradient>
<linearGradient id="paint2_linear" x1="429.4" y1="165.486" x2="457.836" y2="165.486" gradientUnits="userSpaceOnUse">
<stop stop-color="#FFC444"/>
<stop offset="0.9964" stop-color="#F36F56"/>
</linearGradient>
<linearGradient id="paint3_linear" x1="420.34" y1="107.455" x2="489.582" y2="107.455" gradientUnits="userSpaceOnUse">
<stop offset="0.0036" stop-color="#E38DDD"/>
<stop offset="1" stop-color="#9571F6"/>
</linearGradient>
<linearGradient id="paint4_linear" x1="237.871" y1="83.7443" x2="268.513" y2="83.7443" gradientUnits="userSpaceOnUse">
<stop stop-color="#FF9085"/>
<stop offset="1" stop-color="#FB6FBB"/>
</linearGradient>
<linearGradient id="paint5_linear" x1="339.766" y1="85.1052" x2="400.753" y2="85.1052" gradientUnits="userSpaceOnUse">
<stop stop-color="#FF9085"/>
<stop offset="1" stop-color="#FB6FBB"/>
</linearGradient>
<linearGradient id="paint6_linear" x1="128.919" y1="190.828" x2="154.827" y2="190.828" gradientUnits="userSpaceOnUse">
<stop stop-color="#FF9085"/>
<stop offset="1" stop-color="#FB6FBB"/>
</linearGradient>
<linearGradient id="paint7_linear" x1="126.28" y1="113.226" x2="140.816" y2="113.226" gradientUnits="userSpaceOnUse">
<stop stop-color="#FF9085"/>
<stop offset="1" stop-color="#FB6FBB"/>
</linearGradient>
<linearGradient id="paint8_linear" x1="163.99" y1="79.4085" x2="198.463" y2="110.02" gradientUnits="userSpaceOnUse">
<stop stop-color="#FF9085"/>
<stop offset="1" stop-color="#FB6FBB"/>
</linearGradient>
<linearGradient id="paint9_linear" x1="171.982" y1="71.0449" x2="206.135" y2="101.373" gradientUnits="userSpaceOnUse">
<stop stop-color="#FF9085"/>
<stop offset="1" stop-color="#FB6FBB"/>
</linearGradient>
<linearGradient id="paint10_linear" x1="177.155" y1="65.7847" x2="211.081" y2="95.9106" gradientUnits="userSpaceOnUse">
<stop stop-color="#FF9085"/>
<stop offset="1" stop-color="#FB6FBB"/>
</linearGradient>
<linearGradient id="paint11_linear" x1="237.478" y1="154.806" x2="310.163" y2="154.806" gradientUnits="userSpaceOnUse">
<stop stop-color="#FF9085"/>
<stop offset="1" stop-color="#FB6FBB"/>
</linearGradient>
<linearGradient id="paint12_linear" x1="117.777" y1="94.4554" x2="66.8775" y2="239.28" gradientUnits="userSpaceOnUse">
<stop stop-color="#AA80F9"/>
<stop offset="0.9964" stop-color="#6165D7"/>
</linearGradient>
<linearGradient id="paint13_linear" x1="112.649" y1="211.597" x2="214.6" y2="429.631" gradientUnits="userSpaceOnUse">
<stop stop-color="#FF9085"/>
<stop offset="1" stop-color="#FB6FBB"/>
</linearGradient>
<linearGradient id="paint14_linear" x1="124.374" y1="206.114" x2="226.325" y2="424.148" gradientUnits="userSpaceOnUse">
<stop stop-color="#FF9085"/>
<stop offset="1" stop-color="#FB6FBB"/>
</linearGradient>
<linearGradient id="paint15_linear" x1="112.649" y1="211.597" x2="214.6" y2="429.632" gradientUnits="userSpaceOnUse">
<stop stop-color="#FF9085"/>
<stop offset="1" stop-color="#FB6FBB"/>
</linearGradient>
<linearGradient id="paint16_linear" x1="240.866" y1="306.724" x2="254.779" y2="290.727" gradientUnits="userSpaceOnUse">
<stop stop-color="#40447E"/>
<stop offset="0.9964" stop-color="#3C3B6B"/>
</linearGradient>
<linearGradient id="paint17_linear" x1="203.801" y1="255.135" x2="356.131" y2="448.126" gradientUnits="userSpaceOnUse">
<stop stop-color="#FFC444"/>
<stop offset="0.9964" stop-color="#F36F56"/>
</linearGradient>
<linearGradient id="paint18_linear" x1="143.472" y1="263.62" x2="251.526" y2="312.854" gradientUnits="userSpaceOnUse">
<stop stop-color="#311944"/>
<stop offset="1" stop-color="#6B3976"/>
</linearGradient>
<linearGradient id="paint19_linear" x1="105.355" y1="290.926" x2="199.194" y2="267.454" gradientUnits="userSpaceOnUse">
<stop stop-color="#311944"/>
<stop offset="1" stop-color="#893976"/>
</linearGradient>
<linearGradient id="paint20_linear" x1="184.495" y1="303.037" x2="156.563" y2="246.701" gradientUnits="userSpaceOnUse">
<stop stop-color="#AA80F9"/>
<stop offset="0.9964" stop-color="#6165D7"/>
</linearGradient>
<linearGradient id="paint21_linear" x1="144.503" y1="278.637" x2="131.67" y2="238.73" gradientUnits="userSpaceOnUse">
<stop stop-color="#AA80F9"/>
<stop offset="0.9964" stop-color="#6165D7"/>
</linearGradient>
<linearGradient id="paint22_linear" x1="144.503" y1="278.637" x2="131.67" y2="238.73" gradientUnits="userSpaceOnUse">
<stop stop-color="#AA80F9"/>
<stop offset="0.9964" stop-color="#6165D7"/>
</linearGradient>
<linearGradient id="paint23_linear" x1="140.75" y1="265.706" x2="189.764" y2="249.423" gradientUnits="userSpaceOnUse">
<stop stop-color="#FFC444"/>
<stop offset="0.9964" stop-color="#F36F56"/>
</linearGradient>
<linearGradient id="paint24_linear" x1="135.173" y1="284.366" x2="121.671" y2="242.377" gradientUnits="userSpaceOnUse">
<stop offset="0.2828" stop-color="#AA80F9"/>
<stop offset="0.9964" stop-color="#6165D7"/>
</linearGradient>
<linearGradient id="paint25_linear" x1="129.015" y1="235.822" x2="128.397" y2="209.624" gradientUnits="userSpaceOnUse">
<stop stop-color="#FFC444"/>
<stop offset="0.9964" stop-color="#F36F56"/>
</linearGradient>
<linearGradient id="paint26_linear" x1="123.012" y1="227.26" x2="131.136" y2="198.753" gradientUnits="userSpaceOnUse">
<stop stop-color="#311944"/>
<stop offset="1" stop-color="#6B3976"/>
</linearGradient>
<linearGradient id="paint27_linear" x1="128.832" y1="210.269" x2="131.285" y2="260.621" gradientUnits="userSpaceOnUse">
<stop stop-color="#FFC444"/>
<stop offset="0.9964" stop-color="#F36F56"/>
</linearGradient>
<linearGradient id="paint28_linear" x1="119.309" y1="226.853" x2="129.73" y2="198.974" gradientUnits="userSpaceOnUse">
<stop stop-color="#311944"/>
<stop offset="1" stop-color="#6B3976"/>
</linearGradient>
<linearGradient id="paint29_linear" x1="120.471" y1="226.485" x2="128.539" y2="198.178" gradientUnits="userSpaceOnUse">
<stop stop-color="#311944"/>
<stop offset="1" stop-color="#6B3976"/>
</linearGradient>
<linearGradient id="paint30_linear" x1="155.665" y1="261.338" x2="189.726" y2="259.251" gradientUnits="userSpaceOnUse">
<stop stop-color="#40447E"/>
<stop offset="0.9964" stop-color="#3C3B6B"/>
</linearGradient>
<linearGradient id="paint31_linear" x1="209.171" y1="271.309" x2="224.867" y2="264.919" gradientUnits="userSpaceOnUse">
<stop stop-color="#40447E"/>
<stop offset="0.9964" stop-color="#3C3B6B"/>
</linearGradient>
<linearGradient id="paint32_linear" x1="205.931" y1="263.553" x2="386.974" y2="429.968" gradientUnits="userSpaceOnUse">
<stop stop-color="#FFC444"/>
<stop offset="0.9964" stop-color="#F36F56"/>
</linearGradient>
<linearGradient id="paint33_linear" x1="135.961" y1="279.957" x2="213.534" y2="267.557" gradientUnits="userSpaceOnUse">
<stop stop-color="#311944"/>
<stop offset="1" stop-color="#6B3976"/>
</linearGradient>
<linearGradient id="paint34_linear" x1="106.89" y1="297.062" x2="200.73" y2="273.59" gradientUnits="userSpaceOnUse">
<stop stop-color="#311944"/>
<stop offset="1" stop-color="#893976"/>
</linearGradient>
<linearGradient id="paint35_linear" x1="139.994" y1="282.633" x2="196.666" y2="266.827" gradientUnits="userSpaceOnUse">
<stop stop-color="#311944"/>
<stop offset="1" stop-color="#6B3976"/>
</linearGradient>
<linearGradient id="paint36_linear" x1="84.6852" y1="262.146" x2="-18.2189" y2="84.0086" gradientUnits="userSpaceOnUse">
<stop stop-color="#FFC444"/>
<stop offset="0.9964" stop-color="#F36F56"/>
</linearGradient>
<linearGradient id="paint37_linear" x1="26.2099" y1="228.015" x2="83.4164" y2="322.297" gradientUnits="userSpaceOnUse">
<stop offset="0.0036" stop-color="#E38DDD"/>
<stop offset="1" stop-color="#9571F6"/>
</linearGradient>
<linearGradient id="paint38_linear" x1="233.106" y1="100.83" x2="363.61" y2="100.83" gradientUnits="userSpaceOnUse">
<stop stop-color="#E3E7EF"/>
<stop offset="1" stop-color="#FAFBFD"/>
</linearGradient>
<linearGradient id="paint39_linear" x1="279.385" y1="89.2657" x2="308.821" y2="96.8449" gradientUnits="userSpaceOnUse">
<stop stop-color="#FF9085"/>
<stop offset="1" stop-color="#FB6FBB"/>
</linearGradient>
<linearGradient id="paint40_linear" x1="266.405" y1="95.3473" x2="260.76" y2="101.452" gradientUnits="userSpaceOnUse">
<stop stop-color="#FFC444"/>
<stop offset="0.9964" stop-color="#F36F56"/>
</linearGradient>
<linearGradient id="paint41_linear" x1="353.966" y1="106.998" x2="345.457" y2="116.203" gradientUnits="userSpaceOnUse">
<stop stop-color="#FFC444"/>
<stop offset="0.9964" stop-color="#F36F56"/>
</linearGradient>
<linearGradient id="paint42_linear" x1="319.877" y1="85.7053" x2="356.72" y2="144.331" gradientUnits="userSpaceOnUse">
<stop stop-color="#FF9085"/>
<stop offset="1" stop-color="#FB6FBB"/>
</linearGradient>
<linearGradient id="paint43_linear" x1="334.043" y1="236.797" x2="334.043" y2="227.444" gradientUnits="userSpaceOnUse">
<stop stop-color="#FFC444"/>
<stop offset="0.9964" stop-color="#F36F56"/>
</linearGradient>
<linearGradient id="paint44_linear" x1="305.505" y1="239.462" x2="305.505" y2="228.191" gradientUnits="userSpaceOnUse">
<stop stop-color="#FFC444"/>
<stop offset="0.9964" stop-color="#F36F56"/>
</linearGradient>
<linearGradient id="paint45_linear" x1="281.148" y1="105.72" x2="346.497" y2="158.055" gradientUnits="userSpaceOnUse">
<stop stop-color="#FF9085"/>
<stop offset="1" stop-color="#FB6FBB"/>
</linearGradient>
<linearGradient id="paint46_linear" x1="299.192" y1="195.187" x2="336.109" y2="195.187" gradientUnits="userSpaceOnUse">
<stop stop-color="#311944"/>
<stop offset="1" stop-color="#893976"/>
</linearGradient>
<linearGradient id="paint47_linear" x1="298.018" y1="167.698" x2="324.571" y2="212.346" gradientUnits="userSpaceOnUse">
<stop stop-color="#311944"/>
<stop offset="1" stop-color="#893976"/>
</linearGradient>
<linearGradient id="paint48_linear" x1="308.489" y1="161.471" x2="335.042" y2="206.119" gradientUnits="userSpaceOnUse">
<stop stop-color="#311944"/>
<stop offset="1" stop-color="#893976"/>
</linearGradient>
<linearGradient id="paint49_linear" x1="287.444" y1="97.9784" x2="331.121" y2="167.477" gradientUnits="userSpaceOnUse">
<stop stop-color="#FF9085"/>
<stop offset="1" stop-color="#FB6FBB"/>
</linearGradient>
<linearGradient id="paint50_linear" x1="270.243" y1="93.7792" x2="320.908" y2="174.397" gradientUnits="userSpaceOnUse">
<stop stop-color="#FF9085"/>
<stop offset="1" stop-color="#FB6FBB"/>
</linearGradient>
<linearGradient id="paint51_linear" x1="324.735" y1="106.767" x2="314.116" y2="123.964" gradientUnits="userSpaceOnUse">
<stop stop-color="#FFC444"/>
<stop offset="0.9964" stop-color="#F36F56"/>
</linearGradient>
<linearGradient id="paint52_linear" x1="317.968" y1="107.235" x2="333.914" y2="107.235" gradientUnits="userSpaceOnUse">
<stop stop-color="#311944"/>
<stop offset="1" stop-color="#6B3976"/>
</linearGradient>
<linearGradient id="paint53_linear" x1="320.924" y1="104.44" x2="314.866" y2="123.032" gradientUnits="userSpaceOnUse">
<stop stop-color="#FFC444"/>
<stop offset="0.9964" stop-color="#F36F56"/>
</linearGradient>
<linearGradient id="paint54_linear" x1="313.572" y1="109.225" x2="322.736" y2="123.807" gradientUnits="userSpaceOnUse">
<stop offset="0.0036" stop-color="#E38DDD"/>
<stop offset="1" stop-color="#9571F6"/>
</linearGradient>
<linearGradient id="paint55_linear" x1="181.392" y1="173.446" x2="181.392" y2="272.922" gradientUnits="userSpaceOnUse">
<stop stop-color="white"/>
<stop offset="0.864583" stop-color="white" stop-opacity="0"/>
</linearGradient>
<linearGradient id="paint56_linear" x1="162.414" y1="155.53" x2="197.099" y2="184.526" gradientUnits="userSpaceOnUse">
<stop offset="0.0036" stop-color="#E38DDD"/>
<stop offset="1" stop-color="#9571F6"/>
</linearGradient>
<linearGradient id="paint57_linear" x1="159.567" y1="158.935" x2="194.252" y2="187.931" gradientUnits="userSpaceOnUse">
<stop offset="0.0036" stop-color="#E38DDD"/>
<stop offset="1" stop-color="#9571F6"/>
</linearGradient>
<linearGradient id="paint58_linear" x1="172.647" y1="159.721" x2="191.587" y2="159.721" gradientUnits="userSpaceOnUse">
<stop stop-color="#AA80F9"/>
<stop offset="0.9964" stop-color="#6165D7"/>
</linearGradient>
<linearGradient id="paint59_linear" x1="488.628" y1="238.45" x2="494.973" y2="238.45" gradientUnits="userSpaceOnUse">
<stop stop-color="#FFC444"/>
<stop offset="0.9964" stop-color="#F36F56"/>
</linearGradient>
<linearGradient id="paint60_linear" x1="416.894" y1="282.692" x2="422.986" y2="263.795" gradientUnits="userSpaceOnUse">
<stop stop-color="#FFC444"/>
<stop offset="0.9964" stop-color="#F36F56"/>
</linearGradient>
<linearGradient id="paint61_linear" x1="402.295" y1="203.427" x2="421.437" y2="203.427" gradientUnits="userSpaceOnUse">
<stop stop-color="#FFC444"/>
<stop offset="0.9964" stop-color="#F36F56"/>
</linearGradient>
<linearGradient id="paint62_linear" x1="421.691" y1="151.429" x2="445.07" y2="151.429" gradientUnits="userSpaceOnUse">
<stop stop-color="#6E1F3F"/>
<stop offset="1" stop-color="#792D3D"/>
</linearGradient>
<linearGradient id="paint63_linear" x1="416.093" y1="236.077" x2="453.552" y2="236.077" gradientUnits="userSpaceOnUse">
<stop stop-color="#311944"/>
<stop offset="1" stop-color="#893976"/>
</linearGradient>
<linearGradient id="paint64_linear" x1="434.552" y1="220.721" x2="463.412" y2="333.453" gradientUnits="userSpaceOnUse">
<stop stop-color="#311944"/>
<stop offset="1" stop-color="#893976"/>
</linearGradient>
<linearGradient id="paint65_linear" x1="444.318" y1="228.506" x2="490.458" y2="223.389" gradientUnits="userSpaceOnUse">
<stop stop-color="#311944"/>
<stop offset="1" stop-color="#893976"/>
</linearGradient>
<linearGradient id="paint66_linear" x1="410.649" y1="184.608" x2="428.197" y2="192.235" gradientUnits="userSpaceOnUse">
<stop stop-color="#FFC444"/>
<stop offset="0.9964" stop-color="#F36F56"/>
</linearGradient>
<linearGradient id="paint67_linear" x1="437.973" y1="185.236" x2="510.757" y2="231.408" gradientUnits="userSpaceOnUse">
<stop stop-color="#FFC444"/>
<stop offset="0.9964" stop-color="#F36F56"/>
</linearGradient>
<linearGradient id="paint68_linear" x1="448.641" y1="209.722" x2="454.016" y2="215.876" gradientUnits="userSpaceOnUse">
<stop stop-color="#FFC444"/>
<stop offset="0.9964" stop-color="#F36F56"/>
</linearGradient>
<linearGradient id="paint69_linear" x1="426.384" y1="190.918" x2="484.344" y2="190.918" gradientUnits="userSpaceOnUse">
<stop stop-color="#AA80F9"/>
<stop offset="0.9964" stop-color="#6165D7"/>
</linearGradient>
<linearGradient id="paint70_linear" x1="436.12" y1="195.132" x2="455.463" y2="195.132" gradientUnits="userSpaceOnUse">
<stop stop-color="#FF9085"/>
<stop offset="1" stop-color="#FB6FBB"/>
</linearGradient>
<linearGradient id="paint71_linear" x1="445.571" y1="175.749" x2="470.914" y2="204.765" gradientUnits="userSpaceOnUse">
<stop stop-color="#FFC444"/>
<stop offset="0.9964" stop-color="#F36F56"/>
</linearGradient>
<linearGradient id="paint72_linear" x1="438.003" y1="168.447" x2="430.034" y2="139.724" gradientUnits="userSpaceOnUse">
<stop stop-color="#FFC444"/>
<stop offset="0.9964" stop-color="#F36F56"/>
</linearGradient>
<linearGradient id="paint73_linear" x1="424.323" y1="135.262" x2="469.932" y2="161.403" gradientUnits="userSpaceOnUse">
<stop stop-color="#AB316D"/>
<stop offset="1" stop-color="#792D3D"/>
</linearGradient>
<linearGradient id="paint74_linear" x1="420.945" y1="133.501" x2="469.233" y2="164.444" gradientUnits="userSpaceOnUse">
<stop stop-color="#AB316D"/>
<stop offset="1" stop-color="#792D3D"/>
</linearGradient>
<linearGradient id="paint75_linear" x1="428.403" y1="141.718" x2="435.777" y2="188.864" gradientUnits="userSpaceOnUse">
<stop stop-color="#FFC444"/>
<stop offset="0.9964" stop-color="#F36F56"/>
</linearGradient>
<linearGradient id="paint76_linear" x1="420.444" y1="134.282" x2="468.733" y2="165.226" gradientUnits="userSpaceOnUse">
<stop stop-color="#AB316D"/>
<stop offset="1" stop-color="#792D3D"/>
</linearGradient>
</defs>
</svg>
