<?xml version="1.0" encoding="utf-8"?>
<!-- Generator: Adobe Illustrator 25.1.0, SVG Export Plug-In . SVG Version: 6.00 Build 0)  -->
<svg version="1.1" id="Calque_1" xmlns="http://www.w3.org/2000/svg" xmlns:xlink="http://www.w3.org/1999/xlink" x="0px" y="0px"
	 viewBox="0 0 300 300" style="enable-background:new 0 0 300 300;" xml:space="preserve">
<style type="text/css">
	.st0{fill:#F0F0F0;}
	.st1{fill:#996CD2;}
	.st2{fill:#4E4055;}
	.st3{fill:none;stroke:#00FF0A;stroke-width:2;stroke-linecap:round;stroke-linejoin:round;}
</style>
<g>
	<path class="st0" d="M50,0h200c27.61,0,50,22.39,50,50v200c0,27.61-22.39,50-50,50H50c-27.61,0-50-22.39-50-50V50
		C0,22.39,22.39,0,50,0z"/>
</g>
<path class="st1" d="M12.51,192.11c-0.21,10.27,3.08,19.18,9.52,25.76c9.37,9.58,22.58,10.83,29.18,11.22h199.81
	c12.22-3.61,18.28-12.11,21.29-18.13c12.6-25.23,1.65-41.62-12.8-58.94c-4.01-4.8-6.3-10.09-6.8-15.71
	c-0.24-2.69,2.08-10.06,5.94-16.75l13.4-23.32c9.05-15.77,3.61-35.97-12.12-45.04l-5.88-3.39c-5-2.88-10.67-4.4-16.41-4.4
	c-11.76,0-22.7,6.34-28.57,16.54l-21.63,37.64c-5.63,9.79-5.64,24.01,0,33.81l33.37,58.09c1.27,2.2,1.6,4.75,0.94,7.2
	c-0.66,2.44-2.23,4.48-4.42,5.75l-2.67,1.54c-1.47,0.85-4.58,1.43-6.94,1.36c-1.47-0.05-2.92-0.08-4.28-0.08l-1.14,0.01
	c-0.63,0-1.89-0.51-2.62-1.33c-0.44-0.49-0.83-1.03-1.16-1.6l-36.76-63.99c-1.42-2.47-1.42-7.9,0-10.37l18.24-31.74
	c9.05-15.77,3.61-35.97-12.12-45.04l-5.88-3.39c-4.99-2.88-10.67-4.4-16.41-4.4c-11.76,0-22.71,6.34-28.57,16.54L95.38,97.6
	c-5.62,9.79-5.62,24.01,0,33.81l33.37,58.09c1.26,2.19,1.59,4.75,0.93,7.19c-0.66,2.45-2.23,4.49-4.43,5.75c0,0-1.51,0.87-3.03,1.75
	c-1.67,0.96-5.03,1.76-7.5,1.78c-2.47,0.02-5.59-0.51-6.66-1.56c-0.64-0.62-1.2-1.34-1.66-2.14l-40.04-68.51l21.56-37.51
	c9.05-15.77,3.62-35.98-12.12-45.04l-5.88-3.39c-4.99-2.88-10.66-4.4-16.41-4.4c-11.76,0-22.71,6.34-28.57,16.54l-5.46,9.51
	c-5.14,8.94-4.72,22.53,1,32.31l18.75,32.09l-16.71,29.08C20.24,166.92,12.74,180.82,12.51,192.11z M229.41,71.67
	c1.69-2.94,4.84-4.76,8.22-4.76c1.66,0,3.24,0.43,4.7,1.26l5.88,3.39c4.53,2.61,6.09,8.42,3.49,12.95l-13.39,23.31
	c-2.38,4.13-10.05,18.54-8.97,30.6c0.93,10.33,5.14,20.25,12.17,28.67c13.94,16.69,15.5,21.99,9.82,33.36
	c-0.99,1.99-3.68,3.58-7.61,4.62c0.26-0.74,0.49-1.5,0.69-2.27c2.29-8.51,1.13-17.4-3.26-25.03l-33.37-58.09
	c-1.42-2.47-1.42-7.89,0-10.36L229.41,71.67z M115.71,119.68c-1.42-2.47-1.42-7.9,0-10.37l21.63-37.65
	c1.69-2.94,4.83-4.76,8.23-4.76c1.66,0,3.24,0.43,4.7,1.26l5.88,3.39c4.53,2.61,6.09,8.42,3.49,12.95l-18.24,31.74
	c-5.63,9.8-5.63,24.02,0,33.81l31.84,55.43l-21.82,0.18c0.35-0.93,0.65-1.89,0.91-2.87c2.29-8.51,1.14-17.4-3.25-25.04
	L115.71,119.68z M81.54,206.24l-27.68,0.22c-3.59-0.02-11.21-1.09-15.07-5.03c-1.26-1.29-2.93-3.61-2.83-8.82
	c0.08-3.46,3.11-11.34,6.9-17.96l10.02-17.43L81.54,206.24z M64.09,71.57c4.52,2.61,6.09,8.42,3.48,12.95l-14.86,25.87l-11.98-20.5
	c-1.67-2.86-1.59-7.43-0.91-8.72l5.46-9.51c2.51-4.37,8.49-6.05,12.93-3.49L64.09,71.57z"/>
<path class="st2" d="M12.51,192.11c-0.21,10.27,3.08,19.18,9.52,25.76c9.37,9.58,22.58,10.83,29.18,11.22h199.81
	c12.22-3.61,18.28-12.11,21.29-18.13c12.6-25.23,1.65-41.62-12.8-58.94c-4.01-4.8-6.3-10.09-6.8-15.71
	c-0.24-2.69,2.08-10.06,5.94-16.75l13.4-23.32c9.05-15.77,3.61-35.97-12.12-45.04l-5.88-3.39c-5-2.88-10.67-4.4-16.41-4.4
	c-11.76,0-22.7,6.34-28.57,16.54l-21.63,37.64c-5.63,9.79-5.64,24.01,0,33.81l33.37,58.09c1.27,2.2,1.6,4.75,0.94,7.2
	c-0.66,2.44-2.23,4.48-4.42,5.75l-2.67,1.54c-1.47,0.85-4.58,1.43-6.94,1.36c-1.47-0.05-2.92-0.08-4.28-0.08l-1.14,0.01
	c-0.63,0-1.89-0.51-2.62-1.33c-0.44-0.49-0.83-1.03-1.16-1.6l-36.76-63.99c-1.42-2.47-1.42-7.9,0-10.37l18.24-31.74
	c9.05-15.77,3.61-35.97-12.12-45.04l-5.88-3.39c-4.99-2.88-10.67-4.4-16.41-4.4c-11.76,0-22.71,6.34-28.57,16.54L95.38,97.6
	c-5.62,9.79-5.62,24.01,0,33.81l33.37,58.09c1.26,2.19,1.59,4.75,0.93,7.19c-0.66,2.45-2.23,4.49-4.43,5.75c0,0-1.51,0.87-3.03,1.75
	c-1.67,0.96-5.03,1.76-7.5,1.78c-2.47,0.02-5.59-0.51-6.66-1.56c-0.64-0.62-1.2-1.34-1.66-2.14l-40.04-68.51l21.56-37.51
	c9.05-15.77,3.62-35.98-12.12-45.04l-5.88-3.39c-4.99-2.88-10.66-4.4-16.41-4.4c-11.76,0-22.71,6.34-28.57,16.54l-5.46,9.51
	c-5.14,8.94-4.72,22.53,1,32.31l18.75,32.09l-16.71,29.08C20.24,166.92,12.74,180.82,12.51,192.11z M259.83,89.06
	c1.64-2.87,2.51-6.12,2.51-9.4c0-3.14-0.78-6.25-2.27-9.01l4.14-2.23c1.85,3.44,2.83,7.33,2.83,11.24c0,4.1-1.08,8.16-3.14,11.74
	l-1.1,1.93l-4.07-2.34L259.83,89.06z M263.92,206.6c-2.65,5.31-7.61,9.14-14.74,11.4l-1.42-4.48c5.88-1.86,9.9-4.9,11.96-9.03
	c0.99-1.97,1.8-3.9,2.43-5.71l4.43,1.52C265.9,202.33,265,204.44,263.92,206.6z M264.74,175.43l-4.18,2.13
	c-2.82-5.54-7.37-11.28-11.86-16.66c-0.64-0.77-1.25-1.55-1.82-2.32l3.78-2.79c0.51,0.7,1.06,1.39,1.64,2.09
	C256.98,163.48,261.71,169.48,264.74,175.43z M243.33,135.19l-4.69-0.19c0.29-7.21,4.39-16.69,7.8-22.63l0.42-0.73l4.07,2.35
	l-0.42,0.73C247.11,120.63,243.57,129.24,243.33,135.19z M237.62,52.66c0.01,0,0.01,0,0.01,0c2.14,0,4.27,0.29,6.34,0.87l-1.27,4.53
	c-1.65-0.47-3.35-0.7-5.07-0.7c-0.01,0-0.01,0-0.01,0c-5.43,0-10.59,2.34-14.17,6.41l-3.53-3.1
	C224.39,55.58,230.83,52.66,237.62,52.66z M229.41,71.67c1.69-2.94,4.84-4.76,8.22-4.76c1.66,0,3.24,0.43,4.7,1.26l5.88,3.39
	c4.53,2.61,6.09,8.42,3.49,12.95l-13.39,23.31c-2.38,4.13-10.05,18.54-8.97,30.6c0.93,10.33,5.14,20.25,12.17,28.67
	c13.94,16.69,15.5,21.99,9.82,33.36c-0.99,1.99-3.68,3.58-7.61,4.62c0.26-0.74,0.49-1.5,0.69-2.27c2.29-8.51,1.13-17.4-3.26-25.03
	l-33.37-58.09c-1.42-2.47-1.42-7.89,0-10.36L229.41,71.67z M195.57,102.13l11.86-20.66l4.07,2.35l-12.19,21.24l-4.17-2.15
	L195.57,102.13z M208.27,148.66L196.39,128l4.07-2.35l11.87,20.66L208.27,148.66z M220.13,169.32l4.07-2.35l8.81,15.33
	c1.14,1.98,1.99,4.11,2.51,6.32l-4.57,1.09c-0.42-1.77-1.09-3.47-2.01-5.07L220.13,169.32z M207.34,214.62
	c3.45,0,8.72-1.27,11.74-2.88c2.52-1.34,5.03-2.71,5.4-3l2.95,3.65c-0.46,0.37-3.37,1.95-6.29,3.5c-3.51,1.86-9.43,3.34-13.2,3.34
	h-6.83l-0.04-4.6C201.07,214.62,203.88,214.62,207.34,214.62z M141.41,205l-4.16-2.18c1.41-2.7,2.15-5.74,2.15-8.78
	c0-3.28-0.87-6.53-2.51-9.4l-1.25-2.17l4.07-2.35l1.25,2.18c2.05,3.58,3.14,7.64,3.14,11.74C144.09,197.84,143.17,201.63,141.41,205
	z M153.51,219.61l-0.04-4.7l23.8-0.19l0.04,4.7L153.51,219.61z M176.44,182.64l11.87,20.66l-4.07,2.35l-11.87-20.66L176.44,182.64z
	 M164.58,161.98l-4.07,2.35l-10.97-19.1c-0.33-0.58-0.64-1.2-0.92-1.84l4.3-1.89c0.21,0.48,0.45,0.95,0.69,1.39L164.58,161.98z
	 M154.95,120.81l-4.07-2.35l11.87-20.66l4.07,2.35L154.95,120.81z M159.54,57.1l3.64,2.1c6.45,3.72,10.69,10.1,11.63,17.51
	l-4.66,0.59c-0.75-5.94-4.14-11.05-9.3-14.02l-3.64-2.1L159.54,57.1z M125.14,64.48c2.26-3.93,5.58-7.1,9.58-9.18l2.15,4.18
	c-3.21,1.65-5.86,4.19-7.67,7.34l-5.83,10.16l-4.07-2.35L125.14,64.48z M107.57,104.48c-1.47,2.56-2.31,6.16-2.31,9.87
	c0,1.38,0.11,2.75,0.34,4.06l-4.63,0.79c-0.27-1.57-0.4-3.21-0.4-4.85c0-4.58,1.05-8.91,2.94-12.21l3.92-6.83l4.07,2.34
	L107.57,104.48z M123.76,161.82l-11.87-20.66l4.07-2.35l11.87,20.66L123.76,161.82z M115.71,119.68c-1.42-2.47-1.42-7.9,0-10.37
	l21.63-37.65c1.69-2.94,4.83-4.76,8.23-4.76c1.66,0,3.24,0.43,4.7,1.26l5.88,3.39c4.53,2.61,6.09,8.42,3.49,12.95l-18.24,31.74
	c-5.63,9.8-5.63,24.02,0,33.81l31.84,55.43l-21.82,0.18c0.35-0.93,0.65-1.89,0.91-2.87c2.29-8.51,1.14-17.4-3.25-25.04
	L115.71,119.68z M77.33,64.37c3.61,4.25,5.6,9.68,5.6,15.29c0,3.31-0.69,6.53-2.04,9.56L76.6,87.3c1.08-2.43,1.63-5,1.63-7.65
	c0-4.49-1.59-8.84-4.48-12.24L77.33,64.37z M58.31,220.37l-0.04-4.7l23.8-0.19l0.04,4.7L58.31,220.37z M100.66,210.13
	c1.06,1.17,2.25,2.2,3.54,3.06c2.15,1.43,8.95,2.05,14.82,2l10.65-0.09l0.04,4.7c0,0-5.07,0-11.34,0c-6.27,0-13.85-0.97-16.61-2.76
	c-1.74-1.13-3.37-2.43-4.59-3.77L100.66,210.13z M76.54,169.62l12.02,20.57l-4.05,2.37L72.49,172L76.54,169.62z M81.54,206.24
	l-27.68,0.22c-3.59-0.02-11.21-1.09-15.07-5.03c-1.26-1.29-2.93-3.61-2.83-8.82c0.08-3.46,3.11-11.34,6.9-17.96l10.02-17.43
	L81.54,206.24z M48.45,130.86l4.05-2.37l12.03,20.57l-4.05,2.37L48.45,130.86z M57.14,130.8l-4.07-2.35l11.87-20.66l4.07,2.35
	L57.14,130.8z M64.09,71.57c4.52,2.61,6.09,8.42,3.48,12.95l-14.86,25.87l-11.98-20.5c-1.67-2.86-1.59-7.43-0.91-8.72l5.46-9.51
	c2.51-4.37,8.49-6.05,12.93-3.49L64.09,71.57z M55.01,52.71L54.7,57.4c-7.19-0.47-14,3.25-17.56,9.43l-4.18-2.15
	C37.53,56.75,46.05,52.13,55.01,52.71z M36.42,110.28l-7.84-13.42c-1.44-2.47-2.46-5.44-2.95-8.62l4.64-0.72
	c0.4,2.6,1.23,5.01,2.37,6.97l7.84,13.42L36.42,110.28z M30.66,167.47l10.54-18.35l4.07,2.35l-10.54,18.34
	c-0.4,0.7-0.83,1.47-1.26,2.28l-4.15-2.22C29.79,169.02,30.24,168.21,30.66,167.47z M36.46,211.26l-2.39,4.04
	c-7.81-4.62-12.02-12.16-12.18-21.78l4.69-0.08C26.71,201.46,30.04,207.45,36.46,211.26z"/>
<path class="st3" d="M33.6,108.25c-2.61-7.22-5.31-13.66-5.31-21.37c0-5.04-0.15-10.1,0.42-15.12c0.69-6.07,0.67-12.1,3.67-17.46
	c2.57-4.6,4.25-4.3,9.44-4.3c4.3,0,7.82,0.31,11.97,1.11c2.28,0.43,4.99-0.04,7.12,0.94c1.98,0.91,3.63,1.91,5.69,2.68
	c8.26,3.09,8.24,15.83,7.93,23.04c-0.32,7.5-3.11,12.13-6.7,18.48c-3.23,5.7-5.13,12-7.38,18.14c-0.96,2.63-3.08,4.33-4.09,6.81
	c-1.21,2.99-2.48,5.54-4.26,8.26c-2.29,3.5-5.23,6.65-7.38,10.22c-1.99,3.31-2.64,7.39-3.96,10.99c-2.29,6.21-7.37,11.88-11,17.37
	c-4.37,6.63-8.18,13.1-10.88,20.65c-2.04,5.7-1.22,12.33-1.22,18.27c0,5.71,3.38,9.66,7.5,13.41c1.97,1.79,3.86,2.85,6.41,2.85
	c7.84,0,15.68,0,23.52,0c17.06,0,34.12,0,51.18,0c9.17,0,18.34,0.8,27.49,1.36c13.64,0.84,27.48,0.17,41.15,0.17
	c16.05,0,32.1,0,48.14,0c12.8,0,25.72,1.01,37.94-3.58c7.9-2.97,13.81-4.78,13.91-14.05c0.06-5.75,0.54-11.61-1.35-17.12
	c-2.28-6.67-7.28-9.86-11.38-15.07c-2.52-3.2-6.35-5.78-7.17-9.96c-3.11-15.98-3-32.28-2.86-48.54c0.06-7.29-0.01-17.47,3.37-24.18
	c3.39-6.75,4.97-13.44,4.97-21.12c0-7.04-4.29-8.09-10.67-8.09c-6.97,0-14.77-0.97-21.67,0.17c-15.72,2.59-10.58,29.45-12.06,40.75
	c-1.27,9.76-0.38,20.11-0.38,29.98c0,7.74,0.71,16.95,3.08,24.27c2.2,6.8,5.04,14.43,5.9,21.55c0.59,4.85,0.62,11.13-0.72,15.84
	c-1.55,5.48-10.46,7.71-15.39,7.71c-7.01,0-14.02,0-21.04,0c-3.2,0-7.69,0.87-10.2-1.7c-3.21-3.28-3.75-8.77-4.55-13.07
	c-3.56-18.97-7.93-38.79-7.93-58.21c0-16.51,0-33.01,0-49.52c0-3.93,0.09-7.87,0-11.79c-0.12-5.45-13.48-2.9-17.03-2.9
	c-5.45,0-10.9,0-16.36,0c-2.43,0-8.72-1.23-10.45,1.19c-2.64,3.69-1.93,10.83-2.45,15.12c-0.76,6.36-1.1,12.72-1.35,19.12
	c-0.79,20.37,0.04,40.3,2.7,60.46c1.32,9.98,5.58,30.25-4.81,37.38c-4.44,3.05-9.62,7.58-15.35,5.71c-5.18-1.7-10.03-5.6-13.24-9.96
	c-2.44-3.32-5.01-7.31-5.73-11.41c-0.48-2.69-1.9-4.06-3.29-6.39c-2.42-4.05-4.32-8.34-7.34-12.01
	c-9.25-11.27-19.39-25.81-21.42-40.62c-0.31-2.25-2.16-3.5-3.04-5.54c-1.38-3.23-2.42-6.63-3.96-9.79c-1.29-2.66-2.53-5.24-3.63-8"
	/>
</svg>
