<svg width="192" height="245" viewBox="0 0 192 245" fill="none" xmlns="http://www.w3.org/2000/svg">
<g clip-path="url(#clip0)">
<path d="M107.209 190.955C114.535 188.55 121.823 185.972 129.068 183.225C129.209 183.314 128.834 166.491 119.584 159.23C101.35 145.215 109.101 128.481 110.517 119.113C113.028 105.824 108.231 92.7287 95.534 94.7113C81.404 96.6342 74.8203 73.7474 73.6928 52.0901C73.8694 41.4028 61.9661 30.5242 51.7599 29.3281C41.2974 27.8574 32.5321 36.0694 33.0712 57.2185C32.616 81.8919 52.4778 93.3003 60.982 104.166C69.3449 114.829 56.2697 126.877 69.9217 135.249C81.4904 142.786 95.2035 147.273 92.6203 159.689C89.8885 171.996 92.6453 181.197 107.209 190.955Z" fill="url(#paint0_linear)"/>
<path d="M117.832 190.123C117.726 189.451 104.111 155.768 86.4412 125.243C83.7913 120.104 80.9832 114.94 78.2676 109.947C63.1471 82.1437 48.865 55.8819 53.6858 23.1144L53.1865 23.0395C48.3406 55.9747 62.6622 82.3089 77.8245 110.189C80.5387 115.18 83.3455 120.341 85.9985 125.486C104.199 156.927 117.276 190.011 117.337 190.222L117.832 190.123Z" fill="#BEB8F2"/>
<path d="M64.3833 84.1795L64.6956 83.7818C54.6976 75.8827 42.287 64.3461 35.6195 58.1484C30.2185 53.1278 30.2019 53.134 29.9631 53.2144L30.0439 53.4545L29.9619 53.6892C30.238 53.8356 32.4614 55.9027 35.2766 58.5195C41.9495 64.7223 54.3695 76.2678 64.3833 84.1795Z" fill="#BEB8F2"/>
<path d="M59.7898 71.7221C59.5687 51.4443 70.6737 41.1339 71.8787 40.6785L71.8081 40.4923L71.9361 40.2035C71.7866 40.1375 71.6418 40.219 71.4812 40.3251C68.8515 42.0574 59.0751 52.4633 59.2845 71.7272L59.7898 71.7221Z" fill="#BEB8F2"/>
<path d="M97.1327 146.065L97.6163 145.921C91.4 125.048 102.381 102.68 107.391 94.032C107.661 93.5662 107.748 93.4153 107.776 93.3378L107.303 93.1614L107.539 93.2496L107.303 93.1591C107.281 93.2133 107.13 93.4747 106.954 93.777C101.912 102.482 90.8597 125.003 97.1327 146.065Z" fill="#BEB8F2"/>
<path d="M91.9497 136.196L92.3274 135.86C80.7512 122.764 61.5024 125.033 61.3358 125.115L61.1916 125.38L61.4043 125.596L61.442 125.347L61.501 125.591C61.6803 125.555 80.5839 123.337 91.9497 136.196ZM61.4805 125.095L61.4423 125.345L61.4805 125.095Z" fill="#BEB8F2"/>
<path d="M115.601 184.701C114.694 180.406 114.961 172.77 121.377 160.778C121.746 160.089 121.746 160.089 121.706 159.966L121.466 160.044L121.225 159.977C121.205 160.029 121.079 160.265 120.933 160.538C114.444 172.665 114.183 180.428 115.107 184.805L115.601 184.701Z" fill="#BEB8F2"/>
<path d="M111.792 176.985L112.245 176.763C108.677 169.422 96.9624 165.625 90.2972 164.015C90.0868 163.964 89.9516 163.932 89.9029 163.916L89.752 164.399C89.8053 164.416 89.9521 164.452 90.1801 164.507C96.7582 166.097 108.313 169.83 111.792 176.985Z" fill="#BEB8F2"/>
<path d="M110.44 190.419C109.804 191.101 108.578 193.131 106.412 193.92C91.9986 199.175 84.9583 197.843 84.2987 197.549C84.1861 197.498 82.9828 191.032 82.8731 190.977C82.6549 188.563 81.8789 186.102 80.1211 183.924C74.9312 177.494 53.7965 179.59 55.5168 164.097C56.7771 152.749 70.4258 145.214 47.9457 134.989C25.4655 124.764 10.0712 93.106 29.5457 83.9111C40.722 78.6341 50.5822 96.9418 63.8675 96.8452C76.4919 96.7534 83.5741 105.875 83.5459 119.831C83.5177 133.786 91.1655 134.231 101.745 138.279C114.453 143.141 107.261 158.032 104.042 164.361C101.451 169.457 102.258 187.337 110.44 190.419Z" fill="url(#paint1_linear)"/>
<path d="M96.127 195.563C92.8646 173.281 84.2658 151.371 71.2608 132.202C58.1821 112.923 40.9893 96.9378 21.5409 85.9747L21.3132 86.3817C60.5471 108.499 89.0377 150.36 95.6663 195.63L96.127 195.563Z" fill="#FCFDFE"/>
<path d="M90.3901 171.208C91.3431 153.156 107.488 139.938 107.65 139.807L107.358 139.442C107.194 139.575 90.8895 152.919 89.9253 171.182L90.3901 171.208Z" fill="#FCFDFE"/>
<path d="M94.2083 187.282L94.6294 187.083C86.851 170.573 53.9302 166.484 53.5989 166.445L53.5446 166.909C53.874 166.947 86.5406 171.006 94.2083 187.282Z" fill="#FCFDFE"/>
<path d="M69.7797 130.905L70.2159 130.743C65.1584 117.105 74.9009 97.0935 75.0002 96.893L74.5829 96.6851C74.4827 96.8874 64.6514 117.078 69.7797 130.905Z" fill="#FCFDFE"/>
<path d="M50.9271 108.615L51.1915 108.231C37.6515 98.8329 15.7131 102.409 15.4931 102.447L15.5711 102.907C15.7895 102.87 37.5437 99.3261 50.9271 108.615Z" fill="#FCFDFE"/>
</g>
<path d="M115.424 148.976C115.383 149.073 115.342 149.17 115.3 149.267C112.821 154.995 109.101 160.818 103.608 166.415C102.46 167.431 101.313 168.447 100.165 169.462C96.7348 167.706 93.7874 165.421 96.2024 161.19C99.9527 154.619 91.2879 145.278 86.7396 143.388C81.1102 141.048 68.1142 135.331 73.7521 125.082C78.4458 116.549 83.2178 112.002 75.4436 102.907C67.6695 93.8128 67.2481 83.9152 75.5843 76.9465C84.357 69.613 80.6536 52.1725 90.9211 49.3947C108.812 44.5548 116.302 73.7915 107.232 92.9822C98.1611 112.173 111.306 109.493 118.439 116.199C128.179 125.355 113.143 135.753 113.311 142.84C113.367 145.24 114.226 147.278 115.424 148.976Z" fill="url(#paint2_linear)"/>
<path d="M109.667 159.102C88.8694 125.877 84.3053 82.7094 97.7562 46.4464L97.2618 46.2632C83.7555 82.6767 88.3376 126.022 109.22 159.382L109.667 159.102Z" fill="#FCFDFE"/>
<path d="M99.8413 139.937C89.0398 128.531 70.8948 128.898 70.7129 128.903L70.7274 129.431C70.907 129.426 88.8209 129.067 99.458 140.3L99.8413 139.937Z" fill="#FCFDFE"/>
<path d="M105.993 152.858C101.989 137.999 121.149 117.188 121.343 116.979L120.956 116.62C120.76 116.831 101.404 137.854 105.483 152.996L105.993 152.858Z" fill="#FCFDFE"/>
<path d="M90.6925 102.45C86.3645 90.5429 68.6664 82.8257 68.4881 82.7493L68.2795 83.2342C68.4558 83.31 85.9466 90.9389 90.1968 102.631L90.6925 102.45Z" fill="#FCFDFE"/>
<path d="M90.6795 77.4413C94.2936 63.949 110.519 54.1663 110.681 54.0696L110.412 53.616C110.247 53.7148 93.8399 63.6067 90.1699 77.3054L90.6795 77.4413Z" fill="#FCFDFE"/>
<defs>
<linearGradient id="paint0_linear" x1="52.3144" y1="32.6874" x2="109.704" y2="188.054" gradientUnits="userSpaceOnUse">
<stop stop-color="#AA80F9"/>
<stop offset="0.9964" stop-color="#6165D7"/>
</linearGradient>
<linearGradient id="paint1_linear" x1="104.051" y1="128.968" x2="33.6953" y2="148.493" gradientUnits="userSpaceOnUse">
<stop stop-color="#FFC444"/>
<stop offset="0.9964" stop-color="#F36F56"/>
</linearGradient>
<linearGradient id="paint2_linear" x1="83.8785" y1="63.243" x2="106.281" y2="169.247" gradientUnits="userSpaceOnUse">
<stop offset="0.0036" stop-color="#FF9185"/>
<stop offset="1" stop-color="#FE80A0"/>
</linearGradient>
<clipPath id="clip0">
<rect width="89" height="214" fill="white" transform="matrix(-0.963582 0.267412 0.267412 0.963582 85.7588 14)"/>
</clipPath>
</defs>
</svg>
