<svg width="179" height="265" viewBox="0 0 179 265" fill="none" xmlns="http://www.w3.org/2000/svg">
<g clip-path="url(#clip0)">
<path d="M68.8295 75.795L46.6381 74.7299C46.6381 74.7299 42.8849 96.0097 51.229 103.339C68.2537 118.293 53.9556 132.154 48.8356 138.855C41.1143 148.96 39.3924 159.868 52.7056 163.188C67.7687 166.945 61.1235 189.109 46.3009 203.633C31.7958 217.846 48.7005 251.807 82.9206 223.925C103.357 207.274 93.3243 183.641 91.0976 170.502C88.8708 157.363 107.717 151.323 97.086 137.331C88.0056 125.379 74.8393 118.368 80.5454 107.042C86.2519 95.7151 84.3999 85.1627 68.8295 75.795Z" fill="url(#paint0_linear)"/>
<path d="M57.5853 76.2871C57.7258 76.5882 71.6919 106.839 76.4892 141.008C79.309 161.093 78.4572 178.585 73.9576 193C68.3251 211.044 56.9343 224.284 40.1016 232.353L39.874 231.88C77.6977 213.748 80.3796 172.496 75.9688 141.081C71.1821 106.989 57.2492 76.8097 57.1091 76.5084L57.5853 76.2871Z" fill="#BEB8F2"/>
<path d="M75.9855 185.361C82.6209 202.039 82.4242 228.188 82.4214 228.45L81.8957 228.445C81.8987 228.184 82.0942 202.136 75.4974 185.555L75.9855 185.361Z" fill="#BEB8F2"/>
<path d="M71.9119 197.284L72.293 197.645C57.469 213.264 39.5378 212.271 39.3585 212.258L39.393 211.735C39.57 211.746 57.2638 212.717 71.9119 197.284Z" fill="#BEB8F2"/>
<path d="M71.6267 118.974L72.1519 118.963C72.7204 145.177 40.6027 160.156 40.2769 160.241L40.1447 159.733L40.2108 159.987L40.1302 159.737C40.1971 159.713 48.2844 156.011 56.3581 148.86C63.4822 142.55 71.9147 132.242 71.6267 118.974Z" fill="#BEB8F2"/>
<path d="M74.4752 129.302C81.7342 143.957 101.384 150.259 101.582 150.32L101.424 150.821C101.224 150.759 81.3616 144.389 74.0043 129.535L74.4752 129.302Z" fill="#BEB8F2"/>
<path d="M59.1972 81.3084L59.7143 81.2162C61.4955 91.2165 50.016 102.143 49.5266 102.603L49.1663 102.221C49.2845 102.111 60.9282 91.0282 59.1972 81.3084Z" fill="#BEB8F2"/>
<path d="M62.5835 88.4163C65.7057 95.3346 78.9759 100.637 83.3366 102.379C84.2032 102.726 84.56 102.87 84.6829 102.952L84.3906 103.388C84.303 103.331 83.7647 103.116 83.1415 102.867C78.7319 101.105 65.3141 95.7435 62.1046 88.6321L62.5835 88.4163Z" fill="#BEB8F2"/>
<path d="M74.4673 53.1116C77.1019 44.9098 72.7167 37.5751 68.7832 32.7604C67.9987 32.8526 67.5164 32.6917 66.7004 32.5971C59.3361 31.7445 56.0922 33.044 48.759 33.4184C47.1806 33.499 42.6773 35.2396 40.8854 36.0784L37.5707 37.7005C37.5707 37.7005 33.7603 57.3285 44.0602 61.3443C54.3602 65.3602 52.9862 84.5949 53.4435 94.9359C54.6849 122.993 84.4196 116.747 88.8984 152.674C90.0897 162.229 89.164 180.851 98.1684 187.464C108.427 194.998 114.081 185.661 120.884 192.181C131.517 202.372 147.001 204.583 154.487 191.813C161.876 179.209 148.332 157.619 119.433 142.497C99.931 129.301 99.0864 124.732 99.085 113.351C99.0838 105.379 104.048 83.9973 92.3731 77.1506C80.6983 70.3038 71.4556 62.4876 74.4673 53.1116Z" fill="url(#paint1_linear)"/>
<path d="M52.5018 32.6589C53.2901 35.7804 54.1186 38.9033 54.9658 41.9413C61.267 64.5421 69.4507 85.7359 79.2913 104.934C87.6266 121.196 97.2638 136.257 107.935 149.698C116.514 160.503 125.806 170.325 135.552 178.891C142.401 184.911 149.401 190.251 156.356 194.764C157.56 195.545 158.841 196.281 160.08 196.992C161.75 197.951 163.477 198.942 165.057 200.068L164.751 200.497C163.192 199.386 161.476 198.401 159.817 197.449C158.572 196.734 157.284 195.995 156.069 195.207C149.092 190.68 142.072 185.324 135.204 179.288C125.434 170.701 116.121 160.856 107.522 150.026C96.8288 136.558 87.1727 121.467 78.8212 105.175C68.965 85.9451 60.768 64.7184 54.458 42.0836C53.6094 39.0412 52.7795 35.9143 51.9904 32.7885L52.5018 32.6589Z" fill="#FCFDFE"/>
<path d="M95.6045 132.776C108.02 152.487 104.187 192.089 104.147 192.487L103.622 192.434C103.662 192.038 107.477 152.615 95.1582 133.056L95.6045 132.776Z" fill="#FCFDFE"/>
<path d="M65.9463 75.0484C72.656 89.0973 101.73 97.0706 102.023 97.1494L101.886 97.6586C101.59 97.579 72.284 89.5426 65.4707 75.2754L65.9463 75.0484Z" fill="#FCFDFE"/>
<path d="M62.7803 66.6165C65.5374 76.6724 63.9344 91.8164 58.2663 109.259C58.1427 109.639 58.0361 109.968 58.0238 110.028L57.8056 109.984L57.508 110.061C57.4831 109.964 57.4831 109.964 57.7651 109.096C63.4016 91.7502 65.0022 76.7136 62.2714 66.7558L62.7803 66.6165Z" fill="#FCFDFE"/>
<path d="M54.0153 38.3165C59.9019 47.7467 76.399 49.7417 76.5651 49.7605L76.5046 50.2847C76.3362 50.2649 59.5873 48.2386 53.5677 38.5955L54.0153 38.3165Z" fill="#FCFDFE"/>
<path d="M51.6991 32.7166L52.2241 32.769C51.2978 41.9791 47.7018 51.2161 41.2299 61.0075L40.7901 60.7171C47.2132 50.9988 50.782 41.8394 51.6991 32.7166Z" fill="#FCFDFE"/>
<path d="M129.881 173.739C137.37 184.278 142.784 197.068 144.564 201.271C144.874 202.006 145.12 202.586 145.176 202.674L144.733 202.961C144.659 202.847 144.506 202.49 144.078 201.477C142.304 197.287 136.906 184.537 129.45 174.044L129.881 173.739Z" fill="#FCFDFE"/>
<path d="M115.235 158.474C124.639 165.683 149.12 162.37 149.366 162.335L149.439 162.858C148.425 162.999 124.493 166.235 114.914 158.893L115.235 158.474Z" fill="#FCFDFE"/>
<path d="M69.4352 32.7034C69.3313 32.6866 69.2272 32.6701 69.123 32.654C62.9556 31.6971 56.0458 31.74 48.3813 33.403C46.9103 33.8324 45.4391 34.2619 43.9678 34.6914C43.6253 38.5299 43.9871 42.2416 48.8543 42.4543C56.4128 42.7846 59.696 55.0954 58.8702 59.9511C57.8483 65.961 55.7559 80.0037 67.433 80.6983C77.1541 81.2764 83.546 79.6638 87.0953 91.0896C90.6446 102.515 98.7936 108.149 109.134 104.811C120.015 101.299 132.796 113.731 140.62 106.525C154.253 93.9692 133.511 72.0448 112.44 69.4874C91.3678 66.93 100.644 57.2383 98.773 47.6276C96.2194 34.5068 79.4059 41.6829 73.4995 37.7632C71.4993 36.4358 70.2323 34.6228 69.4352 32.7034Z" fill="url(#paint2_linear)"/>
<path d="M57.7991 32.1753C74.8205 67.485 108.908 94.3606 146.758 102.314L146.65 102.83C108.642 94.8432 74.4143 67.8576 57.3236 32.4042L57.7991 32.1753Z" fill="#FCFDFE"/>
<path d="M68.7744 50.706C72.6652 65.9253 62.6809 81.0808 62.5799 81.2321L62.1414 80.9386C62.2414 80.7894 72.0952 65.8247 68.2632 50.837L68.7744 50.706Z" fill="#FCFDFE"/>
<path d="M61.1222 38.6133C71.5596 49.9225 99.3807 44.8083 99.6605 44.7553L99.7583 45.2739C99.4756 45.327 71.3698 50.4945 60.7343 38.971L61.1222 38.6133Z" fill="#FCFDFE"/>
<path d="M95.6119 78.4323C103.378 88.4421 100.472 107.53 100.441 107.721L99.9198 107.639C99.9496 107.449 102.82 88.5846 95.1945 78.7552L95.6119 78.4323Z" fill="#FCFDFE"/>
<path d="M116.763 91.7766C130.105 95.9123 147.031 87.4009 147.2 87.3149L147.44 87.7843C147.268 87.8717 130.152 96.4786 116.606 92.2802L116.763 91.7766Z" fill="#FCFDFE"/>
</g>
<defs>
<linearGradient id="paint0_linear" x1="62.5466" y1="230.176" x2="75.244" y2="78.3604" gradientUnits="userSpaceOnUse">
<stop stop-color="#AA80F9"/>
<stop offset="0.9964" stop-color="#6165D7"/>
</linearGradient>
<linearGradient id="paint1_linear" x1="61.6566" y1="88.1358" x2="203.211" y2="231.606" gradientUnits="userSpaceOnUse">
<stop stop-color="#FFC444"/>
<stop offset="0.9964" stop-color="#F36F56"/>
</linearGradient>
<linearGradient id="paint2_linear" x1="125.149" y1="105.1" x2="47.4107" y2="29.6322" gradientUnits="userSpaceOnUse">
<stop offset="0.0036" stop-color="#FF9185"/>
<stop offset="1" stop-color="#FE80A0"/>
</linearGradient>
<clipPath id="clip0">
<rect width="132" height="243" fill="white" transform="translate(178.547 237.948) rotate(168.297)"/>
</clipPath>
</defs>
</svg>
