<svg width="329" height="214" viewBox="0 0 329 214" fill="none" xmlns="http://www.w3.org/2000/svg">
<g clip-path="url(#clip0)">
<path d="M268.986 153.956L290.5 159.5C290.5 159.5 298.492 139.424 291.808 130.554C278.17 112.458 294.983 101.785 301.355 96.2625C310.966 87.9338 314.865 77.6019 302.502 71.65C288.514 64.916 299.517 44.5607 316.977 33.345C334.064 22.3695 324.399 -14.3148 285.235 6.04683C261.846 18.2066 266.876 43.3832 266.391 56.7008C265.907 70.0181 246.228 72.1098 253.799 87.9671C260.266 101.512 271.737 111.048 263.852 120.982C255.966 130.916 255.64 141.624 268.986 153.956Z" fill="url(#paint0_linear)"/>
<path d="M280.096 155.755C280.02 155.431 272.48 122.976 274.714 88.5443C276.026 68.3053 280.409 51.3492 287.739 38.1471C296.914 21.6209 310.754 10.9664 328.873 6.47937L329 6.98895C288.285 17.0713 277.291 56.9224 275.238 88.5783C273.01 122.933 280.531 155.311 280.607 155.634L280.096 155.755Z" fill="#BEB8F2"/>
<path d="M284.203 45.2157C281.089 27.5385 286.586 1.97311 286.642 1.71704L287.155 1.82897C287.099 2.08411 281.624 27.5501 284.721 45.1247L284.203 45.2157Z" fill="#BEB8F2"/>
<path d="M290.611 34.3671L290.311 33.9358C307.995 21.6485 325.352 26.2584 325.525 26.3071L325.385 26.813C325.214 26.7657 308.085 22.2258 290.611 34.3671Z" fill="#BEB8F2"/>
<path d="M275.006 111.106L274.489 111.011C279.25 85.2268 313.738 77.0742 314.074 77.057L314.101 77.5812L314.088 77.3191L314.116 77.58C314.045 77.5902 305.375 79.575 296.019 84.9397C287.763 89.6736 277.415 98.0561 275.006 111.106Z" fill="#BEB8F2"/>
<path d="M274.311 100.416C270.176 84.5926 252.212 74.4366 252.032 74.336L252.287 73.8774C252.47 73.9794 270.628 84.2455 274.819 100.283L274.311 100.416Z" fill="#BEB8F2"/>
<path d="M279.536 150.511L279.011 150.496C279.296 140.342 292.753 131.971 293.325 131.62L293.601 132.067C293.462 132.152 279.813 140.642 279.536 150.511Z" fill="#BEB8F2"/>
<path d="M277.662 142.864C276.008 135.456 264.089 127.572 260.173 124.981C259.395 124.466 259.074 124.253 258.971 124.148L259.345 123.78C259.42 123.853 259.903 124.173 260.463 124.544C264.423 127.163 276.475 135.135 278.175 142.749L277.662 142.864Z" fill="#BEB8F2"/>
<path d="M261.423 202.106C257.179 209.603 259.986 217.675 262.861 223.187C263.648 223.256 264.087 223.511 264.867 223.77C271.905 226.098 275.346 225.484 282.602 226.605C284.164 226.846 288.927 226.055 290.852 225.597L294.426 224.681C294.426 224.681 302.139 206.234 292.868 200.212C283.597 194.191 288.844 175.635 290.493 165.416C294.969 137.69 264.585 137.775 267.487 101.687C268.259 92.0882 272.943 74.0414 265.467 65.7393C256.95 56.2808 249.52 64.277 244.181 56.5123C235.835 44.3763 221.122 39.0708 211.201 50.0568C201.41 60.8995 210.292 84.7883 235.523 105.458C251.943 122.336 251.843 126.981 249.536 138.126C247.92 145.932 238.722 165.862 248.766 174.935C258.809 184.007 266.274 193.536 261.423 202.106Z" fill="url(#paint1_linear)"/>
<path d="M278.783 226.589C278.644 223.373 278.466 220.147 278.253 217C276.667 193.591 272.953 171.178 267.211 150.383C262.348 132.768 255.966 116.065 248.243 100.739C242.034 88.4179 234.928 76.9153 227.121 66.5503C221.636 59.2662 215.865 52.6175 209.97 46.7877C208.95 45.7788 207.844 44.7987 206.775 43.8507C205.334 42.5732 203.844 41.252 202.525 39.829L202.912 39.4707C204.214 40.8752 205.694 42.1876 207.125 43.4565C208.2 44.409 209.311 45.3938 210.341 46.4128C216.254 52.2604 222.042 58.9288 227.543 66.233C235.368 76.6231 242.491 88.1526 248.714 100.501C256.453 115.859 262.847 132.594 267.72 150.242C273.471 171.071 277.192 193.519 278.779 216.963C278.993 220.115 279.171 223.345 279.31 226.566L278.783 226.589Z" fill="#FCFDFE"/>
<path d="M256.884 119.81C248.725 97.9903 260.512 59.9897 260.632 59.608L261.135 59.7665C261.016 60.1461 249.283 97.9759 257.378 119.626L256.884 119.81Z" fill="#FCFDFE"/>
<path d="M274.216 182.354C270.496 167.236 243.644 153.531 243.373 153.394L243.611 152.923C243.883 153.061 270.95 166.875 274.728 182.228L274.216 182.354Z" fill="#FCFDFE"/>
<path d="M275.606 191.252C274.946 180.846 279.588 166.342 288.676 150.412C288.874 150.065 289.045 149.764 289.069 149.708L289.274 149.796L289.581 149.781C289.586 149.881 289.586 149.881 289.134 150.673C280.096 166.515 275.479 180.915 276.133 191.219L275.606 191.252Z" fill="#FCFDFE"/>
<path d="M278.449 220.742C274.597 210.314 258.848 205.014 258.689 204.962L258.854 204.461C259.015 204.514 275.005 209.896 278.943 220.56L278.449 220.742Z" fill="#FCFDFE"/>
<path d="M279.581 226.695L279.077 226.538C281.852 217.707 287.247 209.391 295.571 201.116L295.943 201.49C287.682 209.703 282.329 217.948 279.581 226.695Z" fill="#FCFDFE"/>
<path d="M231.63 72.7462C226.434 60.9066 223.727 47.2843 222.837 42.8079C222.682 42.0256 222.559 41.4078 222.522 41.3104L223.013 41.119C223.063 41.246 223.14 41.6258 223.354 42.705C224.242 47.1675 226.941 60.7474 232.113 72.5344L231.63 72.7462Z" fill="#FCFDFE"/>
<path d="M242.875 90.6642C235.129 81.6984 210.485 79.9763 210.236 79.9601L210.271 79.4338C211.293 79.5013 235.384 81.1864 243.274 90.3193L242.875 90.6642Z" fill="#FCFDFE"/>
<path d="M262.211 223.111C262.309 223.148 262.407 223.185 262.506 223.222C268.351 225.41 275.126 226.77 282.969 226.696C284.496 226.574 286.024 226.452 287.552 226.33C288.666 222.641 289.064 218.933 284.342 217.737C277.007 215.881 276.289 203.16 278.083 198.572C280.303 192.895 285.2 179.568 273.907 176.52C264.505 173.982 257.919 174.264 256.761 162.356C255.603 150.448 248.766 143.279 237.964 144.449C226.596 145.681 216.603 130.916 207.48 136.384C191.583 145.914 207.446 171.59 227.561 178.368C247.677 185.147 236.628 192.755 236.51 202.546C236.349 215.912 254.269 212.295 259.257 217.332C260.946 219.037 261.819 221.069 262.211 223.111Z" fill="url(#paint2_linear)"/>
<path d="M273.498 225.988C263.992 187.96 236.065 154.729 200.615 139.263L200.826 138.779C236.423 154.31 264.466 187.677 274.01 225.86L273.498 225.988Z" fill="#FCFDFE"/>
<path d="M266.509 205.616C265.787 189.924 278.637 177.109 278.767 176.981L279.137 177.358C279.009 177.483 266.324 190.138 267.036 205.592L266.509 205.616Z" fill="#FCFDFE"/>
<path d="M271.55 219.01C263.623 205.819 235.343 205.183 235.058 205.178L235.068 204.651C235.355 204.656 263.925 205.297 272.002 218.738L271.55 219.01Z" fill="#FCFDFE"/>
<path d="M245.854 173.023C240.279 161.646 246.997 143.544 247.066 143.363L247.56 143.549C247.492 143.729 240.855 161.619 246.328 172.791L245.854 173.023Z" fill="#FCFDFE"/>
<path d="M227.849 155.665C215.624 148.909 197.323 153.81 197.14 153.86L197 153.352C197.186 153.301 215.692 148.345 228.105 155.204L227.849 155.665Z" fill="#FCFDFE"/>
</g>
<path d="M17.651 223.246C9.9489 222.888 2.23675 222.353 -5.47874 221.643C-5.59082 221.767 -9.72867 205.457 -2.75679 195.986C11.0649 177.606 -0.8785 163.554 -4.74783 154.906C-10.7216 142.772 -9.60054 128.871 3.16398 127.386C17.2936 125.46 17.5173 101.646 12.8124 80.4763C9.78423 70.2255 18.3449 56.56 27.8596 52.6782C37.5479 48.4632 48.1899 54.0322 53.326 74.5553C60.3625 98.2084 44.2749 114.513 38.9858 127.256C33.779 139.768 49.5998 147.88 38.6839 159.599C29.5518 169.954 17.538 177.945 23.3474 189.218C29.2706 200.346 29.0747 209.949 17.651 223.246Z" fill="url(#paint3_linear)"/>
<path d="M7.1925 225.286C7.11429 224.61 11.2261 188.512 20.0901 154.374C21.2693 148.714 22.5943 142.987 23.8758 137.45C31.0106 106.615 37.7499 77.4907 24.3422 47.2058L24.8033 47C38.28 77.44 31.522 106.645 24.3674 137.564C23.0868 143.099 21.7622 148.823 20.5816 154.49C11.452 189.653 7.69767 225.029 7.69589 225.249L7.1925 225.286Z" fill="#BEB8F2"/>
<path d="M30.3639 108.908L29.9565 108.608C37.4782 98.3229 46.3517 83.8877 51.1191 76.1326C54.9809 69.8506 54.9985 69.8522 55.2501 69.8658L55.2365 70.1188L55.3782 70.323C55.1513 70.5379 53.5616 73.1243 51.5487 76.3986C46.7776 84.1599 37.8973 98.6062 30.3639 108.908Z" fill="#BEB8F2"/>
<path d="M31.4588 95.6755C26.2493 76.077 12.7916 69.1117 11.5087 68.9952L11.527 68.7968L11.3264 68.5528C11.4528 68.4492 11.6141 68.489 11.7973 68.5483C14.7944 69.5143 26.9974 76.9269 31.947 95.5453L31.4588 95.6755Z" fill="#BEB8F2"/>
<path d="M15.3561 177.297L14.8515 177.288C15.2598 155.513 -1.30321 136.896 -8.44333 129.902C-8.82795 129.525 -8.95162 129.403 -8.99976 129.336L-8.59063 129.039L-8.79519 129.188L-8.59197 129.037C-8.55609 129.084 -8.34016 129.295 -8.09058 129.54C-0.903661 136.579 15.7683 155.325 15.3561 177.297Z" fill="#BEB8F2"/>
<path d="M17.7111 166.401L17.2574 166.179C24.9101 150.464 44.0647 147.503 44.2469 147.537L44.4569 147.754L44.3096 148.019L44.2068 147.79L44.2151 148.04C44.0328 148.054 25.2245 150.971 17.7111 166.401ZM44.1023 147.557L44.2059 147.787L44.1023 147.557Z" fill="#BEB8F2"/>
<path d="M7.89216 219.464C7.61718 215.084 5.3184 207.797 -4.07126 197.958C-4.61075 197.392 -4.61075 197.392 -4.6054 197.263L-4.35315 197.274L-4.13811 197.145C-4.1058 197.189 -3.92085 197.383 -3.7067 197.607C5.78836 207.557 8.11589 214.967 8.39577 219.433L7.89216 219.464Z" fill="#BEB8F2"/>
<path d="M9.49941 211.011L9.00293 210.918C10.4786 202.89 20.7509 196.099 26.7427 192.765C26.9319 192.66 27.0536 192.593 27.0964 192.565L27.3709 192.99C27.3241 193.021 27.1922 193.094 26.9872 193.208C21.0738 196.499 10.9378 203.187 9.49941 211.011Z" fill="#BEB8F2"/>
<path d="M26.2583 217.906C34.5386 217.906 41.2511 216.823 41.2511 215.487C41.2511 214.152 34.5386 213.069 26.2583 213.069C17.9779 213.069 11.2654 214.152 11.2654 215.487C11.2654 216.823 17.9779 217.906 26.2583 217.906Z" fill="url(#paint4_linear)"/>
<path d="M11.9878 214.922C12.7824 215.409 14.5065 217.037 16.8048 217.219C32.0988 218.427 38.5265 215.261 39.0834 214.801C39.1785 214.723 38.6087 208.17 38.6999 208.088C38.2644 205.703 38.354 203.124 39.4655 200.556C42.747 192.972 63.6725 189.34 57.8718 174.872C53.6228 164.274 38.4563 160.663 57.3834 144.799C76.3104 128.934 82.6784 94.3129 61.4544 90.6606C49.2739 88.5645 44.6685 108.842 31.8412 112.302C19.652 115.589 15.267 126.273 19.0261 139.712C22.7851 153.152 15.5347 155.626 6.42288 162.355C-4.5224 170.439 6.39013 182.865 11.184 188.102C15.0442 192.32 19.047 209.764 11.9878 214.922Z" fill="url(#paint5_linear)"/>
<path d="M27.1548 216.051C24.3399 193.708 26.7666 170.297 34.1719 148.348C41.6189 126.274 53.911 106.273 69.7194 90.5085L70.0477 90.8398C38.1569 122.643 21.898 170.598 27.6167 215.992L27.1548 216.051Z" fill="#FCFDFE"/>
<path d="M26.1698 191.049C20.4242 173.909 1.33312 165.49 1.14148 165.407L1.3251 164.978C1.51919 165.061 20.7979 173.559 26.6108 190.9L26.1698 191.049Z" fill="#FCFDFE"/>
<path d="M26.7892 207.559L26.3302 207.479C29.4105 189.491 60.0389 176.747 60.3475 176.621L60.524 177.053C60.2169 177.179 29.8254 189.825 26.7892 207.559Z" fill="#FCFDFE"/>
<path d="M35.2523 146.702L34.7886 146.663C36.0151 132.169 21.276 115.492 21.1267 115.325L21.4732 115.013C21.6239 115.181 36.4962 132.007 35.2523 146.702Z" fill="#FCFDFE"/>
<path d="M47.4575 120.182L47.1001 119.883C57.6338 107.207 79.7296 104.786 79.9515 104.763L79.9997 105.228C79.7793 105.251 57.8696 107.653 47.4575 120.182Z" fill="#FCFDFE"/>
<defs>
<linearGradient id="paint0_linear" x1="306.453" y1="4.0584" x2="263.225" y2="150.142" gradientUnits="userSpaceOnUse">
<stop stop-color="#AA80F9"/>
<stop offset="0.9964" stop-color="#6165D7"/>
</linearGradient>
<linearGradient id="paint1_linear" x1="281.072" y1="170.409" x2="171.563" y2="1.2072" gradientUnits="userSpaceOnUse">
<stop stop-color="#FFC444"/>
<stop offset="0.9964" stop-color="#F36F56"/>
</linearGradient>
<linearGradient id="paint2_linear" x1="222.34" y1="140.918" x2="283.154" y2="230.585" gradientUnits="userSpaceOnUse">
<stop offset="0.0036" stop-color="#FF9185"/>
<stop offset="1" stop-color="#FE80A0"/>
</linearGradient>
<linearGradient id="paint3_linear" x1="28.2237" y1="56.0634" x2="14.4712" y2="221.119" gradientUnits="userSpaceOnUse">
<stop stop-color="#AA80F9"/>
<stop offset="0.9964" stop-color="#6165D7"/>
</linearGradient>
<linearGradient id="paint4_linear" x1="11.2653" y1="215.487" x2="41.2511" y2="215.487" gradientUnits="userSpaceOnUse">
<stop stop-color="#FFC444"/>
<stop offset="0.9964" stop-color="#F36F56"/>
</linearGradient>
<linearGradient id="paint5_linear" x1="1.7115" y1="154" x2="74.7259" y2="154" gradientUnits="userSpaceOnUse">
<stop stop-color="#FFC444"/>
<stop offset="0.9964" stop-color="#F36F56"/>
</linearGradient>
<clipPath id="clip0">
<rect width="132" height="243" fill="white" transform="translate(197)"/>
</clipPath>
</defs>
</svg>
