<svg width="135" height="163" viewBox="0 0 135 163" fill="none" xmlns="http://www.w3.org/2000/svg">
<path d="M72.651 176.246C64.9489 175.888 57.2368 175.353 49.5213 174.643C49.4092 174.767 45.2713 158.457 52.2432 148.986C66.0649 130.606 54.1215 116.554 50.2522 107.906C44.2784 95.7719 45.3995 81.8709 58.164 80.386C72.2936 78.4604 72.5173 54.6464 67.8124 33.4763C64.7842 23.2255 73.3449 9.55996 82.8596 5.6782C92.5479 1.46319 103.19 7.03221 108.326 27.5553C115.363 51.2084 99.2749 67.5126 93.9858 80.2563C88.779 92.7678 104.6 100.88 93.6839 112.599C84.5518 122.954 72.538 130.945 78.3474 142.218C84.2706 153.346 84.0747 162.949 72.651 176.246Z" fill="url(#paint0_linear)"/>
<path d="M62.1925 178.286C62.1143 177.61 66.2261 141.512 75.0901 107.374C76.2693 101.714 77.5943 95.9873 78.8758 90.4498C86.0106 59.6154 92.7499 30.4907 79.3422 0.205763L79.8033 0C93.28 30.44 86.522 59.6449 79.3674 90.5643C78.0868 96.0994 76.7622 101.823 75.5816 107.49C66.452 142.653 62.6977 178.029 62.6959 178.249L62.1925 178.286Z" fill="#BEB8F2"/>
<path d="M85.3639 61.9077L84.9565 61.608C92.4782 51.323 101.352 36.8878 106.119 29.1328C109.981 22.8507 109.998 22.8523 110.25 22.8659L110.236 23.1189L110.378 23.3231C110.151 23.538 108.562 26.1244 106.549 29.3987C101.778 37.16 92.8973 51.6064 85.3639 61.9077Z" fill="#BEB8F2"/>
<path d="M86.4588 48.6756C81.2493 29.0771 67.7916 22.1118 66.5087 21.9953L66.527 21.7969L66.3264 21.5529C66.4528 21.4493 66.6141 21.4891 66.7973 21.5484C69.7944 22.5144 81.9974 29.927 86.947 48.5454L86.4588 48.6756Z" fill="#BEB8F2"/>
<path d="M70.356 130.297L69.8515 130.288C70.2598 108.513 53.6968 89.8958 46.5567 82.9021C46.1721 82.5255 46.0484 82.4032 46.0002 82.3361L46.4094 82.0395L46.2048 82.1878L46.408 82.0375C46.4439 82.0838 46.6598 82.2951 46.9094 82.5396C54.0963 89.5791 70.7683 108.325 70.356 130.297Z" fill="#BEB8F2"/>
<path d="M72.7111 119.401L72.2574 119.178C79.9101 103.464 99.0647 100.503 99.2469 100.537L99.4569 100.754L99.3096 101.019L99.2068 100.79L99.2151 101.04C99.0328 101.054 80.2245 103.971 72.7111 119.401ZM99.1023 100.557L99.2059 100.787L99.1023 100.557Z" fill="#BEB8F2"/>
<path d="M62.8922 172.464C62.6172 168.084 60.3184 160.797 50.9287 150.958C50.3893 150.392 50.3893 150.392 50.3946 150.263L50.6469 150.274L50.8619 150.145C50.8942 150.189 51.0792 150.383 51.2933 150.607C60.7884 160.557 63.1159 167.967 63.3958 172.433L62.8922 172.464Z" fill="#BEB8F2"/>
<path d="M64.4994 164.01L64.0029 163.918C65.4786 155.89 75.7509 149.099 81.7427 145.765C81.9319 145.66 82.0536 145.593 82.0964 145.565L82.3709 145.99C82.3241 146.021 82.1922 146.094 81.9872 146.208C76.0738 149.499 65.9378 156.187 64.4994 164.01Z" fill="#BEB8F2"/>
<path d="M66.9878 167.922C67.7824 168.409 69.5065 170.037 71.8048 170.219C87.0988 171.427 93.5265 168.261 94.0834 167.801C94.1785 167.723 93.6087 161.17 93.6999 161.088C93.2644 158.703 93.354 156.124 94.4655 153.556C97.747 145.973 118.672 142.34 112.872 127.872C108.623 117.274 93.4563 113.663 112.383 97.7991C131.31 81.9346 137.678 47.3131 116.454 43.6609C104.274 41.5648 99.6685 61.8425 86.8412 65.302C74.652 68.5895 70.267 79.2731 74.0261 92.7127C77.7851 106.152 70.5347 108.626 61.4229 115.355C50.4776 123.439 61.3901 135.865 66.184 141.102C70.0442 145.32 74.047 162.764 66.9878 167.922Z" fill="url(#paint1_linear)"/>
<path d="M82.1548 169.051C79.3399 146.708 81.7666 123.297 89.1719 101.348C96.6189 79.2736 108.911 59.2732 124.719 43.5087L125.048 43.8399C93.1569 75.643 76.8981 123.599 82.6167 168.993L82.1548 169.051Z" fill="#FCFDFE"/>
<path d="M81.1698 144.049C75.4242 126.909 56.3331 118.49 56.1415 118.407L56.3251 117.978C56.5192 118.061 75.7979 126.559 81.6108 143.9L81.1698 144.049Z" fill="#FCFDFE"/>
<path d="M81.7892 160.559L81.3302 160.479C84.4105 142.491 115.039 129.747 115.348 129.621L115.524 130.053C115.217 130.179 84.8254 142.825 81.7892 160.559Z" fill="#FCFDFE"/>
<path d="M90.2523 99.7025L89.7886 99.6626C91.0151 85.1693 76.276 68.4916 76.1267 68.3249L76.4732 68.0129C76.6239 68.1811 91.4962 85.007 90.2523 99.7025Z" fill="#FCFDFE"/>
<path d="M102.458 73.1825L102.1 72.8833C112.634 60.2067 134.73 57.7863 134.952 57.7633L135 58.2283C134.779 58.2509 112.87 60.6532 102.458 73.1825Z" fill="#FCFDFE"/>
<path d="M65.2106 180.946C65.3089 180.983 65.4074 181.021 65.5062 181.058C71.3513 183.246 78.1261 184.605 85.9686 184.532C87.4962 184.409 89.024 184.287 90.5517 184.165C91.6658 180.476 92.0644 176.768 87.3415 175.572C80.0071 173.716 79.2894 160.995 81.0829 156.408C83.3027 150.73 88.2 137.404 76.9066 134.355C67.5048 131.817 60.9187 132.1 59.7608 120.191C58.603 108.283 51.766 101.114 40.964 102.285C29.5963 103.516 19.6029 88.751 10.4799 94.2197C-5.41659 103.749 10.4465 129.425 30.5615 136.204C50.6765 142.982 39.6277 150.591 39.5099 160.381C39.349 173.747 57.2686 170.131 62.257 175.167C63.9465 176.873 64.8193 178.905 65.2106 180.946Z" fill="url(#paint2_linear)"/>
<path d="M76.4977 183.823C66.9925 145.795 39.0654 112.564 3.61487 97.0979L3.8259 96.6147C39.4232 112.145 67.4658 145.513 77.0098 183.696L76.4977 183.823Z" fill="#FCFDFE"/>
<path d="M69.5094 163.452C68.7865 147.759 81.6374 134.944 81.7671 134.817L82.137 135.193C82.0087 135.319 69.3243 147.973 70.0365 163.427L69.5094 163.452Z" fill="#FCFDFE"/>
<path d="M74.5495 176.845C66.6231 163.654 38.343 163.018 38.0582 163.014L38.0677 162.486C38.3553 162.491 66.925 163.132 75.002 176.574L74.5495 176.845Z" fill="#FCFDFE"/>
<path d="M48.854 130.858C43.2795 119.481 49.9975 101.38 50.0661 101.198L50.5601 101.384C50.4924 101.564 43.8546 119.454 49.3282 130.626L48.854 130.858Z" fill="#FCFDFE"/>
<path d="M30.8493 113.501C18.6239 106.745 0.322577 111.646 0.140069 111.696L0 111.187C0.185986 111.137 18.6921 106.181 31.1049 113.04L30.8493 113.501Z" fill="#FCFDFE"/>
<defs>
<linearGradient id="paint0_linear" x1="83.2237" y1="9.06344" x2="69.4712" y2="174.119" gradientUnits="userSpaceOnUse">
<stop stop-color="#AA80F9"/>
<stop offset="0.9964" stop-color="#6165D7"/>
</linearGradient>
<linearGradient id="paint1_linear" x1="56.7115" y1="107.001" x2="129.726" y2="107.001" gradientUnits="userSpaceOnUse">
<stop stop-color="#FFC444"/>
<stop offset="0.9964" stop-color="#F36F56"/>
</linearGradient>
<linearGradient id="paint2_linear" x1="25.34" y1="98.7531" x2="86.1542" y2="188.421" gradientUnits="userSpaceOnUse">
<stop offset="0.0036" stop-color="#FF9185"/>
<stop offset="1" stop-color="#FE80A0"/>
</linearGradient>
</defs>
</svg>
