<svg width="288" height="285" viewBox="0 0 288 285" fill="none" xmlns="http://www.w3.org/2000/svg">
<path opacity="0.19" d="M89.5382 223.775C75.1534 224.386 59.1537 225.651 40.242 232.137C35.9518 233.609 30.2527 237.152 31.5 245.608C32.4216 251.855 34 259.5 52.1763 269.347C86.9451 278.913 93.3234 283.861 113.721 284.63C137.137 285.513 138.374 275.359 168.598 272.552C185.703 270.963 191.383 273.651 207.748 275.632C214.384 276.436 218.011 276.636 228.591 277.197C276.792 279.753 285.447 282.171 287.129 278.382C289.961 272.002 269.768 255.346 250.914 245.608C234.522 237.143 220.545 234.64 193.712 229.814C147.602 221.521 113.41 222.763 89.5382 223.775Z" fill="#6165D7"/>
<path opacity="0.32" d="M199.89 239.266C96 221.5 78.5 232 78.5 232C74.887 237.878 70.5 239.266 70.5 239.266C70.5 239.266 68.3395 231.941 63 234C63 234 62.3245 236.097 62 239.266C61.638 242.806 64.0699 250.306 73 250.5C92.4439 250.922 98.2388 264.718 109.136 266.489C132.65 272.539 159.206 265.129 171.199 262.868C192.661 258.822 201.221 253.515 223.469 253.446C241.315 253.391 254.444 256.654 254.696 255.502C255.185 253.274 206.069 240.826 199.89 239.266Z" fill="#6165D7"/>
<g clip-path="url(#clip0)">
<path d="M98.1988 237.716C97.9404 239.521 96.853 240.975 95.4213 241.43C91.8446 242.566 87.2163 242.995 81.8056 243C76.3118 243.006 71.6213 242.555 68.0157 241.402C66.628 240.959 65.5626 239.576 65.2669 237.837L55.674 225.089H106.26L98.1988 237.716Z" fill="url(#paint0_linear)"/>
<path d="M81.0111 228.119C95.0043 228.119 106.348 226.648 106.348 224.833C106.348 223.018 95.0043 221.547 81.0111 221.547C67.0178 221.547 55.674 223.018 55.674 224.833C55.674 226.648 67.0178 228.119 81.0111 228.119Z" fill="url(#paint1_linear)"/>
<path d="M71.9858 153.956L97.3699 152.677C97.3699 152.677 101.492 139.424 94.8076 130.554C81.1701 112.458 97.9826 101.785 104.355 96.2626C113.966 87.9339 117.865 77.602 105.502 71.6501C91.5137 64.9161 102.517 44.5608 119.977 33.345C137.064 22.3696 127.399 -14.3147 88.2348 6.04693C64.846 18.2067 69.876 43.3833 69.3913 56.7009C68.9066 70.0182 49.2276 72.1098 56.799 87.9672C63.2663 101.512 74.7367 111.048 66.8517 120.982C58.9664 130.916 58.6394 141.624 71.9858 153.956Z" fill="url(#paint2_linear)"/>
<path d="M83.0963 155.755C83.0198 155.431 75.4802 122.976 77.7136 88.5444C79.0264 68.3054 83.4087 51.3494 90.7387 38.1472C99.9141 21.6211 113.754 10.9666 131.873 6.47952L132 6.98911C91.285 17.0714 80.291 56.9226 78.2379 88.5785C76.0098 122.933 83.5314 155.311 83.6074 155.635L83.0963 155.755Z" fill="#BEB8F2"/>
<path d="M87.2033 45.2158C84.0889 27.5387 89.5857 1.97323 89.6416 1.71716L90.1552 1.82909C90.0993 2.08423 84.6243 27.5502 87.7207 45.1248L87.2033 45.2158Z" fill="#BEB8F2"/>
<path d="M93.6108 34.3672L93.311 33.9359C110.995 21.6486 128.352 26.2585 128.525 26.3072L128.385 26.8131C128.214 26.7658 111.085 22.2259 93.6108 34.3672Z" fill="#BEB8F2"/>
<path d="M78.0056 111.107L77.4889 111.011C82.2496 85.2269 116.738 77.0742 117.074 77.0571L117.101 77.5813L117.087 77.3192L117.116 77.5801C117.045 77.5903 108.375 79.5751 99.0187 84.9398C90.7628 89.6737 80.4148 98.0562 78.0056 111.107Z" fill="#BEB8F2"/>
<path d="M77.311 100.416C73.1758 84.5927 55.2123 74.4367 55.0317 74.3361L55.2872 73.8775C55.4704 73.9795 73.6282 84.2455 77.8194 100.283L77.311 100.416Z" fill="#BEB8F2"/>
<path d="M82.5363 150.511L82.0112 150.496C82.2955 140.342 95.7528 131.971 96.3254 131.62L96.6007 132.067C96.4625 132.152 82.8129 140.642 82.5363 150.511Z" fill="#BEB8F2"/>
<path d="M80.6623 142.864C79.0083 135.456 67.0895 127.572 63.1729 124.981C62.3946 124.466 62.0743 124.253 61.9707 124.148L62.3454 123.78C62.4196 123.853 62.9032 124.173 63.4627 124.544C67.4234 127.163 79.4747 135.135 81.175 142.75L80.6623 142.864Z" fill="#BEB8F2"/>
<path d="M64.4231 202.106C60.1795 209.603 62.9857 217.675 65.8609 223.187C66.6477 223.256 67.0874 223.511 67.8673 223.77C74.9055 226.098 78.3456 225.484 85.6023 226.605C87.1642 226.846 91.927 226.055 93.8518 225.597L97.4266 224.681C97.4266 224.681 105.139 206.234 95.8679 200.212C86.5967 194.191 91.8437 175.635 93.4935 165.416C97.9692 137.69 67.5855 137.775 70.4873 101.687C71.2591 92.0881 75.9428 74.0413 68.467 65.7392C59.9499 56.2807 52.52 64.277 47.1806 56.5122C38.8354 44.3763 24.1225 39.0707 14.2015 50.0568C4.40987 60.8994 13.2924 84.7883 38.5232 105.458C54.9431 122.336 54.8434 126.981 52.5362 138.126C50.9203 145.932 41.7219 165.862 51.7656 174.935C61.8088 184.007 69.274 193.536 64.4231 202.106Z" fill="url(#paint3_linear)"/>
<path d="M81.7831 226.589C81.6444 223.373 81.4665 220.147 81.2532 217C79.6674 193.591 75.9528 171.178 70.2109 150.383C65.3477 132.768 58.9657 116.065 51.2426 100.739C45.0339 88.4179 37.9277 76.9153 30.1214 66.5503C24.636 59.2662 18.8653 52.6175 12.9701 46.7877C11.9497 45.7788 10.844 44.7987 9.7754 43.8507C8.33436 42.5732 6.84415 41.252 5.52509 39.829L5.91213 39.4707C7.21357 40.8752 8.6938 42.1876 10.1253 43.4565C11.1997 44.409 12.3106 45.3938 13.3409 46.4128C19.2544 52.2604 25.0423 58.9288 30.5432 66.233C38.3681 76.6231 45.4908 88.1526 51.7139 100.501C59.4527 115.859 65.8472 132.594 70.7201 150.242C76.4709 171.071 80.1918 193.519 81.7794 216.963C81.9932 220.115 82.1715 223.345 82.3102 226.566L81.7831 226.589Z" fill="#FCFDFE"/>
<path d="M59.8845 119.81C51.7252 97.9902 63.5117 59.9897 63.6318 59.608L64.1353 59.7665C64.0156 60.1461 52.2832 97.9758 60.3784 119.626L59.8845 119.81Z" fill="#FCFDFE"/>
<path d="M77.2164 182.354C73.496 167.236 46.6438 153.531 46.3731 153.394L46.6106 152.923C46.8836 153.061 73.9506 166.875 77.7282 182.228L77.2164 182.354Z" fill="#FCFDFE"/>
<path d="M78.6062 191.252C77.9462 180.846 82.5878 166.342 91.6761 150.412C91.8743 150.065 92.0455 149.764 92.0696 149.708L92.2744 149.796L92.5814 149.781C92.586 149.881 92.586 149.881 92.1338 150.673C83.0961 166.515 78.4787 180.915 79.1329 191.219L78.6062 191.252Z" fill="#FCFDFE"/>
<path d="M81.4486 220.742C77.5972 210.314 61.8478 205.014 61.6889 204.962L61.8545 204.461C62.0154 204.514 78.0051 209.896 81.9435 220.56L81.4486 220.742Z" fill="#FCFDFE"/>
<path d="M82.5808 226.695L82.0774 226.538C84.8525 217.707 90.2475 209.391 98.571 201.116L98.9427 201.49C90.6819 209.703 85.3293 217.948 82.5808 226.695Z" fill="#FCFDFE"/>
<path d="M34.6298 72.7462C29.4345 60.9066 26.727 47.2843 25.837 42.8079C25.6818 42.0256 25.5587 41.4078 25.5218 41.3105L26.0135 41.119C26.0631 41.246 26.1403 41.6259 26.3546 42.705C27.2416 47.1676 29.941 60.7474 35.1133 72.5344L34.6298 72.7462Z" fill="#FCFDFE"/>
<path d="M45.875 90.6642C38.1287 81.6984 13.4847 79.9763 13.2363 79.9601L13.2713 79.4338C14.2926 79.5013 38.3836 81.1864 46.2741 90.3193L45.875 90.6642Z" fill="#FCFDFE"/>
<path d="M65.2106 223.111C65.3089 223.148 65.4075 223.186 65.5063 223.222C71.3514 225.41 78.1262 226.77 85.9687 226.696C87.4962 226.574 89.024 226.452 90.5518 226.33C91.6658 222.641 92.0645 218.933 87.3415 217.737C80.0071 215.881 79.2894 203.16 81.0829 198.573C83.3027 192.895 88.2 179.568 76.9066 176.52C67.5048 173.982 60.9188 174.264 59.7609 162.356C58.603 150.448 51.766 143.279 40.964 144.449C29.5964 145.681 19.603 130.916 10.4799 136.384C-5.41656 145.914 10.4465 171.59 30.5615 178.368C50.6765 185.147 39.6278 192.755 39.51 202.546C39.349 215.912 57.2686 212.295 62.2571 217.332C63.9465 219.037 64.8194 221.07 65.2106 223.111Z" fill="url(#paint4_linear)"/>
<path d="M76.4977 225.988C66.9925 187.96 39.0654 154.729 3.6149 139.263L3.82593 138.779C39.4232 154.31 67.4658 187.677 77.0098 225.86L76.4977 225.988Z" fill="#FCFDFE"/>
<path d="M69.5094 205.616C68.7865 189.924 81.6374 177.109 81.7671 176.981L82.137 177.358C82.0087 177.483 69.3243 190.138 70.0365 205.592L69.5094 205.616Z" fill="#FCFDFE"/>
<path d="M74.5495 219.01C66.6231 205.819 38.343 205.183 38.0583 205.178L38.0678 204.651C38.3553 204.656 66.9251 205.297 75.002 218.738L74.5495 219.01Z" fill="#FCFDFE"/>
<path d="M48.854 173.023C43.2795 161.646 49.9975 143.545 50.0662 143.363L50.5601 143.549C50.4924 143.729 43.8547 161.619 49.3283 172.791L48.854 173.023Z" fill="#FCFDFE"/>
<path d="M30.8493 155.665C18.6239 148.91 0.322577 153.81 0.140069 153.861L0 153.352C0.185986 153.301 18.6921 148.345 31.1049 155.204L30.8493 155.665Z" fill="#FCFDFE"/>
</g>
<g clip-path="url(#clip1)">
<path d="M120.837 243.013C131.083 243.013 139.389 239.608 139.389 235.408C139.389 231.209 131.083 227.804 120.837 227.804C110.59 227.804 102.284 231.209 102.284 235.408C102.284 239.608 110.59 243.013 120.837 243.013Z" fill="#B7C0CE"/>
<path d="M102.284 234.517C102.284 238.481 110.59 241.695 120.837 241.695C131.083 241.695 139.389 238.481 139.389 234.517C139.389 230.552 131.082 224.065 120.837 224.065C110.59 224.065 102.284 230.552 102.284 234.517Z" fill="#EBEFF2"/>
<path opacity="0.3" d="M102.284 234.517C102.284 230.552 110.59 224.065 120.837 224.065C125.568 224.065 129.882 225.45 133.159 227.329C133.389 227.811 133.496 228.291 133.452 228.747C133.24 230.977 129.617 232.349 127.538 232.801C122.302 233.94 119.745 230.795 115.428 230.915C112.759 230.989 109.06 232.336 104.673 238.04C103.155 236.999 102.284 235.797 102.284 234.517Z" fill="#EBEFF2"/>
<path d="M119.82 229.033C120.562 229.219 121.253 229.211 121.904 229.045C122.494 228.895 122.899 228.346 122.899 227.735V209.857H118.774V227.71C118.774 228.34 119.211 228.881 119.82 229.033Z" fill="#D8DEE8"/>
<path d="M142.635 204.633L136.332 200.632C136.07 199.137 135.987 146.416 123.926 141.506C119.022 139.509 106.207 141.922 103.31 142.052C97.5284 142.311 93.4039 142.496 91.4203 145.267C88.873 148.824 97.7946 186.957 96.9103 197.132C96.5495 201.282 95.632 203.124 96.7748 205.873C98.1437 209.166 101.318 210.991 103.786 212.018C106.736 213.739 111.874 216.191 118.659 216.788C130.087 217.794 138.62 212.87 141.554 210.987C142.859 210.573 143.839 209.484 144.116 208.138C144.397 206.774 143.807 205.378 142.635 204.633Z" fill="url(#paint5_linear)"/>
<path d="M102.04 142.888C97.7631 143.015 95.1055 142.965 93.6358 144.883C92.0929 146.896 98.3019 183.52 98.5908 190.687C98.8545 197.222 97.707 199.805 99.8098 203.426C99.8098 203.426 100.878 205.266 102.565 206.648C108.525 211.532 123.901 211.474 130.373 201.276C135.536 193.141 128.734 146.242 122.668 142.274C119.696 140.33 119.013 142.383 102.04 142.888Z" fill="url(#paint6_linear)"/>
<path d="M143.093 201.04L136.791 197.039C136.791 197.039 119.91 191.465 104.291 199.324C102.542 200.204 101.454 202.021 101.454 203.986C101.454 205.494 102.355 206.854 103.74 207.435C106.465 209.303 111.784 212.388 119.117 213.196C130.774 214.479 139.448 209.118 142.012 207.394C143.317 206.98 144.297 205.891 144.574 204.545C144.856 203.181 144.265 201.784 143.093 201.04Z" fill="url(#paint7_linear)"/>
<path d="M170.564 250.715L165.183 247.468H162.754C162.754 247.468 161.927 250.561 162.021 250.715C163.103 252.496 168.141 253.851 171.284 253.963C171.806 253.981 172.535 253.984 172.723 253.604C173.042 252.961 171.618 251.611 170.564 250.715Z" fill="url(#paint8_linear)"/>
<path d="M165.088 243.924C165.079 245.816 165.159 247.151 165.631 247.738C165.963 248.151 162.772 249.081 162.754 247.468C162.743 246.406 162.577 244.584 162.408 244.049C163.301 244.007 164.194 243.966 165.088 243.924Z" fill="url(#paint9_linear)"/>
<path d="M150.551 255.281L145.17 252.033H142.741C142.741 252.033 141.914 255.126 142.008 255.281C143.09 257.061 148.128 258.416 151.271 258.528C151.794 258.547 152.522 258.55 152.71 258.17C153.029 257.526 151.605 256.176 150.551 255.281Z" fill="url(#paint10_linear)"/>
<path d="M145.074 248.49C145.066 250.382 145.146 251.716 145.618 252.304C145.949 252.717 142.759 253.647 142.741 252.033C142.73 250.971 142.563 249.15 142.395 248.615C143.288 248.573 144.181 248.531 145.074 248.49Z" fill="url(#paint11_linear)"/>
<path d="M165.307 245.495C166.829 236.267 165.342 226.41 164.995 221.109C164.443 212.678 164.168 208.463 161.74 204.922C158.56 200.284 152.051 195.647 146.551 191.728C146.075 191.389 145.12 190.722 143.932 189.659C140.974 187.011 139.093 184.226 137.959 182.263C125.505 178.595 114.019 180.081 108.951 186.789C108.365 187.564 106.899 189.245 106.615 191.724C105.975 197.318 111.447 204.051 117.587 205.458C125.391 207.245 129.918 199.197 136.832 201.875C137.521 202.142 139.557 204.201 143.685 208.192C146.683 211.091 148.181 212.54 148.658 213.116C153.076 218.448 155.709 226.654 156.027 233.007C156.083 234.134 156.132 236.495 157.485 239.024C158.521 240.959 161.363 244.479 162.408 245.276C163.374 245.349 164.34 245.423 165.307 245.495Z" fill="url(#paint12_linear)"/>
<path d="M142 250.052C142 250.052 144.665 251.316 146.642 250.052C146.576 246.706 146.571 241.47 146.997 235.066C147.93 221.05 149.904 216.812 148.152 210.827C146.887 206.507 143.489 200.623 133.462 195.121L107.998 192.613C107.998 192.613 106.797 194.576 107.09 197.293C107.625 202.267 113.318 205.317 118.079 207.81C127.481 212.734 129.466 210.469 132.528 213.788C136.667 218.273 134.089 223.55 136.351 234.644C137.717 241.345 140.118 246.586 142 250.052Z" fill="url(#paint13_linear)"/>
<path d="M145.304 184.862C148.791 184.559 154.072 167.98 146.75 157.274C141.358 149.389 130.12 146.134 128.159 148.526C127.021 149.914 129.36 152.77 133.695 160.967C142.59 177.784 142.955 185.067 145.304 184.862Z" fill="url(#paint14_linear)"/>
<path d="M106.57 149.299C109.715 148.286 114.507 147.098 120.385 147.028C126.972 146.95 132.237 146.887 135.861 149.675C144.614 156.41 134.813 173.03 139.843 185.09C140.393 186.408 141.991 190.587 140.601 195.184C140.345 196.032 139.817 196.776 138.913 198.037C133.595 205.457 118.541 206.573 111.586 200.474C107.896 197.237 104.569 197.956 104.48 194.125C104.128 179 106.715 163.855 106.57 149.299Z" fill="url(#paint15_linear)"/>
<path opacity="0.3" d="M113.203 168.466C111.936 165.336 113.248 161.701 110.423 160.173C109.387 159.612 106.846 158.035 106.691 159.44C105.663 168.738 104.741 178.332 105.039 189.919C105.137 193.746 108.023 197.233 112.103 200.457C116.814 204.18 124.893 205.169 131.783 203.673C122.752 198.886 116.27 193.806 117.201 189.248C118.283 183.945 128.83 182.119 128.408 178.395C127.959 174.447 115.966 175.298 113.203 168.466Z" fill="url(#paint16_linear)"/>
<path d="M121.002 138.789C121.022 141.022 120.749 142.797 120.491 144.013C120.195 145.406 119.982 145.768 119.709 146.063C119.299 146.506 118.678 146.882 115.161 147.719C113.243 148.176 112.996 148.167 112.953 148.341C112.747 149.189 117.972 152 123.348 151.233C126.628 150.766 129.605 149.018 129.422 148.124C129.239 147.223 125.969 147.748 124.993 146.124C124.314 144.994 125.075 143.37 125.975 142.023C125.103 140.539 121.876 140.277 121.002 138.789Z" fill="url(#paint17_linear)"/>
<path d="M127.886 141.561C128.891 140.821 129.389 139.242 128.813 138.039C128.318 137.004 127.187 136.612 126.509 136.377C124.543 135.696 121.761 135.882 120.381 137.39C119.562 138.284 120.106 140.656 120.178 141.076C120.259 141.552 120.585 141.783 120.833 142.184C121.176 142.742 121.711 143.625 122.575 145.093C122.769 144.762 123.035 144.357 123.395 143.935C123.534 143.773 124.085 143.141 124.78 142.671C126.172 141.731 126.932 142.263 127.886 141.561Z" fill="url(#paint18_linear)"/>
<path d="M121.144 143.698C121.144 143.698 121.909 146.009 124.612 146.452C127.027 146.847 128.759 142.045 127.539 140.663C127.131 140.202 126.159 139.827 125.275 139.85C124.752 139.864 124.534 140.011 123.68 140.018C122.891 140.025 122.704 139.902 122.431 140.023C122.091 140.175 121.736 140.656 121.796 142.192C121.461 141.667 120.961 141.381 120.527 141.46C120.458 141.473 120.265 141.537 120.129 141.671C119.636 142.154 119.991 142.995 121.144 143.698Z" fill="url(#paint19_linear)"/>
<path d="M122.407 139.706C122.499 139.811 122.037 140.123 121.853 140.672C121.495 141.739 122.319 143.305 123.502 143.69C124.202 143.918 124.511 143.567 125.729 143.721C126.483 143.817 127.069 144.041 127.43 144.205C127.467 145.47 126.783 146.568 125.768 146.92C124.674 147.299 123.591 146.674 123.137 146.412C122.834 146.237 121.861 145.679 121.559 144.659C121.244 143.596 121.972 143.163 121.487 142.383C121.242 141.989 120.841 141.751 120.586 141.038C120.517 140.844 120.482 140.678 120.463 140.568C121.248 140.112 122.273 139.555 122.407 139.706Z" fill="url(#paint20_linear)"/>
<path d="M126.445 144.448C126.445 144.448 125.862 144.577 124.989 144.33C124.947 144.318 124.895 144.318 124.884 144.338C124.842 144.41 125.313 144.885 125.875 144.869C126.274 144.858 126.655 144.6 126.628 144.507C126.617 144.468 126.531 144.453 126.445 144.448Z" fill="url(#paint21_linear)"/>
<path d="M190.562 251.361C190.551 251.361 190.54 251.361 190.529 251.36C190.305 251.343 190.132 251.155 190.132 250.93V181.654C190.132 181.416 190.325 181.223 190.562 181.223C190.799 181.223 190.991 181.416 190.991 181.654V245.326L200.59 183.088C200.627 182.853 200.847 182.691 201.081 182.728C201.315 182.764 201.476 182.985 201.439 183.22L190.986 250.996C190.954 251.207 190.772 251.361 190.562 251.361Z" fill="#B7C0CE"/>
<path opacity="0.81" d="M74 190.377L188.677 181.508L245 186.503L164.421 198.33L74 190.377Z" fill="#F4F7FA"/>
<path d="M164.421 198.33L74 190.377V194.219L164.421 202.172L245 190.345V186.503L164.421 198.33Z" fill="#B7C0CE"/>
<path d="M163.64 275C163.427 275 163.244 274.841 163.215 274.626L153.274 200.917C153.243 200.681 153.407 200.464 153.642 200.432C153.878 200.399 154.094 200.565 154.126 200.801L163.211 268.169V200.859C163.211 200.621 163.403 200.428 163.641 200.428C163.878 200.428 164.07 200.621 164.07 200.859V274.568C164.07 274.795 163.895 274.984 163.669 274.999C163.66 274.999 163.65 275 163.64 275Z" fill="#B7C0CE"/>
<path d="M243.739 259.377C243.526 259.377 243.343 259.219 243.314 259.004L234.101 191.288C234.068 191.052 234.233 190.835 234.468 190.803C234.702 190.769 234.92 190.936 234.952 191.172L243.31 252.602V188.549C243.31 188.311 243.502 188.118 243.74 188.118C243.977 188.118 244.169 188.311 244.169 188.549V258.946C244.169 259.173 243.994 259.361 243.769 259.376C243.759 259.377 243.749 259.377 243.739 259.377Z" fill="#B7C0CE"/>
<path d="M75.0864 261.451C75.076 261.451 75.0653 261.45 75.0546 261.45C74.8302 261.433 74.6563 261.245 74.6563 261.019V194.219C74.6563 193.98 74.8488 193.787 75.0861 193.787C75.3233 193.787 75.5155 193.98 75.5155 194.219V255.121L84.4435 194.156C84.4778 193.92 84.6962 193.755 84.9309 193.792C85.1656 193.826 85.3279 194.045 85.2932 194.281L75.5108 261.082C75.4799 261.295 75.2975 261.451 75.0864 261.451Z" fill="#B7C0CE"/>
<path d="M115.951 189.07C116.66 188.274 117.37 187.478 118.079 186.681C112.553 179.399 108.167 176.243 105.062 174.738C102.934 173.708 103.021 173.042 102.934 172.79C102.407 171.275 108.199 164.624 109.712 162.607C112.496 158.894 115.132 152.559 113.082 150.016C110.948 147.368 104.149 149.342 100.545 151.099C97.3579 152.653 95.2524 154.722 94.1588 155.958C90.7684 159.79 84.244 170.104 88.4133 179.396C92.2857 188.027 104.159 193.042 115.951 189.07Z" fill="url(#paint22_linear)"/>
<path d="M131.542 189.005V188.019L173.779 185.733V186.709L143.932 189.659L131.542 189.005Z" fill="url(#paint23_linear)"/>
<path d="M131.542 188.019L144.644 188.186L173.779 185.733L165.633 185.232L131.542 188.019Z" fill="url(#paint24_linear)"/>
<path d="M137.143 184.62L149.022 147.291C149.209 146.702 149.877 146.276 150.634 146.262L202.646 145.304C203.089 145.295 203.858 145.621 204.128 145.902C204.397 146.182 204.765 146.234 204.664 146.597L194.966 179.446C194.805 179.993 194.226 180.417 193.552 180.479L138.096 185.583L137.143 184.62Z" fill="url(#paint25_linear)"/>
<path d="M138.096 185.583L150.142 148.001C150.33 147.414 150.996 146.989 151.75 146.975L203.652 145.983C204.095 145.975 204.508 146.133 204.777 146.413C205.046 146.694 205.144 147.067 205.043 147.43L195.974 180.056C195.818 180.617 195.223 181.052 194.534 181.107L138.096 185.583Z" fill="url(#paint26_linear)"/>
<path opacity="0.3" d="M138.096 185.583L194.534 181.106C195.223 181.052 195.818 180.617 195.974 180.055L198.712 170.206C181.511 176.246 161.074 175.583 140.81 177.115L138.096 185.583Z" fill="url(#paint27_linear)"/>
<path d="M171.266 191.871L169.126 192.613C169.126 192.613 157.871 190.49 157.381 190.143C157.303 190.088 157.033 189.563 157.536 189.476C160.192 189.017 169.889 188.679 169.889 188.679L170.777 188.729L171.266 191.871Z" fill="url(#paint28_linear)"/>
<path d="M171.42 191.21L169.28 191.951C169.28 191.951 158.026 189.823 157.536 189.476C157.046 189.129 170.043 188.019 170.043 188.019L170.931 188.072L171.42 191.21Z" fill="url(#paint29_linear)"/>
<path d="M180.726 165.247C180.726 165.247 186.188 188.847 186.35 190.229C186.499 191.503 173.072 192.753 169.856 192.864C169.587 192.873 169.234 192.687 169.126 192.613C168.236 192.51 172.4 165.587 172.4 165.587L172.707 165.598L180.726 165.247Z" fill="url(#paint30_linear)"/>
<path d="M180.726 165.247C180.726 165.247 186.937 189.086 187.098 190.467C187.259 191.846 171.296 192.899 169.9 192.853C169.011 192.75 172.707 165.599 172.707 165.599L180.726 165.247Z" fill="url(#paint31_linear)"/>
<path d="M118.079 188.019C118.079 188.019 121.623 186.391 123.668 186.536C125.714 186.681 128.593 188.551 129.094 189.659C129.594 190.767 122.171 190.646 122.171 190.646C122.171 190.646 113.323 190.3 118.079 188.019Z" fill="url(#paint32_linear)"/>
<path d="M116.243 186.116C118.22 183.591 122.935 185.133 123.201 185.224C124.328 185.609 125.839 186.389 125.733 186.887C125.631 187.37 124.112 187.118 121.606 187.544C117.938 188.166 116.311 189.532 115.662 188.837C115.166 188.305 115.593 186.944 116.243 186.116Z" fill="url(#paint33_linear)"/>
</g>
<defs>
<linearGradient id="paint0_linear" x1="67.5673" y1="226.672" x2="116.933" y2="243.278" gradientUnits="userSpaceOnUse">
<stop stop-color="#AB316D"/>
<stop offset="1" stop-color="#792D3D"/>
</linearGradient>
<linearGradient id="paint1_linear" x1="55.674" y1="224.833" x2="106.348" y2="224.833" gradientUnits="userSpaceOnUse">
<stop stop-color="#FFC444"/>
<stop offset="0.9964" stop-color="#F36F56"/>
</linearGradient>
<linearGradient id="paint2_linear" x1="109.453" y1="4.05849" x2="66.2251" y2="150.143" gradientUnits="userSpaceOnUse">
<stop stop-color="#AA80F9"/>
<stop offset="0.9964" stop-color="#6165D7"/>
</linearGradient>
<linearGradient id="paint3_linear" x1="84.0718" y1="170.409" x2="-25.4374" y2="1.20716" gradientUnits="userSpaceOnUse">
<stop stop-color="#FFC444"/>
<stop offset="0.9964" stop-color="#F36F56"/>
</linearGradient>
<linearGradient id="paint4_linear" x1="25.34" y1="140.918" x2="86.1542" y2="230.586" gradientUnits="userSpaceOnUse">
<stop offset="0.0036" stop-color="#E38DDD"/>
<stop offset="1" stop-color="#9571F6"/>
</linearGradient>
<linearGradient id="paint5_linear" x1="86.6111" y1="217.787" x2="100.294" y2="200.034" gradientUnits="userSpaceOnUse">
<stop offset="0.0036" stop-color="#E38DDD"/>
<stop offset="1" stop-color="#9571F6"/>
</linearGradient>
<linearGradient id="paint6_linear" x1="117.079" y1="187.151" x2="97.8273" y2="136.34" gradientUnits="userSpaceOnUse">
<stop offset="0.0036" stop-color="#E38DDD"/>
<stop offset="1" stop-color="#9571F6"/>
</linearGradient>
<linearGradient id="paint7_linear" x1="123.036" y1="202.797" x2="123.185" y2="215.46" gradientUnits="userSpaceOnUse">
<stop offset="0.0036" stop-color="#E38DDD"/>
<stop offset="1" stop-color="#9571F6"/>
</linearGradient>
<linearGradient id="paint8_linear" x1="172.768" y1="250.718" x2="162.014" y2="250.718" gradientUnits="userSpaceOnUse">
<stop stop-color="#311944"/>
<stop offset="1" stop-color="#6B3976"/>
</linearGradient>
<linearGradient id="paint9_linear" x1="165.358" y1="250.105" x2="156.387" y2="223.308" gradientUnits="userSpaceOnUse">
<stop stop-color="#FFC444"/>
<stop offset="0.9964" stop-color="#F36F56"/>
</linearGradient>
<linearGradient id="paint10_linear" x1="152.755" y1="255.284" x2="142.001" y2="255.284" gradientUnits="userSpaceOnUse">
<stop stop-color="#311944"/>
<stop offset="1" stop-color="#6B3976"/>
</linearGradient>
<linearGradient id="paint11_linear" x1="145.345" y1="254.67" x2="136.374" y2="227.874" gradientUnits="userSpaceOnUse">
<stop stop-color="#FFC444"/>
<stop offset="0.9964" stop-color="#F36F56"/>
</linearGradient>
<linearGradient id="paint12_linear" x1="120.366" y1="210.151" x2="157.89" y2="214.161" gradientUnits="userSpaceOnUse">
<stop offset="0.0036" stop-color="#26264F"/>
<stop offset="1" stop-color="#444B8C"/>
</linearGradient>
<linearGradient id="paint13_linear" x1="115.499" y1="220.349" x2="141.891" y2="223.169" gradientUnits="userSpaceOnUse">
<stop offset="0.0036" stop-color="#26264F"/>
<stop offset="1" stop-color="#444B8C"/>
</linearGradient>
<linearGradient id="paint14_linear" x1="141.026" y1="162.927" x2="154.972" y2="201.115" gradientUnits="userSpaceOnUse">
<stop stop-color="#311944"/>
<stop offset="1" stop-color="#893976"/>
</linearGradient>
<linearGradient id="paint15_linear" x1="134.333" y1="141.243" x2="119.434" y2="183.852" gradientUnits="userSpaceOnUse">
<stop stop-color="#311944"/>
<stop offset="1" stop-color="#893976"/>
</linearGradient>
<linearGradient id="paint16_linear" x1="111.882" y1="190.813" x2="129.792" y2="168.234" gradientUnits="userSpaceOnUse">
<stop stop-color="#311944"/>
<stop offset="1" stop-color="#893976"/>
</linearGradient>
<linearGradient id="paint17_linear" x1="117.244" y1="156.583" x2="127.183" y2="135.981" gradientUnits="userSpaceOnUse">
<stop stop-color="#FFC444"/>
<stop offset="0.9964" stop-color="#F36F56"/>
</linearGradient>
<linearGradient id="paint18_linear" x1="116.699" y1="149.898" x2="126.1" y2="136.957" gradientUnits="userSpaceOnUse">
<stop stop-color="#311944"/>
<stop offset="1" stop-color="#6B3976"/>
</linearGradient>
<linearGradient id="paint19_linear" x1="124.244" y1="140.733" x2="119.978" y2="161.448" gradientUnits="userSpaceOnUse">
<stop stop-color="#FFC444"/>
<stop offset="0.9964" stop-color="#F36F56"/>
</linearGradient>
<linearGradient id="paint20_linear" x1="118.327" y1="150.743" x2="127.39" y2="138.267" gradientUnits="userSpaceOnUse">
<stop stop-color="#311944"/>
<stop offset="1" stop-color="#6B3976"/>
</linearGradient>
<linearGradient id="paint21_linear" x1="126.076" y1="143.587" x2="125.066" y2="146.236" gradientUnits="userSpaceOnUse">
<stop stop-color="#FFC444"/>
<stop offset="1" stop-color="#F36F56"/>
</linearGradient>
<linearGradient id="paint22_linear" x1="117.416" y1="135.327" x2="102.517" y2="177.937" gradientUnits="userSpaceOnUse">
<stop stop-color="#311944"/>
<stop offset="1" stop-color="#893976"/>
</linearGradient>
<linearGradient id="paint23_linear" x1="150.736" y1="196.171" x2="151.551" y2="192.472" gradientUnits="userSpaceOnUse">
<stop offset="0.0036" stop-color="#26264F"/>
<stop offset="1" stop-color="#444B8C"/>
</linearGradient>
<linearGradient id="paint24_linear" x1="131.542" y1="186.709" x2="173.779" y2="186.709" gradientUnits="userSpaceOnUse">
<stop offset="0.0036" stop-color="#26264F"/>
<stop offset="1" stop-color="#444B8C"/>
</linearGradient>
<linearGradient id="paint25_linear" x1="173.13" y1="170.826" x2="168.852" y2="160.685" gradientUnits="userSpaceOnUse">
<stop offset="0.0036" stop-color="#26264F"/>
<stop offset="1" stop-color="#444B8C"/>
</linearGradient>
<linearGradient id="paint26_linear" x1="138.096" y1="165.783" x2="205.081" y2="165.783" gradientUnits="userSpaceOnUse">
<stop offset="0.0036" stop-color="#26264F"/>
<stop offset="1" stop-color="#444B8C"/>
</linearGradient>
<linearGradient id="paint27_linear" x1="138.096" y1="177.895" x2="198.712" y2="177.895" gradientUnits="userSpaceOnUse">
<stop offset="0.0036" stop-color="#26264F"/>
<stop offset="1" stop-color="#444B8C"/>
</linearGradient>
<linearGradient id="paint28_linear" x1="163.824" y1="189.324" x2="167.604" y2="191.004" gradientUnits="userSpaceOnUse">
<stop stop-color="#444B8C"/>
<stop offset="0.9964" stop-color="#26264F"/>
</linearGradient>
<linearGradient id="paint29_linear" x1="157.522" y1="189.985" x2="171.42" y2="189.985" gradientUnits="userSpaceOnUse">
<stop offset="0.0036" stop-color="#26264F"/>
<stop offset="1" stop-color="#444B8C"/>
</linearGradient>
<linearGradient id="paint30_linear" x1="169.001" y1="179.056" x2="186.351" y2="179.056" gradientUnits="userSpaceOnUse">
<stop stop-color="#444B8C"/>
<stop offset="0.9964" stop-color="#26264F"/>
</linearGradient>
<linearGradient id="paint31_linear" x1="169.762" y1="179.051" x2="187.099" y2="179.051" gradientUnits="userSpaceOnUse">
<stop offset="0.0036" stop-color="#26264F"/>
<stop offset="1" stop-color="#444B8C"/>
</linearGradient>
<linearGradient id="paint32_linear" x1="116.674" y1="188.588" x2="129.118" y2="188.588" gradientUnits="userSpaceOnUse">
<stop offset="0.0036" stop-color="#26264F"/>
<stop offset="1" stop-color="#444B8C"/>
</linearGradient>
<linearGradient id="paint33_linear" x1="119.734" y1="184.61" x2="122.149" y2="192.902" gradientUnits="userSpaceOnUse">
<stop stop-color="#FFC444"/>
<stop offset="0.9964" stop-color="#F36F56"/>
</linearGradient>
<clipPath id="clip0">
<rect width="132" height="243" fill="white"/>
</clipPath>
<clipPath id="clip1">
<rect width="171" height="139" fill="white" transform="translate(74 136)"/>
</clipPath>
</defs>
</svg>
