<svg width="310" height="256" viewBox="0 0 310 256" fill="none" xmlns="http://www.w3.org/2000/svg">
<path opacity="0.19" d="M111.538 194.775C97.1534 195.386 81.1537 196.651 62.2421 203.137C57.9518 204.609 17.9973 219.325 19.2447 227.781C20.1663 234.028 41.208 231.277 74.1763 240.347C108.945 249.913 115.323 254.861 135.721 255.63C159.137 256.513 160.374 246.359 190.598 243.552C207.703 241.963 213.383 244.651 229.748 246.632C236.384 247.436 240.011 247.636 250.591 248.197C298.792 250.753 307.447 253.171 309.129 249.382C311.962 243.002 291.768 226.346 272.914 216.609C256.522 208.143 242.545 205.64 215.712 200.814C169.602 192.521 135.41 193.763 111.538 194.775Z" fill="#6165D7"/>
<path opacity="0.32" d="M218.89 210.266C96.8412 179.455 89.9028 185.802 87.9219 189.025C84.3088 194.902 88.342 205.596 95.7766 215.317C89.2303 213.949 82.8472 213.841 77.5076 215.9C66.4555 220.164 52.2667 216.728 51.9422 219.898C51.5802 223.437 67.4659 229.474 76.396 229.668C95.84 230.09 117.239 235.718 128.136 237.489C151.65 243.539 178.206 236.129 190.199 233.868C211.661 229.822 220.221 224.515 242.469 224.446C260.315 224.391 273.444 227.654 273.696 226.502C274.185 224.274 225.069 211.826 218.89 210.266Z" fill="#6165D7"/>
<path d="M72.4399 153.079H98.0587C98.0587 153.079 102.881 139.952 96.603 130.688C83.7935 111.786 101.261 101.899 107.957 96.6646C118.055 88.7706 122.504 78.5714 110.361 71.9553C96.622 64.4695 108.733 44.5441 126.88 34.1433C144.639 23.9653 136.773 -13.4398 96.3121 5.06355C72.149 16.1139 75.9335 41.7039 74.7691 55.0805C73.6046 68.4571 53.6878 69.564 60.504 85.9049C66.3265 99.8632 77.3892 110.041 68.9466 119.637C60.5037 129.234 59.6304 139.993 72.4399 153.079Z" fill="url(#paint0_linear)"/>
<path d="M83.5181 155.456C83.4575 155.126 77.5158 122.083 81.5139 87.5449C83.8641 67.2431 89.1381 50.4006 97.1889 37.4851C107.268 21.3165 121.745 11.2943 140.218 7.69684L140.325 8.24602C98.8348 16.3256 85.7451 55.8634 82.07 87.6094C78.0817 122.065 84.0086 155.026 84.0687 155.355L83.5181 155.456Z" fill="#BEB8F2"/>
<path d="M93.2685 44.4288C91.0312 26.4793 97.8645 1.02904 97.9336 0.773956L98.4741 0.92001C98.405 1.17435 91.6005 26.5203 93.8241 44.359L93.2685 44.4288Z" fill="#BEB8F2"/>
<path d="M100.294 33.8474L99.9968 33.373C118.43 21.9016 135.675 27.4235 135.847 27.4805L135.671 28.0114C135.501 27.9549 118.494 22.5205 100.294 33.8474Z" fill="#BEB8F2"/>
<path d="M80.6913 110.269L80.1465 110.14C86.2514 84.4256 121.397 77.9681 121.736 77.9681L121.753 78.5268C121.41 78.5595 86.7291 84.8377 80.6913 110.269Z" fill="#BEB8F2"/>
<path d="M80.5053 99.4758C77.1484 83.349 59.5867 72.2221 59.4097 72.1116L59.7061 71.6369C59.8851 71.7487 77.6479 83.0036 81.0538 99.3617L80.5053 99.4758Z" fill="#BEB8F2"/>
<path d="M83.2508 150.149L82.692 150.105C83.4959 139.894 97.4746 132.148 98.0698 131.824L98.3382 132.314C98.1954 132.393 84.0305 140.24 83.2508 150.149Z" fill="#BEB8F2"/>
<path d="M81.7231 142.36C80.4355 134.828 68.8417 126.293 65.0324 123.489C64.2728 122.93 63.9606 122.698 63.861 122.586L64.2796 122.214C64.3517 122.293 64.8214 122.638 65.3644 123.038C69.219 125.876 80.9495 134.512 82.2749 142.266L81.7231 142.36Z" fill="#BEB8F2"/>
<path d="M128.494 112.445C128.494 112.445 111.286 82.6806 88.0127 133.298C69.8907 172.712 81.6033 216.561 123.528 228.593C165.452 240.625 230.934 216.325 210.38 199.2C166.781 162.873 133.692 130.675 128.494 112.445Z" fill="url(#paint1_linear)"/>
<g opacity="0.35">
<path opacity="0.35" d="M108.513 139.267C107.367 142.898 105.398 153.068 105.915 164.878C106.376 175.415 105.418 180.923 122.2 188.586C127.952 191.213 131.93 199.548 140.737 204.507C144.729 206.755 159.771 214.888 179.196 211.601C192.049 209.427 201.619 203.13 208.064 197.262C165.617 161.732 133.599 130.35 128.494 112.445C128.494 112.445 122.206 101.578 112.094 104.151C114.547 106.882 117.246 111.027 118.042 116.598C119.169 124.483 112.275 127.354 108.513 139.267Z" fill="url(#paint2_linear)"/>
</g>
<g opacity="0.13">
<path opacity="0.13" d="M190.63 216.62C170.803 227.556 137.689 234.231 113.018 215.928C90.1746 198.98 88.1394 170.598 87.378 161.937C86.0471 146.799 89.0079 133.618 93.2769 122.985C91.5614 125.981 89.8053 129.399 88.0127 133.297C69.8907 172.712 81.6033 216.561 123.528 228.593C164.795 240.436 228.885 217.078 211.284 200.011C206.282 205.647 199.533 211.71 190.63 216.62Z" fill="url(#paint3_linear)"/>
</g>
<path d="M159.394 219.929C158.807 219.929 158.215 219.923 157.619 219.909C142.292 219.567 120.773 214.482 105.301 192.198C92.2319 173.375 93.9804 152.135 97.7482 137.631C101.825 121.939 109.084 110.533 109.157 110.42C109.256 110.264 109.462 110.22 109.617 110.319C109.772 110.419 109.817 110.625 109.718 110.779C109.646 110.891 102.437 122.223 98.3886 137.817C94.6602 152.18 92.9276 173.209 105.848 191.818C121.155 213.864 142.446 218.9 157.611 219.243C174.091 219.612 187.08 214.696 187.21 214.646C187.381 214.581 187.575 214.666 187.641 214.838C187.707 215.009 187.621 215.202 187.449 215.268C187.324 215.316 175.133 219.929 159.394 219.929Z" fill="#FFA6A4"/>
<path d="M241.626 217.053C240.533 215.877 238.575 210.819 242.146 209.78C245.737 208.735 247.733 207.412 252.678 203.452C257.623 199.493 258.893 202.893 251.908 209.323C244.924 215.754 243.18 218.723 241.626 217.053Z" fill="url(#paint4_linear)"/>
<path d="M236.947 209.666L239.888 212.231C240.503 212.767 241.397 212.836 242.086 212.401C242.407 212.198 242.613 211.855 242.64 211.476C242.668 211.097 242.514 210.728 242.225 210.481L237.925 206.806L236.947 209.666Z" fill="url(#paint5_linear)"/>
<path d="M148.845 184.963C143.647 189.51 154.496 204.425 171.827 199.591C192.829 193.733 219.539 196.365 237.544 211.009C238.588 210.08 241.175 208.624 239.992 207.429C223.727 191 208.662 181.568 196.184 179.038C177.319 175.212 163.643 172.013 148.845 184.963Z" fill="url(#paint6_linear)"/>
<g opacity="0.24">
<path opacity="0.24" d="M209.774 191.21C212.821 192.98 213.471 189.383 215.042 187.017C208.296 182.879 201.96 180.209 196.184 179.038C177.319 175.212 163.643 172.013 148.845 184.963C143.647 189.511 154.496 204.425 171.827 199.591C178.095 197.843 184.875 196.87 191.777 196.728C197.328 193.241 201.871 185.239 209.774 191.21Z" fill="#552D63"/>
</g>
<path d="M145.777 200.499L144.71 200.906C144.71 200.906 137.809 194.398 136.58 192.739C135.079 190.716 151.977 185.556 157.465 178.806C163.23 171.712 158.675 187.227 158.675 187.227L145.777 200.499Z" fill="url(#paint7_linear)"/>
<path d="M139.519 136.647C139.519 136.647 145.645 137.486 152.363 149.385C157.413 158.331 168.379 165.742 168.379 165.742L169.505 172.781L160.404 174.379L157.148 172.237L148.267 153.363L139.519 136.647Z" fill="url(#paint8_linear)"/>
<path d="M127.641 135.888C127.641 135.888 112.539 137.749 112.215 155.106C111.916 171.124 117.701 177.33 131.898 190.686C133.325 192.029 135.64 192.029 135.812 192.222C136.734 193.261 137.669 194.344 138.613 195.476C151.319 183.297 165.645 179.172 165.645 179.172C165.645 179.172 152.396 151.793 146.574 142.717C140.571 133.36 131.518 134.958 127.641 135.888Z" fill="url(#paint9_linear)"/>
<g opacity="0.2">
<path opacity="0.2" d="M152.713 176.323C146.338 179.73 137.303 179.344 133.981 175.128C131.479 171.953 131.073 170.77 128.027 165.783C125.577 161.772 124.384 161.129 119.03 157.752C117.01 156.477 114.717 154.632 112.468 151.867C112.326 152.883 112.236 153.958 112.215 155.106C111.915 171.123 117.701 177.329 131.897 190.685C133.325 192.028 135.64 192.029 135.811 192.222C136.734 193.261 137.669 194.343 138.613 195.476C151.319 183.296 165.645 179.172 165.645 179.172C165.645 179.172 163.446 174.866 160.534 168.81C158.421 172.346 156.802 174.137 152.713 176.323Z" fill="url(#paint10_linear)"/>
</g>
<path d="M142.3 176.832C142.3 176.832 145.162 176.964 147.195 176.146C149.228 175.328 149.06 175.14 151.4 174.844C153.674 174.555 158.153 173.207 155.617 170.903C152.795 168.338 147.956 169.057 146.566 170.76C145.226 172.401 142.903 173.443 142.903 173.443L142.3 176.832Z" fill="url(#paint11_linear)"/>
<path d="M116.774 144.54C116.774 144.54 108.387 145.516 113.281 172.494C115.819 186.486 128.366 184.516 143.517 178.734C144.543 176.591 143.223 172.049 143.223 172.049C143.223 172.049 124.399 179.801 123.912 168.491C123.366 155.811 121.667 143.2 116.774 144.54Z" fill="url(#paint12_linear)"/>
<path d="M131.155 141.658C127.554 141.658 123.9 138.997 123.725 138.868C123.651 138.813 123.635 138.709 123.689 138.635C123.745 138.561 123.848 138.547 123.923 138.6C123.97 138.636 128.756 142.115 132.62 141.152C133.685 140.887 134.414 140.368 134.786 139.609C135.496 138.163 134.691 136.297 134.683 136.278C134.645 136.194 134.684 136.096 134.768 136.059C134.851 136.023 134.95 136.06 134.987 136.145C135.023 136.226 135.864 138.168 135.086 139.754C134.668 140.606 133.866 141.185 132.7 141.476C132.193 141.603 131.674 141.658 131.155 141.658Z" fill="#9F73F8"/>
<path d="M136.491 191.698C136.446 191.698 136.4 191.68 136.368 191.643C136.305 191.575 136.311 191.47 136.38 191.408C136.515 191.286 150.04 179.193 162.252 176.211C162.34 176.191 162.431 176.244 162.453 176.333C162.475 176.422 162.42 176.512 162.33 176.534C150.199 179.497 136.737 191.534 136.602 191.655C136.571 191.684 136.531 191.698 136.491 191.698Z" fill="#AE87F9"/>
<path d="M123.624 125.397C123.624 125.397 125.766 134.051 125.338 135.821C124.909 137.591 127.444 139.515 131.887 139.712C136.33 139.91 131.409 130.822 131.409 130.822L123.624 125.397Z" fill="url(#paint13_linear)"/>
<path d="M138.735 116.975C141.502 112.407 137.985 105.833 132.238 108.112C128.317 109.667 125.831 108.567 123.236 109.524C118.614 111.228 119.116 114.51 120.183 117.849C121.111 124.47 121.075 127.081 128.166 130.951C130.87 121.577 135.359 122.547 138.735 116.975Z" fill="url(#paint14_linear)"/>
<path d="M124.484 128.581C124.484 128.581 127.337 133.297 133.056 132.947C138.774 132.597 137.147 119.471 135.709 118.725C134.042 117.86 131.706 118.971 127.905 118.368C126.305 118.114 124.828 116.245 124.146 118.389C123.37 120.828 123.946 124.521 123.946 124.521C123.946 124.521 122.183 122.996 121.29 124.615C120.569 125.922 121.76 127.6 124.484 128.581Z" fill="url(#paint15_linear)"/>
<path d="M124.067 115.579C124.067 115.579 123.793 123.407 125.736 125.833C126.618 127.356 125.472 127.39 124.507 126.266C123.541 125.143 122.496 121.552 122.496 121.552L124.067 115.579Z" fill="url(#paint16_linear)"/>
<path d="M125.243 109.714C125.225 109.715 125.213 109.716 125.206 109.716C125.12 109.721 125.046 109.655 125.041 109.568C125.037 109.482 125.102 109.409 125.188 109.404C125.19 109.403 125.191 109.403 125.199 109.403C125.457 109.388 130.446 109.053 131.525 106.979C131.564 106.902 131.658 106.873 131.736 106.912C131.813 106.952 131.842 107.046 131.803 107.123C130.657 109.325 125.76 109.682 125.243 109.714Z" fill="url(#paint17_linear)"/>
<path d="M144.312 180.458C144.174 180.478 144.047 180.577 144.013 180.708C144.007 180.727 144.061 181.411 144.06 181.431C144.046 181.59 144.144 181.738 144.296 181.787L157.137 185.953L181.134 176.566L169.732 177.437L144.312 180.458Z" fill="#26264F"/>
<path d="M144.306 180.365C144.148 180.388 144.026 180.517 144.013 180.676C143.999 180.835 144.097 180.982 144.249 181.031L157.09 185.198L181.088 175.81L169.686 176.681L144.306 180.365Z" fill="#444B8C"/>
<path d="M156.522 185.011L158.435 160.005C158.466 159.605 158.768 159.277 159.166 159.215L187.904 154.722C188.161 154.682 188.423 154.759 188.617 154.933C188.811 155.107 188.917 155.358 188.905 155.618L187.826 178.925C187.807 179.327 187.514 179.663 187.117 179.737L157.262 185.258L156.522 185.011Z" fill="url(#paint18_linear)"/>
<path d="M157.137 185.953L159.109 160.397C159.14 159.996 159.443 159.669 159.84 159.607L188.579 155.114C188.836 155.074 189.098 155.152 189.292 155.325C189.486 155.499 189.591 155.75 189.579 156.01L188.5 179.32C188.482 179.721 188.19 180.056 187.796 180.131L157.137 185.953Z" fill="#26264F"/>
<path d="M157.137 185.953L187.796 180.131C188.191 180.057 188.482 179.721 188.501 179.32L188.826 172.29C179.693 177.471 168.247 178.13 157.58 180.209L157.137 185.953Z" fill="#1F1F44"/>
<path d="M209.065 180.715C208.646 179.261 207.72 177.655 211.027 176.482C213.427 175.632 217.597 175.358 221.386 175.164C226.697 174.892 227.918 178.066 220.157 180.085C215.075 181.407 209.662 182.782 209.065 180.715Z" fill="url(#paint19_linear)"/>
<path d="M213.203 178.489C213.253 179.303 212.735 179.941 212.058 180.038C210.486 180.262 210.781 179.454 210.731 178.641C210.681 177.827 210.046 177.262 211.877 177.092C212.558 177.029 213.154 177.676 213.203 178.489Z" fill="url(#paint20_linear)"/>
<path d="M197.079 173.811L198.63 173.567C198.63 173.567 201.652 173.849 209.979 176.142C211.761 176.438 214.192 181.635 208.969 181.839C203.745 182.043 197.388 185.928 197.388 185.928L197.079 173.811Z" fill="url(#paint21_linear)"/>
<path d="M142.846 197.991C142.846 197.991 143.607 204.735 159.306 204.121C175.005 203.507 203.051 187.228 202.874 178.686C202.698 170.144 192.261 173.556 181.456 178.494C172.335 182.661 158.247 185.075 155.36 185.523C151.663 186.095 141.953 194.751 142.846 197.991Z" fill="url(#paint22_linear)"/>
<g opacity="0.2">
<path opacity="0.2" d="M163.388 189.539C170.654 188.8 172.286 183.591 181.329 182.085C187.188 181.109 189.258 182.837 192.245 180.839C194.603 179.261 195.806 176.511 196.386 173.524C192.378 173.863 186.97 175.974 181.455 178.494C172.597 182.542 159.052 184.935 155.636 185.479C155.535 185.495 153.244 184.677 153.244 184.677C153.244 184.677 151.539 185.65 150.317 186.419C155.08 188.969 160.733 189.809 163.388 189.539Z" fill="url(#paint23_linear)"/>
</g>
<path d="M62.3799 201.149C57.7271 208.478 60.1422 216.743 62.7563 222.436C63.5449 222.545 63.9745 222.824 64.7464 223.124C71.7136 225.824 79.1945 227.183 86.4426 228.679C88.0027 229.001 89.5337 229.076 91.1167 229.28L92.7301 229.445C92.7301 229.445 103.158 207.368 94.1309 200.838C85.1037 194.308 91.3285 175.902 93.5085 165.702C99.4229 138.029 68.8314 136.574 73.5861 100.405C74.8507 90.7857 80.4827 72.8628 73.3785 64.1293C65.2852 54.1793 57.3992 61.849 52.4186 53.7647C44.6342 41.1291 30.0925 35.044 19.547 45.5961C9.13907 56.0105 16.8671 80.5002 41.2167 102.58C56.8889 120.396 56.5524 125.066 53.6637 136.163C51.6402 143.937 41.368 163.526 51.0178 173.165C60.6679 182.804 67.699 192.771 62.3799 201.149Z" fill="url(#paint24_linear)"/>
<path d="M79.1595 226.67L78.5967 226.666C78.621 223.442 78.6052 220.186 78.5504 216.99C78.1433 193.353 75.5425 170.611 70.8198 149.397C66.8195 131.426 61.2433 114.296 54.2478 98.4818C48.6229 85.7684 42.054 73.8335 34.7233 63.0091C29.5735 55.4042 24.1025 48.4213 18.4625 42.2544C17.4871 41.1878 16.4245 40.1462 15.397 39.1386C14.0105 37.7794 12.5769 36.3739 11.321 34.8741L11.7527 34.5135C12.9907 35.9925 14.4141 37.388 15.7908 38.7377C16.8238 39.7508 17.8919 40.7977 18.8779 41.8758C24.5361 48.0627 30.0237 55.0671 35.1892 62.6947C42.5385 73.5464 49.1236 85.5106 54.7621 98.2552C61.7729 114.102 67.3605 131.268 71.3684 149.275C76.0996 170.526 78.7051 193.306 79.113 216.98C79.1683 220.181 79.1838 223.442 79.1595 226.67Z" fill="#FCFDFE"/>
<path d="M61.9772 118.11C54.871 95.7337 68.6687 58.0864 68.8089 57.7088L69.3364 57.9044C69.1967 58.2803 55.4656 95.7479 62.5137 117.94L61.9772 118.11Z" fill="#FCFDFE"/>
<path d="M76.247 181.924C73.2714 166.529 46.9424 151.38 46.6765 151.228L46.9549 150.74C47.2228 150.892 73.7747 166.169 76.7998 181.817L76.247 181.924Z" fill="#FCFDFE"/>
<path d="M77.1941 190.946C77.0584 180.44 82.4686 166.077 92.4282 150.505C92.645 150.165 92.8328 149.872 92.8598 149.816L93.0741 149.922H93.4008C93.4008 150.027 93.4008 150.027 92.9016 150.807C83.0004 166.288 77.622 180.54 77.7567 190.939L77.1941 190.946Z" fill="#FCFDFE"/>
<path d="M78.558 220.77C75.2143 210.092 59.634 203.959 59.4773 203.898L59.6801 203.374C59.8396 203.436 75.6697 209.665 79.0947 220.602L78.558 220.77Z" fill="#FCFDFE"/>
<path d="M79.4244 226.82L78.8969 226.624C82.1398 217.876 87.9952 209.78 96.7963 201.872L97.1726 202.291C88.4403 210.135 82.6351 218.159 79.4244 226.82Z" fill="#FCFDFE"/>
<path d="M38.9462 69.4692C34.3149 57.2865 32.282 43.4393 31.6137 38.889C31.4978 38.0979 31.4059 37.4735 31.3741 37.3727L31.9077 37.1959C31.9515 37.3274 32.0096 37.7128 32.1701 38.8074C32.8363 43.343 34.8627 57.1437 39.472 69.2697L38.9462 69.4692Z" fill="#FCFDFE"/>
<path d="M49.3577 88.0748C42.0179 78.6628 17.3043 75.6825 17.0552 75.6538L17.1208 75.0956C18.146 75.2149 42.3181 78.1334 49.8013 87.7292L49.3577 88.0748Z" fill="#FCFDFE"/>
<path d="M62.1058 222.326C62.2032 222.368 62.2981 222.415 62.398 222.453C69.4067 225.154 76.8461 226.512 84.0942 228.008C85.0707 228.21 86.0534 228.379 87.04 228.528C88.349 224.872 89.3514 219.483 84.6578 218.041C77.3686 215.8 77.2925 202.963 79.331 198.438C81.8542 192.837 87.4614 179.675 76.247 176.035C66.9113 173.004 60.2669 172.954 59.7061 160.912C59.1452 148.871 52.6272 141.31 41.6932 141.94C30.1871 142.603 20.877 127.238 11.4149 132.278C-5.07195 141.062 9.5925 167.704 29.4976 175.545C49.4027 183.386 37.8936 190.482 37.2775 200.328C36.4365 213.77 54.6594 211.04 59.4254 216.361C61.04 218.163 61.8154 220.252 62.1058 222.326Z" fill="url(#paint25_linear)"/>
<path d="M73.3072 225.797C65.6705 187.052 39.2481 152.199 4.35083 134.84L4.60195 134.337C39.6515 151.772 66.1893 186.776 73.8587 225.688L73.3072 225.797Z" fill="#FCFDFE"/>
<path d="M67.8695 204.942L67.3066 204.94C67.3767 189.104 80.9691 176.857 81.1068 176.735L81.4801 177.155C81.3449 177.275 67.9381 189.362 67.8695 204.942Z" fill="#FCFDFE"/>
<path d="M71.7018 218.681C64.3949 205.009 35.9678 202.938 35.6814 202.918L35.7197 202.358C36.0086 202.378 64.7459 204.473 72.1981 218.415L71.7018 218.681Z" fill="#FCFDFE"/>
<path d="M48.17 171.099C43.1346 159.362 50.8194 141.481 50.8975 141.302L51.413 141.527C51.3359 141.704 43.748 159.364 48.6875 170.878L48.17 171.099Z" fill="#FCFDFE"/>
<path d="M30.9337 152.727C18.9733 145.311 0.308201 149.314 0.121177 149.355L0 148.806C0.189026 148.764 19.0787 144.716 31.2302 152.249L30.9337 152.727Z" fill="#FCFDFE"/>
<path d="M94.514 229.437C94.5135 229.437 94.6997 230.346 94.6992 230.346C78.9344 230.235 59.8543 222.646 59.6693 222.57C59.5321 222.514 59.8568 221.533 59.9131 221.396C59.9694 221.258 60.1267 221.192 60.2631 221.249C60.4474 221.325 78.8566 228.791 94.5157 228.901C94.6642 228.902 94.7834 229.023 94.7824 229.171C94.7814 229.318 94.6612 229.437 94.514 229.437Z" fill="#5A2F71"/>
<defs>
<linearGradient id="paint0_linear" x1="117.777" y1="4.13963" x2="66.8775" y2="148.965" gradientUnits="userSpaceOnUse">
<stop stop-color="#AA80F9"/>
<stop offset="0.9964" stop-color="#6165D7"/>
</linearGradient>
<linearGradient id="paint1_linear" x1="112.649" y1="121.281" x2="214.6" y2="339.315" gradientUnits="userSpaceOnUse">
<stop stop-color="#FF9085"/>
<stop offset="1" stop-color="#FB6FBB"/>
</linearGradient>
<linearGradient id="paint2_linear" x1="124.374" y1="115.799" x2="226.325" y2="333.832" gradientUnits="userSpaceOnUse">
<stop stop-color="#FF9085"/>
<stop offset="1" stop-color="#FB6FBB"/>
</linearGradient>
<linearGradient id="paint3_linear" x1="112.649" y1="121.282" x2="214.6" y2="339.316" gradientUnits="userSpaceOnUse">
<stop stop-color="#FF9085"/>
<stop offset="1" stop-color="#FB6FBB"/>
</linearGradient>
<linearGradient id="paint4_linear" x1="240.866" y1="216.408" x2="254.779" y2="200.411" gradientUnits="userSpaceOnUse">
<stop stop-color="#40447E"/>
<stop offset="0.9964" stop-color="#3C3B6B"/>
</linearGradient>
<linearGradient id="paint5_linear" x1="203.801" y1="164.819" x2="356.131" y2="357.81" gradientUnits="userSpaceOnUse">
<stop stop-color="#FFC444"/>
<stop offset="0.9964" stop-color="#F36F56"/>
</linearGradient>
<linearGradient id="paint6_linear" x1="143.472" y1="173.304" x2="251.526" y2="222.538" gradientUnits="userSpaceOnUse">
<stop stop-color="#311944"/>
<stop offset="1" stop-color="#6B3976"/>
</linearGradient>
<linearGradient id="paint7_linear" x1="105.355" y1="200.611" x2="199.194" y2="177.139" gradientUnits="userSpaceOnUse">
<stop stop-color="#311944"/>
<stop offset="1" stop-color="#893976"/>
</linearGradient>
<linearGradient id="paint8_linear" x1="184.495" y1="212.721" x2="156.563" y2="156.386" gradientUnits="userSpaceOnUse">
<stop stop-color="#AA80F9"/>
<stop offset="0.9964" stop-color="#6165D7"/>
</linearGradient>
<linearGradient id="paint9_linear" x1="144.503" y1="188.321" x2="131.67" y2="148.414" gradientUnits="userSpaceOnUse">
<stop stop-color="#AA80F9"/>
<stop offset="0.9964" stop-color="#6165D7"/>
</linearGradient>
<linearGradient id="paint10_linear" x1="144.503" y1="188.321" x2="131.67" y2="148.414" gradientUnits="userSpaceOnUse">
<stop stop-color="#AA80F9"/>
<stop offset="0.9964" stop-color="#6165D7"/>
</linearGradient>
<linearGradient id="paint11_linear" x1="140.75" y1="175.39" x2="189.764" y2="159.107" gradientUnits="userSpaceOnUse">
<stop stop-color="#FFC444"/>
<stop offset="0.9964" stop-color="#F36F56"/>
</linearGradient>
<linearGradient id="paint12_linear" x1="135.173" y1="194.051" x2="121.671" y2="152.062" gradientUnits="userSpaceOnUse">
<stop offset="0.2828" stop-color="#AA80F9"/>
<stop offset="0.9964" stop-color="#6165D7"/>
</linearGradient>
<linearGradient id="paint13_linear" x1="129.015" y1="145.506" x2="128.397" y2="119.308" gradientUnits="userSpaceOnUse">
<stop stop-color="#FFC444"/>
<stop offset="0.9964" stop-color="#F36F56"/>
</linearGradient>
<linearGradient id="paint14_linear" x1="123.012" y1="136.944" x2="131.136" y2="108.438" gradientUnits="userSpaceOnUse">
<stop stop-color="#311944"/>
<stop offset="1" stop-color="#6B3976"/>
</linearGradient>
<linearGradient id="paint15_linear" x1="128.832" y1="119.953" x2="131.285" y2="170.305" gradientUnits="userSpaceOnUse">
<stop stop-color="#FFC444"/>
<stop offset="0.9964" stop-color="#F36F56"/>
</linearGradient>
<linearGradient id="paint16_linear" x1="119.309" y1="136.537" x2="129.73" y2="108.658" gradientUnits="userSpaceOnUse">
<stop stop-color="#311944"/>
<stop offset="1" stop-color="#6B3976"/>
</linearGradient>
<linearGradient id="paint17_linear" x1="120.471" y1="136.169" x2="128.539" y2="107.862" gradientUnits="userSpaceOnUse">
<stop stop-color="#311944"/>
<stop offset="1" stop-color="#6B3976"/>
</linearGradient>
<linearGradient id="paint18_linear" x1="155.665" y1="171.022" x2="189.726" y2="168.935" gradientUnits="userSpaceOnUse">
<stop stop-color="#40447E"/>
<stop offset="0.9964" stop-color="#3C3B6B"/>
</linearGradient>
<linearGradient id="paint19_linear" x1="209.171" y1="180.993" x2="224.867" y2="174.603" gradientUnits="userSpaceOnUse">
<stop stop-color="#40447E"/>
<stop offset="0.9964" stop-color="#3C3B6B"/>
</linearGradient>
<linearGradient id="paint20_linear" x1="205.931" y1="173.237" x2="386.974" y2="339.652" gradientUnits="userSpaceOnUse">
<stop stop-color="#FFC444"/>
<stop offset="0.9964" stop-color="#F36F56"/>
</linearGradient>
<linearGradient id="paint21_linear" x1="135.961" y1="189.641" x2="213.534" y2="177.242" gradientUnits="userSpaceOnUse">
<stop stop-color="#311944"/>
<stop offset="1" stop-color="#6B3976"/>
</linearGradient>
<linearGradient id="paint22_linear" x1="106.89" y1="206.747" x2="200.73" y2="183.275" gradientUnits="userSpaceOnUse">
<stop stop-color="#311944"/>
<stop offset="1" stop-color="#893976"/>
</linearGradient>
<linearGradient id="paint23_linear" x1="139.994" y1="192.318" x2="196.666" y2="176.511" gradientUnits="userSpaceOnUse">
<stop stop-color="#311944"/>
<stop offset="1" stop-color="#6B3976"/>
</linearGradient>
<linearGradient id="paint24_linear" x1="84.6851" y1="171.83" x2="-18.2189" y2="-6.30717" gradientUnits="userSpaceOnUse">
<stop stop-color="#FFC444"/>
<stop offset="0.9964" stop-color="#F36F56"/>
</linearGradient>
<linearGradient id="paint25_linear" x1="26.2098" y1="137.699" x2="83.4164" y2="231.981" gradientUnits="userSpaceOnUse">
<stop offset="0.0036" stop-color="#E38DDD"/>
<stop offset="1" stop-color="#9571F6"/>
</linearGradient>
</defs>
</svg>
