<svg width="124" height="110" viewBox="0 0 124 110" fill="none" xmlns="http://www.w3.org/2000/svg">
<path d="M0.00442834 80.8735C-0.0934179 85.6311 1.43185 89.7547 4.41729 92.803C8.76053 97.2402 14.8857 97.8194 17.9451 98H110.568C116.233 96.3301 119.044 92.3914 120.439 89.6024C126.279 77.9147 121.204 70.3248 114.503 62.3035C112.644 60.0806 111.585 57.6312 111.35 55.0273C111.236 53.7819 112.313 50.3679 114.102 47.2695L120.313 36.4703C124.51 29.1677 121.986 19.8099 114.692 15.6077L111.966 14.0358C109.65 12.7033 107.02 12 104.361 12C98.9101 12 93.8358 14.9351 91.1179 19.6596L81.0935 37.0951C78.4821 41.6304 78.4803 48.2165 81.0912 52.7541L96.5598 79.6586C97.1473 80.6752 97.2998 81.8597 96.9951 82.994C96.6904 84.124 95.9636 85.071 94.9453 85.6566L93.7093 86.3686C93.0282 86.7627 91.5856 87.0327 90.4908 86.9979C89.8077 86.976 89.1353 86.961 88.5064 86.961L87.9778 86.9653C87.684 86.9653 87.1028 86.7304 86.7636 86.3515C86.561 86.1252 86.3804 85.8768 86.2281 85.609L69.1863 55.9722C68.5271 54.8292 68.5271 52.3146 69.1863 51.1714L77.642 36.4705C81.8392 29.1679 79.3175 19.8102 72.0215 15.6079L69.2953 14.036C66.9822 12.7036 64.3513 12.0002 61.6903 12.0002C56.2373 12.0002 51.163 14.9354 48.4451 19.6599L38.4184 37.0976C35.8116 41.6327 35.8116 48.2167 38.4184 52.7566L53.8893 79.6609C54.4725 80.6754 54.627 81.8599 54.3223 82.9922C54.0153 84.1265 53.2888 85.0714 52.2703 85.657C52.2703 85.657 51.5696 86.0621 50.8647 86.4671C50.0901 86.9134 48.5341 87.2836 47.3898 87.2923C46.2454 87.3009 44.8005 87.0573 44.3022 86.5694C44.0063 86.282 43.7474 85.9489 43.5342 85.5767L24.9734 53.8452L34.9653 36.4705C39.1627 29.1679 36.6431 19.8079 29.3472 15.6079L26.6207 14.036C24.3053 12.7036 21.6769 12.0002 19.0157 12.0002C13.5627 12.0002 8.48838 14.9351 5.77076 19.6599L3.24018 24.0645C0.855463 28.2034 1.05116 34.4981 3.7037 39.0288L12.3965 53.8907L4.65235 67.3573C3.58583 69.2034 0.110921 75.6415 0.00442834 80.8735ZM100.548 25.0877C101.329 23.7268 102.789 22.8842 104.36 22.8842C105.131 22.8842 105.864 23.0825 106.538 23.47L109.265 25.042C111.365 26.2503 112.089 28.9413 110.881 31.0404L104.674 41.8353C103.572 43.747 100.013 50.4223 100.515 56.0071C100.948 60.7928 102.9 65.3846 106.155 69.284C112.616 77.0154 113.338 79.4692 110.707 84.7338C110.246 85.6568 108.999 86.3904 107.178 86.8738C107.298 86.5298 107.404 86.1794 107.5 85.8223C108.56 81.8813 108.022 77.764 105.99 74.2282L90.5211 47.3237C89.8619 46.1805 89.8619 43.6702 90.5211 42.525L100.548 25.0877ZM47.8446 47.3262C47.1875 46.181 47.1854 43.6684 47.8446 42.5254L57.8714 25.0877C58.6526 23.7268 60.1125 22.8842 61.6858 22.8842C62.4538 22.8842 63.1872 23.0825 63.8639 23.47L66.5902 25.042C68.69 26.2503 69.4145 28.9413 68.2067 31.0404L59.7512 45.7393C57.1421 50.2766 57.1421 56.8627 59.7512 61.4003L74.5128 87.0723L64.3989 87.155C64.56 86.7219 64.7015 86.2775 64.821 85.8269C65.8829 81.8861 65.3475 77.7688 63.3153 74.2307L47.8446 47.3262ZM32.0015 87.4141L19.1723 87.5163C17.5078 87.5077 13.9739 87.0111 12.1874 85.1866C11.6022 84.588 10.8296 83.5145 10.8774 81.1001C10.9122 79.4999 12.318 75.8464 14.0781 72.7829L18.7217 64.7097L32.0015 87.4141ZM23.9158 25.042C26.0133 26.2503 26.7378 28.9413 25.5302 31.0404L18.6412 43.022L13.086 33.5293C12.3114 32.2032 12.3483 30.0891 12.6639 29.4926L15.1968 25.088C16.3609 23.0629 19.1329 22.2878 21.1893 23.4702L23.9158 25.042Z" fill="#996CD2"/>
<path d="M0.00442834 80.8735C-0.0934179 85.6311 1.43185 89.7547 4.41729 92.803C8.76053 97.2402 14.8857 97.8194 17.9451 98H110.568C116.233 96.3301 119.044 92.3914 120.439 89.6024C126.279 77.9147 121.204 70.3248 114.503 62.3035C112.644 60.0806 111.585 57.6312 111.35 55.0273C111.236 53.7819 112.313 50.3679 114.102 47.2695L120.313 36.4703C124.51 29.1677 121.986 19.8099 114.692 15.6077L111.966 14.0358C109.65 12.7033 107.02 12 104.361 12C98.9101 12 93.8358 14.9351 91.1179 19.6596L81.0935 37.0951C78.4821 41.6304 78.4803 48.2165 81.0912 52.7541L96.5598 79.6586C97.1473 80.6752 97.2998 81.8597 96.9951 82.994C96.6904 84.124 95.9636 85.071 94.9453 85.6566L93.7093 86.3686C93.0282 86.7627 91.5856 87.0327 90.4908 86.9979C89.8077 86.976 89.1353 86.961 88.5064 86.961L87.9778 86.9653C87.684 86.9653 87.1028 86.7304 86.7636 86.3515C86.561 86.1252 86.3804 85.8768 86.2281 85.609L69.1863 55.9722C68.5271 54.8292 68.5271 52.3146 69.1863 51.1714L77.642 36.4705C81.8392 29.1679 79.3175 19.8102 72.0215 15.6079L69.2953 14.036C66.9822 12.7036 64.3513 12.0002 61.6903 12.0002C56.2373 12.0002 51.163 14.9354 48.4451 19.6599L38.4184 37.0976C35.8116 41.6327 35.8116 48.2167 38.4184 52.7566L53.8893 79.6609C54.4725 80.6754 54.627 81.8599 54.3223 82.9922C54.0153 84.1265 53.2888 85.0714 52.2703 85.657C52.2703 85.657 51.5696 86.0621 50.8647 86.4671C50.0901 86.9134 48.5341 87.2836 47.3898 87.2923C46.2454 87.3009 44.8005 87.0573 44.3022 86.5694C44.0063 86.282 43.7474 85.9489 43.5342 85.5767L24.9734 53.8452L34.9653 36.4705C39.1627 29.1679 36.6431 19.8079 29.3472 15.6079L26.6207 14.036C24.3053 12.7036 21.6769 12.0002 19.0157 12.0002C13.5627 12.0002 8.48838 14.9351 5.77076 19.6599L3.24018 24.0645C0.855463 28.2034 1.05116 34.4981 3.7037 39.0288L12.3965 53.8907L4.65235 67.3573C3.58583 69.2034 0.110921 75.6415 0.00442834 80.8735ZM114.652 33.1436C115.414 31.8154 115.816 30.3088 115.816 28.789C115.816 27.3368 115.453 25.8956 114.766 24.6153L116.683 23.5832C117.542 25.177 117.995 26.9775 117.995 28.7867C117.995 30.6852 117.494 32.5664 116.541 34.2232L116.03 35.1158L114.143 34.0315L114.652 33.1436ZM116.546 87.5837C115.318 90.0421 113.018 91.8187 109.713 92.8659L109.054 90.7909C111.779 89.9287 113.643 88.5223 114.598 86.6106C115.055 85.6982 115.434 84.8057 115.723 83.9653L117.779 84.6709C117.462 85.6047 117.046 86.5846 116.546 87.5837ZM116.928 73.1485L114.989 74.1372C113.682 71.5702 111.576 68.9117 109.493 66.4208C109.195 66.0638 108.914 65.7045 108.651 65.3475L110.403 64.054C110.64 64.3762 110.892 64.6986 111.164 65.023C113.327 67.6139 115.523 70.3901 116.928 73.1485ZM107 54.5114L104.824 54.4219C104.961 51.0842 106.861 46.6905 108.442 43.9428L108.638 43.6031L110.525 44.6917L110.329 45.0314C108.754 47.7638 107.113 51.7548 107 54.5114ZM104.354 16.2849C104.356 16.2849 104.356 16.2849 104.358 16.2849C105.35 16.2849 106.338 16.4199 107.298 16.6899L106.708 18.7867C105.945 18.5711 105.155 18.4622 104.361 18.4622C104.358 18.4622 104.358 18.4622 104.356 18.4622C101.839 18.4622 99.4449 19.5444 97.7892 21.432L96.1529 19.9948C98.22 17.6371 101.21 16.2849 104.354 16.2849ZM100.548 25.0877C101.329 23.7268 102.789 22.8842 104.36 22.8842C105.131 22.8842 105.864 23.0825 106.538 23.47L109.265 25.042C111.365 26.2503 112.089 28.9413 110.881 31.0404L104.674 41.8353C103.572 43.747 100.013 50.4223 100.515 56.0071C100.948 60.7928 102.9 65.3846 106.155 69.284C112.616 77.0154 113.338 79.4692 110.707 84.7338C110.246 85.6568 108.999 86.3904 107.178 86.8738C107.298 86.5298 107.404 86.1794 107.5 85.8223C108.56 81.8813 108.022 77.764 105.99 74.2282L90.5211 47.3237C89.8619 46.1805 89.8619 43.6702 90.5211 42.525L100.548 25.0877ZM84.8637 39.1985L90.3625 29.6315L92.2489 30.718L86.5979 40.5571L84.6635 39.5598L84.8637 39.1985ZM90.7477 60.7491L85.2447 51.1801L87.1313 50.0938L92.6343 59.6628L90.7477 60.7491ZM96.2485 70.3182L98.1351 69.2319L102.217 76.3318C102.743 77.2508 103.137 78.2369 103.379 79.2604L101.262 79.7631C101.066 78.9425 100.754 78.1543 100.328 77.4161L96.2485 70.3182ZM90.319 91.2985C91.9205 91.2985 94.3598 90.7083 95.7588 89.9637C96.925 89.3431 98.0914 88.7096 98.2612 88.5726L99.6299 90.2643C99.4164 90.4364 98.0675 91.168 96.7161 91.8843C95.0907 92.7463 92.3469 93.4301 90.5973 93.4301H87.4291L87.4118 91.2987C87.4139 91.2985 88.7152 91.2985 90.319 91.2985ZM59.7557 86.8415L57.8256 85.8335C58.4805 84.5814 58.8244 83.1771 58.8221 81.7684C58.8221 80.2485 58.4195 78.7419 57.6579 77.4138L57.077 76.4079L58.9636 75.3216L59.5446 76.3298C60.4955 77.9887 60.9981 79.8678 60.9981 81.7686C61.0004 83.5254 60.5717 85.2802 59.7557 86.8415ZM65.3675 93.6084L65.3502 91.4312L76.3821 91.3417L76.3994 93.5189L65.3675 93.6084ZM75.9968 76.4842L81.4999 86.0532L79.6133 87.1395L74.1102 77.5705L75.9968 76.4842ZM70.4963 66.9174L68.6097 68.0037L63.5244 59.1596C63.3699 58.8896 63.2263 58.6045 63.098 58.3083L65.089 57.4308C65.1869 57.6551 65.2956 57.8707 65.411 58.0752L70.4963 66.9174ZM66.0311 47.8511L64.1447 46.7648L69.6455 37.1957L71.5321 38.2822L66.0311 47.8511ZM68.1591 18.3404L69.8455 19.3115C72.8373 21.0337 74.8022 23.9905 75.2355 27.422L73.0769 27.6941C72.7308 24.9441 71.1575 22.5775 68.7642 21.1993L67.0778 20.2261L68.1591 18.3404ZM52.2138 21.7608C53.2603 19.9406 54.7988 18.4709 56.6549 17.5107L57.6536 19.4463C56.1675 20.2127 54.938 21.3885 54.1002 22.8473L51.3956 27.5524L49.5089 26.4659L52.2138 21.7608ZM44.0714 40.285C43.3904 41.4715 42.9988 43.1372 42.9988 44.8572C42.9988 45.4952 43.0509 46.1286 43.1553 46.7383L41.01 47.104C40.886 46.3745 40.8227 45.617 40.8227 44.857C40.8227 42.7363 41.3081 40.729 42.1848 39.2005L44.0038 36.037L45.8905 37.1213L44.0714 40.285ZM51.5762 66.8411L46.0734 57.2721L47.96 56.1858L53.4631 65.7528L51.5762 66.8411ZM47.8446 47.3262C47.1875 46.181 47.1854 43.6684 47.8446 42.5254L57.8714 25.0877C58.6526 23.7268 60.1125 22.8842 61.6858 22.8842C62.4538 22.8842 63.1872 23.0825 63.8639 23.47L66.5902 25.042C68.69 26.2503 69.4145 28.9413 68.2067 31.0404L59.7512 45.7393C57.1421 50.2766 57.1421 56.8627 59.7512 61.4003L74.5128 87.0723L64.3989 87.155C64.56 86.7219 64.7015 86.2775 64.821 85.8269C65.8829 81.8861 65.3475 77.7688 63.3153 74.2307L47.8446 47.3262ZM30.0498 21.7063C31.7253 23.6767 32.6457 26.1916 32.6457 28.7867C32.6457 30.3218 32.3281 31.8109 31.7014 33.2153L29.7126 32.3291C30.2132 31.2034 30.4699 30.0126 30.4699 28.7867C30.4699 26.7075 29.7322 24.6934 28.3919 23.1194L30.0498 21.7063ZM21.2373 93.961L21.2198 91.7839L32.2518 91.6946L32.2693 93.8718L21.2373 93.961ZM40.8687 89.2167C41.3581 89.759 41.9108 90.2336 42.5093 90.632C43.508 91.2962 46.6566 91.5812 49.3808 91.5596L54.318 91.5202L54.3355 93.6974C54.3355 93.6974 51.9833 93.6974 49.0807 93.6974C46.1758 93.6974 42.6618 93.2488 41.38 92.4214C40.5726 91.8989 39.8156 91.298 39.254 90.6753L40.8687 89.2167ZM29.6862 70.4575L35.2589 79.9831L33.3812 81.0826L27.8064 71.557L29.6862 70.4575ZM32.0015 87.4141L19.1723 87.5163C17.5078 87.5077 13.9739 87.0111 12.1874 85.1866C11.6022 84.588 10.8296 83.5145 10.8774 81.1001C10.9122 79.4999 12.318 75.8464 14.0781 72.7829L18.7217 64.7097L32.0015 87.4141ZM16.6633 52.5016L18.5411 51.4021L24.1158 60.9276L22.2381 62.0271L16.6633 52.5016ZM20.6932 52.4777L18.8066 51.3914L24.3097 41.8223L26.1963 42.9089L20.6932 52.4777ZM23.9158 25.042C26.0133 26.2503 26.7378 28.9413 25.5302 31.0404L18.6412 43.022L13.086 33.5293C12.3114 32.2032 12.3483 30.0891 12.6639 29.4926L15.1968 25.088C16.3609 23.0629 19.1329 22.2878 21.1893 23.4702L23.9158 25.042ZM19.7075 16.3067L19.5639 18.4795C16.2326 18.2596 13.0751 19.9841 11.4258 22.8473L9.48687 21.8523C11.6022 18.1792 15.5536 16.0412 19.7075 16.3067ZM11.0886 42.974L7.45258 36.7579C6.78677 35.6146 6.3146 34.2367 6.08387 32.767L8.23375 32.4316C8.4208 33.6335 8.80172 34.7503 9.33031 35.6604L12.9663 41.8745L11.0886 42.974ZM8.41875 69.4605L13.3061 60.9627L15.1927 62.049L10.3076 70.5424C10.1229 70.8648 9.92467 71.2216 9.72466 71.5984L7.80323 70.5709C8.01622 70.1765 8.22283 69.8045 8.41875 69.4605ZM11.1082 89.7393L9.9984 91.612C6.37991 89.4717 4.42594 85.9815 4.35199 81.5225L6.52781 81.4856C6.5888 85.2019 8.13136 87.9781 11.1082 89.7393Z" fill="#4E4055"/>
</svg>
