<svg width="69" height="147" viewBox="0 0 69 147" fill="none" xmlns="http://www.w3.org/2000/svg">
<path d="M16.8548 31.8787L22.3972 44.125L28.3333 35.1171L16.8548 31.8787Z" fill="#9082FF"/>
<path d="M68.9069 0L48.8661 43.9338C48.6764 44.3501 48.4044 44.724 48.0664 45.033C47.7284 45.342 47.3313 45.5798 46.899 45.7322C46.4666 45.8846 46.0078 45.9484 45.5502 45.9199C45.0925 45.8913 44.6453 45.7709 44.2354 45.566L0.755867 23.8367C0.512146 23.7151 0.310455 23.5238 0.176552 23.2871C0.0426559 23.0504 -0.017334 22.7793 0.00437927 22.5085C0.0260849 22.2376 0.128441 21.9794 0.298332 21.7669C0.468231 21.5545 0.697906 21.3975 0.957893 21.3161L68.9069 0Z" fill="#9082FF"/>
<path d="M28.0328 37.4672L22.3972 44.125L23.8631 35.4064L28.0328 37.4672Z" fill="#826AB3"/>
<path d="M56.8222 146.331C56.9264 146.331 57.0284 146.301 57.1148 146.243C57.2013 146.185 57.2682 146.102 57.3068 146.006C57.3454 145.909 57.3539 145.803 57.3312 145.702C57.3085 145.6 57.2557 145.508 57.1796 145.437L55.2838 143.666C55.2353 143.614 55.1766 143.573 55.1115 143.544C55.0463 143.516 54.976 143.502 54.905 143.502C54.834 143.502 54.7638 143.517 54.6987 143.545C54.6336 143.573 54.575 143.615 54.5266 143.666C54.4782 143.718 54.441 143.779 54.4173 143.846C54.3936 143.913 54.3839 143.984 54.3889 144.054C54.3938 144.125 54.4133 144.194 54.4461 144.257C54.4788 144.32 54.5242 144.375 54.5794 144.42C55.2475 145.045 55.8795 145.633 56.47 146.186C56.5647 146.277 56.6907 146.329 56.8222 146.331ZM53.0358 142.798C53.14 142.798 53.2419 142.768 53.3284 142.71C53.4148 142.652 53.4817 142.569 53.5203 142.473C53.5589 142.376 53.5674 142.27 53.5447 142.169C53.5221 142.067 53.4692 141.975 53.3932 141.904C52.7854 141.336 52.1604 140.744 51.5181 140.127C51.4173 140.045 51.2887 140.003 51.1582 140.01C51.0277 140.018 50.9049 140.074 50.8144 140.168C50.724 140.263 50.6726 140.387 50.6705 140.518C50.6684 140.648 50.7159 140.774 50.8033 140.871C51.449 141.488 52.0775 142.082 52.6887 142.653C52.7835 142.744 52.9094 142.796 53.041 142.798H53.0358ZM49.296 139.213C49.3984 139.213 49.4984 139.182 49.5833 139.125C49.6683 139.068 49.7343 138.987 49.7732 138.892C49.812 138.798 49.8218 138.694 49.8014 138.594C49.781 138.494 49.7313 138.402 49.6585 138.33C49.0577 137.741 48.4499 137.133 47.8352 136.507C47.7876 136.458 47.7309 136.42 47.6683 136.393C47.6057 136.366 47.5384 136.352 47.4704 136.352C47.4023 136.351 47.3348 136.363 47.2716 136.389C47.2084 136.414 47.1509 136.452 47.1023 136.499C47.0536 136.547 47.0149 136.603 46.9881 136.665C46.9614 136.728 46.9473 136.795 46.9466 136.863C46.9459 136.931 46.9586 136.998 46.9839 137.061C47.0093 137.124 47.0469 137.181 47.0945 137.23C47.7127 137.86 48.3239 138.473 48.9282 139.069C48.9776 139.116 49.036 139.153 49.1001 139.178C49.1641 139.203 49.2324 139.215 49.3011 139.213H49.296ZM45.6701 135.515C45.7707 135.515 45.8691 135.485 45.9532 135.43C46.0372 135.375 46.1034 135.296 46.1435 135.204C46.1836 135.112 46.1959 135.011 46.179 134.912C46.1621 134.813 46.1166 134.721 46.0482 134.647C45.4681 134.031 44.8862 133.399 44.3026 132.752C44.2092 132.658 44.0832 132.603 43.9506 132.599C43.8179 132.595 43.6888 132.642 43.5899 132.73C43.4909 132.818 43.4296 132.941 43.4186 133.073C43.4076 133.205 43.4478 133.336 43.5308 133.439C44.1179 134.093 44.7049 134.73 45.2919 135.35C45.3408 135.402 45.4002 135.444 45.4662 135.473C45.5321 135.501 45.6033 135.516 45.6752 135.515H45.6701ZM42.2151 131.667C42.3141 131.667 42.4111 131.639 42.4945 131.586C42.5778 131.532 42.6442 131.456 42.6856 131.367C42.7271 131.277 42.7418 131.177 42.7282 131.08C42.7146 130.982 42.6731 130.89 42.6088 130.815C42.0442 130.154 41.4951 129.487 40.9668 128.837C40.9251 128.781 40.8727 128.735 40.8127 128.7C40.7527 128.666 40.6863 128.643 40.6175 128.634C40.5486 128.626 40.4787 128.631 40.412 128.65C40.3452 128.669 40.2829 128.701 40.2287 128.744C40.1746 128.787 40.1297 128.841 40.0968 128.902C40.0638 128.963 40.0435 129.029 40.037 129.098C40.0304 129.167 40.0378 129.237 40.0588 129.303C40.0797 129.369 40.1137 129.43 40.1587 129.482C40.6767 130.143 41.2517 130.82 41.8214 131.486C41.8706 131.544 41.9318 131.59 42.0008 131.621C42.0697 131.652 42.1446 131.668 42.2203 131.667H42.2151ZM38.9725 127.633C39.0687 127.633 39.163 127.607 39.2449 127.556C39.3267 127.506 39.3928 127.434 39.4359 127.348C39.4789 127.262 39.4971 127.166 39.4884 127.07C39.4798 126.975 39.4447 126.884 39.3869 126.807C38.869 126.115 38.351 125.417 37.8744 124.741C37.8353 124.685 37.7856 124.638 37.7281 124.601C37.6706 124.565 37.6065 124.54 37.5394 124.528C37.4723 124.517 37.4035 124.518 37.337 124.533C37.2705 124.548 37.2076 124.575 37.1518 124.614C37.0961 124.653 37.0485 124.703 37.012 124.76C36.9754 124.817 36.9505 124.881 36.9387 124.948C36.9269 125.015 36.9285 125.084 36.9433 125.15C36.9581 125.216 36.9858 125.279 37.0249 125.335C37.5118 126.032 38.0298 126.74 38.5789 127.442C38.6271 127.501 38.6879 127.549 38.7568 127.582C38.8258 127.615 38.9012 127.633 38.9777 127.633H38.9725ZM36.0045 123.398C36.0974 123.398 36.1886 123.373 36.2684 123.325C36.3483 123.278 36.4139 123.21 36.4584 123.129C36.5029 123.047 36.5246 122.956 36.5213 122.863C36.518 122.77 36.4898 122.68 36.4396 122.602C35.9734 121.879 35.5228 121.151 35.0928 120.423C35.0174 120.319 34.9062 120.248 34.7807 120.221C34.6553 120.195 34.5245 120.216 34.4136 120.28C34.3027 120.344 34.2197 120.447 34.1806 120.569C34.1415 120.691 34.1491 120.823 34.2019 120.939C34.637 121.678 35.098 122.422 35.5694 123.155C35.6165 123.23 35.6823 123.292 35.7603 123.335C35.8383 123.377 35.926 123.399 36.0149 123.398H36.0045ZM33.3887 118.946C33.478 118.945 33.5657 118.922 33.6434 118.878C33.721 118.834 33.7859 118.771 33.8317 118.694C33.8776 118.618 33.9029 118.531 33.9051 118.442C33.9074 118.353 33.8865 118.265 33.8445 118.186C33.4405 117.427 33.0572 116.637 32.6998 115.898C32.6398 115.777 32.5344 115.684 32.4064 115.639C32.2783 115.594 32.1378 115.602 32.015 115.659C31.8921 115.717 31.7968 115.82 31.7496 115.947C31.7023 116.074 31.7068 116.214 31.7622 116.337C32.1248 117.112 32.5185 117.887 32.9277 118.667C32.9711 118.753 33.0378 118.825 33.1202 118.875C33.2025 118.925 33.2973 118.951 33.3939 118.951L33.3887 118.946ZM31.1976 114.297C31.2829 114.298 31.367 114.277 31.4423 114.237C31.5177 114.197 31.5821 114.14 31.6298 114.069C31.6774 113.999 31.7069 113.918 31.7155 113.833C31.7242 113.748 31.7118 113.663 31.6794 113.584C31.3582 112.789 31.0526 111.988 30.7832 111.198C30.763 111.132 30.7296 111.07 30.6849 111.017C30.6403 110.963 30.5853 110.92 30.5233 110.888C30.4613 110.857 30.3936 110.838 30.3241 110.833C30.2547 110.828 30.1849 110.837 30.1191 110.86C30.0532 110.882 29.9927 110.918 29.9409 110.964C29.8892 111.011 29.8474 111.067 29.818 111.13C29.7886 111.193 29.7722 111.261 29.7699 111.331C29.7675 111.4 29.7792 111.469 29.8043 111.534C30.0788 112.345 30.3896 113.166 30.7211 113.977C30.7634 114.068 30.8315 114.145 30.9171 114.198C31.0027 114.252 31.102 114.279 31.2028 114.276L31.1976 114.297ZM29.5297 109.416C29.5761 109.422 29.6232 109.422 29.6696 109.416C29.7353 109.398 29.7967 109.368 29.8505 109.326C29.9043 109.284 29.9493 109.232 29.983 109.173C30.0166 109.114 30.0383 109.049 30.0468 108.982C30.0552 108.915 30.0503 108.846 30.0322 108.781C29.8043 107.96 29.6022 107.123 29.4313 106.307C29.4031 106.17 29.3215 106.05 29.2045 105.973C29.0874 105.896 28.9445 105.868 28.8071 105.896C28.6697 105.924 28.5492 106.006 28.472 106.122C28.3947 106.239 28.3672 106.382 28.3953 106.519C28.5714 107.36 28.7786 108.213 29.0117 109.06C29.0498 109.166 29.1215 109.256 29.216 109.318C29.3104 109.379 29.4224 109.408 29.5349 109.401L29.5297 109.416ZM28.4938 104.365H28.5663C28.7023 104.346 28.8251 104.273 28.9076 104.164C28.9902 104.054 29.0258 103.917 29.0065 103.781C28.8874 102.944 28.7994 102.092 28.7372 101.25C28.7325 101.182 28.7143 101.116 28.6839 101.055C28.6535 100.994 28.6113 100.94 28.5599 100.896C28.5084 100.851 28.4486 100.817 28.384 100.795C28.3193 100.774 28.251 100.765 28.183 100.77C28.115 100.775 28.0485 100.793 27.9875 100.823C27.9265 100.853 27.872 100.895 27.8273 100.947C27.7826 100.998 27.7484 101.058 27.7268 101.122C27.7052 101.187 27.6965 101.255 27.7013 101.323C27.7634 102.185 27.8566 103.063 27.9758 103.905C27.9964 104.025 28.0586 104.133 28.1515 104.211C28.2443 104.29 28.3618 104.333 28.4834 104.334L28.4938 104.365ZM28.1312 99.1997C28.2685 99.1997 28.4003 99.1453 28.4975 99.0484C28.5946 98.9516 28.6491 98.8202 28.6491 98.6832C28.6491 97.8413 28.6802 96.9891 28.7372 96.142C28.742 96.0742 28.7333 96.0061 28.7116 95.9416C28.69 95.8771 28.6559 95.8175 28.6111 95.7662C28.5664 95.7149 28.512 95.6728 28.4509 95.6425C28.3899 95.6122 28.3235 95.5941 28.2555 95.5894C28.1875 95.5846 28.1192 95.5933 28.0545 95.6148C27.9898 95.6364 27.9301 95.6705 27.8786 95.7151C27.8271 95.7597 27.785 95.8139 27.7546 95.8748C27.7241 95.9356 27.706 96.0019 27.7013 96.0697C27.6391 96.9374 27.608 97.8155 27.608 98.6832C27.608 98.8193 27.6619 98.9499 27.7579 99.0466C27.8539 99.1433 27.9843 99.1983 28.1208 99.1997H28.1312ZM28.4938 94.0347C28.6194 94.0359 28.7413 93.9915 28.8366 93.9098C28.9319 93.8281 28.9941 93.7146 29.0117 93.5905C29.1309 92.7589 29.2811 91.9118 29.4572 91.0803C29.4711 91.0124 29.4716 90.9425 29.4584 90.8746C29.4453 90.8066 29.4188 90.7418 29.3806 90.684C29.3424 90.6262 29.293 90.5765 29.2355 90.5377C29.178 90.4989 29.1134 90.4718 29.0454 90.4579C28.9774 90.444 28.9073 90.4436 28.8391 90.4567C28.7709 90.4698 28.706 90.4962 28.648 90.5343C28.5901 90.5724 28.5402 90.6216 28.5013 90.6789C28.4624 90.7363 28.4352 90.8007 28.4212 90.8685C28.2399 91.7207 28.0845 92.5885 27.9654 93.451C27.9462 93.5866 27.9818 93.7243 28.0644 93.8337C28.1469 93.9432 28.2697 94.0155 28.4057 94.0347H28.4938ZM29.5608 88.9884C29.6771 88.9927 29.7914 88.9578 29.8854 88.8894C29.9793 88.821 30.0474 88.7231 30.0788 88.6114C30.3067 87.8056 30.5657 86.9896 30.8506 86.1787C30.8959 86.0492 30.8878 85.9071 30.8281 85.7836C30.7683 85.6601 30.6618 85.5653 30.532 85.5201C30.4022 85.4749 30.2597 85.483 30.1358 85.5425C30.012 85.6021 29.9169 85.7083 29.8716 85.8378C29.5815 86.6642 29.3174 87.5061 29.0843 88.3325C29.0476 88.464 29.0646 88.6046 29.1315 88.7236C29.1985 88.8427 29.31 88.9305 29.4417 88.9678C29.4779 88.9859 29.5161 88.9998 29.5556 89.0091L29.5608 88.9884ZM38.5944 85.0217C39.4698 85.0217 40.3504 84.9597 41.2102 84.8925C41.3476 84.8816 41.475 84.8167 41.5644 84.7121C41.6537 84.6074 41.6978 84.4717 41.6868 84.3347C41.6758 84.1977 41.6107 84.0707 41.5058 83.9816C41.4008 83.8925 41.2647 83.8486 41.1274 83.8595C40.283 83.9267 39.4232 83.968 38.5737 83.9887C38.4363 83.9887 38.3046 84.0431 38.2074 84.14C38.1103 84.2368 38.0557 84.3682 38.0557 84.5052C38.0557 84.6422 38.1103 84.7735 38.2074 84.8704C38.3046 84.9673 38.4363 85.0217 38.5737 85.0217H38.5944ZM36.0045 85.0217C36.1419 85.0217 36.2736 84.9673 36.3708 84.8704C36.4679 84.7735 36.5225 84.6422 36.5225 84.5052C36.5225 84.3682 36.4679 84.2368 36.3708 84.14C36.2736 84.0431 36.1419 83.9887 36.0045 83.9887C35.155 83.9577 34.2952 83.906 33.4457 83.8286C33.3776 83.8224 33.3091 83.8298 33.2439 83.8501C33.1787 83.8704 33.1182 83.9033 33.0657 83.947C33.0133 83.9906 32.97 84.0441 32.9383 84.1045C32.9067 84.1648 32.8872 84.2307 32.8811 84.2986C32.875 84.3664 32.8823 84.4348 32.9027 84.4998C32.923 84.5648 32.9561 84.6251 32.9998 84.6774C33.0436 84.7297 33.0972 84.7729 33.1577 84.8045C33.2183 84.8361 33.2844 84.8555 33.3524 84.8616C34.2226 84.939 35.098 84.9959 35.9423 85.0268L36.0045 85.0217ZM43.7742 84.6291H43.8468C44.717 84.5052 45.5872 84.3554 46.4367 84.1798C46.5047 84.1659 46.5693 84.1388 46.6268 84.0999C46.6843 84.0611 46.7336 84.0114 46.7718 83.9536C46.8101 83.8958 46.8365 83.8311 46.8497 83.7631C46.8628 83.6951 46.8624 83.6252 46.8485 83.5574C46.8345 83.4896 46.8073 83.4251 46.7684 83.3678C46.7295 83.3105 46.6796 83.2613 46.6217 83.2232C46.5637 83.185 46.4988 83.1587 46.4306 83.1456C46.3624 83.1325 46.2923 83.1329 46.2243 83.1468C45.4059 83.3172 44.5564 83.467 43.7069 83.5858C43.5695 83.5954 43.4416 83.659 43.3513 83.7626C43.2609 83.8663 43.2156 84.0015 43.2252 84.1385C43.2348 84.2754 43.2986 84.403 43.4025 84.4931C43.5065 84.5832 43.642 84.6284 43.7794 84.6188L43.7742 84.6291ZM30.8661 84.5465C31.1596 84.2958 31.4584 84.0513 31.7622 83.8131C32.0834 83.0383 32.4408 82.2636 32.7982 81.4836C32.8535 81.361 32.8586 81.2216 32.8125 81.0952C32.7663 80.9688 32.6726 80.8654 32.5511 80.8069C32.4297 80.7483 32.2902 80.7393 32.1622 80.7818C32.0342 80.8243 31.9279 80.9149 31.8658 81.0343C31.4825 81.8245 31.1199 82.6251 30.7884 83.4154C30.7867 83.4412 30.7867 83.467 30.7884 83.4928C29.9959 83.374 29.1982 83.2294 28.4264 83.0693C28.289 83.0419 28.1464 83.07 28.0298 83.1475C27.9132 83.225 27.8323 83.3455 27.8048 83.4825C27.7774 83.6195 27.8056 83.7617 27.8833 83.878C27.961 83.9942 28.0819 84.0749 28.2192 84.1023C29.0636 84.2779 29.9338 84.4277 30.8092 84.5568L30.8661 84.5465ZM48.8401 83.5651C48.8865 83.5714 48.9336 83.5714 48.98 83.5651C49.8346 83.3224 50.6738 83.0486 51.4818 82.7491C51.6028 82.6958 51.6988 82.5985 51.7501 82.477C51.8015 82.3554 51.8042 82.2189 51.7579 82.0954C51.7115 81.9719 51.6195 81.8708 51.5008 81.8127C51.3821 81.7547 51.2455 81.7441 51.1192 81.7832C50.3371 82.0724 49.5238 82.3359 48.6951 82.5735C48.5577 82.5919 48.4333 82.6641 48.3493 82.774C48.2653 82.884 48.2285 83.0227 48.247 83.1597C48.2656 83.2967 48.3379 83.4207 48.4482 83.5045C48.5584 83.5883 48.6976 83.625 48.8349 83.6065L48.8401 83.5651ZM25.7951 83.5032C25.9325 83.521 26.0713 83.4836 26.1811 83.3994C26.2908 83.3151 26.3625 83.1908 26.3804 83.0538C26.3982 82.9168 26.3608 82.7784 26.2763 82.6689C26.1918 82.5595 26.0671 82.488 25.9297 82.4702C25.101 82.2481 24.2774 82.0001 23.4797 81.7315C23.4151 81.7098 23.3468 81.701 23.2788 81.7056C23.2107 81.7103 23.1443 81.7282 23.0832 81.7584C23.0221 81.7886 22.9676 81.8305 22.9228 81.8818C22.8779 81.933 22.8436 81.9925 22.8218 82.0569C22.8001 82.1214 22.7913 82.1895 22.7959 82.2573C22.8005 82.3251 22.8185 82.3914 22.8488 82.4523C22.8791 82.5132 22.9211 82.5676 22.9725 82.6123C23.0239 82.657 23.0835 82.6912 23.1482 82.7129C23.9666 82.9867 24.8109 83.2294 25.6604 83.467C25.6985 83.4838 25.7385 83.4959 25.7795 83.5032H25.7951ZM20.8898 81.8503C21.0086 81.849 21.1234 81.8068 21.2148 81.7311C21.3063 81.6553 21.3687 81.5504 21.3918 81.4342C21.4149 81.3179 21.3972 81.1972 21.3416 81.0924C21.286 80.9876 21.196 80.9051 21.0866 80.8587C20.2889 80.5281 19.5327 80.1717 18.7661 79.7998C18.6431 79.7382 18.5006 79.7278 18.3699 79.7709C18.2393 79.814 18.1312 79.9071 18.0694 80.0297C18.0075 80.1523 17.9971 80.2943 18.0403 80.4246C18.0836 80.5549 18.1769 80.6627 18.2999 80.7244C19.0665 81.1117 19.8538 81.4785 20.6878 81.8142C20.7439 81.8364 20.8035 81.8486 20.8639 81.8503H20.8898ZM53.6884 81.7625C53.7656 81.7621 53.8417 81.7444 53.9112 81.7109C54.714 81.3338 55.5014 80.9155 56.2421 80.4764C56.3081 80.4467 56.3672 80.4034 56.4154 80.3495C56.4636 80.2955 56.5 80.2321 56.5221 80.1633C56.5442 80.0944 56.5515 80.0217 56.5437 79.9499C56.5359 79.8781 56.513 79.8086 56.4766 79.7462C56.4401 79.6837 56.391 79.6295 56.3322 79.5872C56.2735 79.5449 56.2065 79.5153 56.1356 79.5004C56.0647 79.4855 55.9914 79.4856 55.9205 79.5007C55.8496 79.5158 55.7827 79.5456 55.7241 79.5881C55.0145 80.0116 54.2582 80.4093 53.4812 80.776C53.3759 80.8269 53.291 80.9118 53.2403 81.0169C53.1896 81.122 53.176 81.2411 53.2018 81.3549C53.2276 81.4687 53.2913 81.5704 53.3825 81.6435C53.4737 81.7165 53.587 81.7567 53.704 81.7574L53.6884 81.7625ZM16.2746 79.5106C16.3873 79.5109 16.4972 79.4746 16.5873 79.407C16.6775 79.3395 16.7431 79.2445 16.7742 79.1363C16.8052 79.0282 16.8001 78.913 16.7594 78.808C16.7188 78.7031 16.6449 78.6143 16.5491 78.555C15.8135 78.1005 15.1091 77.6202 14.4771 77.1243C14.4234 77.0797 14.3612 77.0464 14.2942 77.0263C14.2271 77.0063 14.1568 77.0001 14.0873 77.0079C14.0178 77.0158 13.9506 77.0376 13.8897 77.072C13.8289 77.1065 13.7757 77.1528 13.7334 77.2084C13.691 77.2639 13.6604 77.3273 13.6433 77.395C13.6262 77.4626 13.623 77.533 13.634 77.6019C13.6449 77.6708 13.6697 77.7368 13.7069 77.7958C13.7441 77.8549 13.7929 77.9058 13.8504 77.9456C14.5289 78.4621 15.2645 78.9786 16.0259 79.4331C16.0927 79.4775 16.169 79.5058 16.2486 79.5158L16.2746 79.5106ZM33.5441 79.4848C33.6373 79.485 33.7288 79.4602 33.809 79.4129C33.8892 79.3657 33.9552 79.2977 33.9999 79.2162C34.4039 78.4827 34.839 77.739 35.2897 77.0055C35.3334 76.8915 35.3352 76.7656 35.2947 76.6503C35.2542 76.5351 35.174 76.4378 35.0685 76.3759C34.9629 76.314 34.8387 76.2914 34.718 76.3121C34.5973 76.3328 34.4879 76.3955 34.4091 76.489C33.9481 77.2328 33.5078 77.9921 33.0934 78.741C33.0504 78.8194 33.0285 78.9075 33.0299 78.9969C33.0313 79.0862 33.0559 79.1737 33.1013 79.2507C33.1467 79.3277 33.2114 79.3917 33.289 79.4363C33.3666 79.481 33.4545 79.5048 33.5441 79.5054V79.4848ZM58.1327 79.118C58.243 79.1169 58.3501 79.0807 58.4383 79.0147C59.1531 78.4982 59.8421 77.9301 60.5103 77.3568C60.5651 77.3129 60.6104 77.2583 60.6434 77.1964C60.6764 77.1345 60.6965 77.0666 60.7023 76.9967C60.7081 76.9268 60.6996 76.8565 60.6773 76.79C60.655 76.7235 60.6193 76.6623 60.5725 76.61C60.5257 76.5577 60.4687 76.5154 60.4049 76.4858C60.3412 76.4562 60.2721 76.4398 60.2019 76.4377C60.1316 76.4355 60.0616 76.4477 59.9962 76.4734C59.9307 76.4991 59.8713 76.5378 59.8213 76.5872C59.2049 77.1347 58.5367 77.6718 57.8478 78.1832C57.7608 78.2482 57.6966 78.3389 57.6642 78.4424C57.6318 78.5458 57.6329 78.6569 57.6672 78.7597C57.7016 78.8626 57.7676 78.952 57.8558 79.0154C57.9439 79.0788 58.0499 79.1129 58.1586 79.1129L58.1327 79.118ZM12.1825 76.3702C12.286 76.3709 12.3874 76.3405 12.4734 76.2832C12.5595 76.2258 12.6264 76.1441 12.6654 76.0484C12.7044 75.9528 12.7138 75.8477 12.6924 75.7467C12.6709 75.6458 12.6196 75.5535 12.5451 75.4819C11.9417 74.9014 11.3793 74.2801 10.8616 73.6224C10.7771 73.5142 10.653 73.4439 10.5165 73.427C10.38 73.41 10.2424 73.4478 10.1339 73.532C10.0253 73.6163 9.95481 73.7401 9.93781 73.8762C9.92081 74.0123 9.95873 74.1495 10.0432 74.2577C10.5912 74.9537 11.1865 75.6112 11.8251 76.2256C11.9125 76.3128 12.0282 76.3659 12.1514 76.3754L12.1825 76.3702ZM61.9865 75.6833C62.0588 75.6831 62.1302 75.6679 62.1963 75.6385C62.2623 75.6092 62.3214 75.5664 62.3698 75.5129C62.9674 74.8572 63.526 74.1674 64.0429 73.4468C64.0861 73.3921 64.1177 73.3293 64.1359 73.2621C64.154 73.1949 64.1584 73.1247 64.1487 73.0558C64.139 72.9868 64.1154 72.9205 64.0794 72.8609C64.0434 72.8013 63.9956 72.7496 63.939 72.7088C63.8824 72.6681 63.8182 72.6391 63.7501 72.6238C63.682 72.6084 63.6115 72.6069 63.5428 72.6194C63.4741 72.6319 63.4087 72.6581 63.3504 72.6964C63.2922 72.7348 63.2423 72.7845 63.2038 72.8425C62.7103 73.5235 62.1776 74.1754 61.6084 74.7949C61.5413 74.869 61.4972 74.9609 61.4814 75.0594C61.4656 75.158 61.4788 75.259 61.5193 75.3502C61.5599 75.4415 61.6261 75.519 61.7099 75.5736C61.7937 75.6281 61.8916 75.6572 61.9917 75.6575L61.9865 75.6833ZM36.2531 75.0841C36.338 75.0843 36.4216 75.0636 36.4965 75.024C36.5715 74.9844 36.6355 74.927 36.6831 74.8569C37.1544 74.1596 37.6517 73.4572 38.1645 72.7909C38.205 72.7363 38.2343 72.6743 38.2507 72.6084C38.2671 72.5425 38.2704 72.474 38.2603 72.4068C38.2502 72.3397 38.2269 72.2752 38.1918 72.217C38.1567 72.1588 38.1105 72.1081 38.0557 72.0678C38.001 72.0274 37.9388 71.9982 37.8727 71.9818C37.8066 71.9654 37.7379 71.9622 37.6706 71.9722C37.6032 71.9823 37.5386 72.0055 37.4802 72.0405C37.4219 72.0755 37.371 72.1216 37.3305 72.1762C36.8126 72.8787 36.2946 73.5966 35.8232 74.3042C35.7705 74.382 35.7401 74.4726 35.7351 74.5663C35.7302 74.66 35.7509 74.7532 35.7951 74.8361C35.8393 74.9189 35.9053 74.9882 35.986 75.0364C36.0667 75.0847 36.159 75.1101 36.2531 75.11V75.0841ZM9.0228 72.3054C9.11284 72.3056 9.20139 72.2824 9.27971 72.2382C9.35803 72.1939 9.42342 72.13 9.46943 72.0528C9.51545 71.9757 9.5405 71.8879 9.54211 71.7981C9.54373 71.7083 9.52185 71.6197 9.47863 71.5409C9.07935 70.8136 8.74815 70.0511 8.48927 69.2632C8.44296 69.1377 8.34971 69.0351 8.22911 68.9768C8.1085 68.9186 7.96993 68.9092 7.84252 68.9506C7.71511 68.9921 7.60876 69.0812 7.54584 69.1992C7.48292 69.3172 7.46831 69.4549 7.50509 69.5834C7.7847 70.4304 8.14192 71.2499 8.57216 72.0316C8.61248 72.1099 8.67218 72.1766 8.74561 72.2254C8.81903 72.2742 8.90376 72.3035 8.99173 72.3105L9.0228 72.3054ZM64.9908 71.4944C65.0845 71.4942 65.1764 71.4686 65.2567 71.4204C65.3369 71.3722 65.4026 71.3032 65.4466 71.2207C65.8674 70.4373 66.2259 69.6221 66.5189 68.7828C66.5578 68.6549 66.5454 68.5169 66.4844 68.3978C66.4234 68.2788 66.3184 68.1879 66.1916 68.1445C66.0648 68.101 65.9261 68.1082 65.8045 68.1647C65.683 68.2211 65.5881 68.3223 65.5399 68.4471C65.2654 69.2348 64.9294 69.9998 64.535 70.7352C64.493 70.8138 64.4721 70.9019 64.4744 70.9909C64.4766 71.0799 64.5019 71.1668 64.5478 71.2432C64.5936 71.3196 64.6585 71.3829 64.7362 71.4269C64.8138 71.4709 64.9015 71.4942 64.9908 71.4944ZM39.3196 70.9263C39.3974 70.9259 39.4741 70.9081 39.5441 70.8741C39.614 70.8401 39.6754 70.7909 39.7236 70.73C40.1829 70.1584 40.6577 69.5834 41.1481 69.0049L41.3656 68.7518C41.4099 68.7003 41.4434 68.6405 41.4645 68.576C41.4856 68.5115 41.4937 68.4435 41.4884 68.3759C41.4831 68.3083 41.4645 68.2424 41.4337 68.1819C41.4028 68.1214 41.3603 68.0676 41.3086 68.0235C41.2569 67.9794 41.1971 67.9459 41.1324 67.9249C41.0677 67.9039 40.9995 67.8958 40.9317 67.9011C40.8638 67.9064 40.7977 67.9249 40.7371 67.9557C40.6765 67.9864 40.6225 68.0288 40.5783 68.0804L40.3608 68.3386C39.8687 68.9171 39.3818 69.5059 38.9207 70.0896C38.8605 70.1655 38.823 70.2568 38.8123 70.3531C38.8016 70.4493 38.8183 70.5466 38.8605 70.6339C38.9026 70.7211 38.9685 70.7948 39.0506 70.8465C39.1327 70.8982 39.2277 70.9258 39.3248 70.9263H39.3196ZM7.43259 67.4296H7.49475C7.63059 67.4128 7.75425 67.343 7.83869 67.2356C7.92313 67.1282 7.96149 66.9918 7.94539 66.8562C7.88339 66.3421 7.85226 65.8246 7.85216 65.3067C7.85216 65.0037 7.86252 64.699 7.88324 64.3925C7.89177 64.2563 7.84587 64.1223 7.75561 64.0197C7.66534 63.9171 7.53806 63.8543 7.40152 63.845C7.26492 63.8365 7.13048 63.8823 7.0276 63.9723C6.92473 64.0623 6.86177 64.1892 6.85246 64.3254C6.82829 64.6697 6.81619 64.9985 6.81619 65.3119C6.8166 65.8764 6.8512 66.4405 6.9198 67.0009C6.93849 67.1171 6.99643 67.2235 7.08404 67.3024C7.17165 67.3813 7.28366 67.428 7.40152 67.4347L7.43259 67.4296ZM42.6917 67.0112C42.7627 67.011 42.8329 66.9962 42.898 66.9677C42.963 66.9393 43.0215 66.8978 43.0698 66.8459C43.6603 66.2106 44.2663 65.5908 44.8568 65.0123C44.9055 64.9648 44.9443 64.9083 44.971 64.8459C44.9977 64.7834 45.0118 64.7164 45.0125 64.6485C45.0132 64.5806 45.0006 64.5133 44.9752 64.4503C44.9498 64.3873 44.9122 64.33 44.8646 64.2815C44.817 64.233 44.7603 64.1943 44.6977 64.1677C44.6351 64.141 44.5678 64.127 44.4997 64.1262C44.4317 64.1255 44.3641 64.1382 44.301 64.1635C44.2378 64.1888 44.1803 64.2262 44.1316 64.2737C43.5256 64.8677 42.9144 65.4927 42.3083 66.1435C42.2399 66.217 42.1945 66.3089 42.1775 66.4079C42.1606 66.5068 42.173 66.6085 42.2131 66.7005C42.2532 66.7926 42.3193 66.871 42.4034 66.9261C42.4874 66.9813 42.5858 67.0109 42.6865 67.0112H42.6917ZM66.6173 66.629C66.743 66.6302 66.8648 66.5858 66.9601 66.5041C67.0554 66.4224 67.1177 66.3089 67.1353 66.1848C67.2196 65.6136 67.2628 65.037 67.2648 64.4597C67.2648 64.1343 67.2648 63.8089 67.2233 63.4938C67.2172 63.426 67.1977 63.36 67.166 63.2997C67.1343 63.2394 67.0911 63.1858 67.0386 63.1422C66.9862 63.0985 66.9257 63.0656 66.8605 63.0453C66.7953 63.025 66.7267 63.0177 66.6587 63.0238C66.5907 63.0299 66.5246 63.0493 66.4641 63.0809C66.4036 63.1125 66.3499 63.1557 66.3061 63.2079C66.2623 63.2602 66.2293 63.3206 66.209 63.3856C66.1886 63.4506 66.1812 63.5189 66.1874 63.5868C66.1874 63.8708 66.2236 64.1653 66.2236 64.4648C66.2217 64.9938 66.1819 65.522 66.1045 66.0453C66.0853 66.1809 66.1209 66.3186 66.2034 66.4281C66.286 66.5375 66.4088 66.6098 66.5448 66.629H66.6173ZM46.3642 63.4008C46.4901 63.4007 46.6116 63.3547 46.706 63.2717C47.3639 62.6932 48.0269 62.1509 48.6796 61.6499C48.7336 61.6085 48.779 61.5569 48.8131 61.4981C48.8471 61.4392 48.8693 61.3742 48.8782 61.3068C48.8871 61.2394 48.8826 61.171 48.8649 61.1053C48.8473 61.0397 48.8169 60.9781 48.7754 60.9242C48.7339 60.8703 48.6821 60.825 48.6231 60.791C48.5641 60.7571 48.4989 60.735 48.4313 60.7261C48.3638 60.7173 48.2951 60.7217 48.2292 60.7393C48.1634 60.7569 48.1017 60.7873 48.0476 60.8286C47.3794 61.3451 46.7009 61.8978 46.0223 62.4918C45.9434 62.5611 45.8876 62.6528 45.8622 62.7545C45.8369 62.8563 45.8431 62.9633 45.8803 63.0614C45.9174 63.1595 45.9835 63.2441 46.0699 63.3038C46.1564 63.3635 46.259 63.3955 46.3642 63.3957V63.4008ZM7.73819 62.3058C7.85722 62.309 7.97372 62.2712 8.06806 62.1988C8.1624 62.1263 8.22882 62.0237 8.25617 61.9081C8.45487 61.0957 8.71107 60.2983 9.0228 59.5219C9.04797 59.4588 9.06044 59.3914 9.05948 59.3235C9.05852 59.2556 9.04414 59.1886 9.01721 59.1263C8.99027 59.0639 8.95129 59.0075 8.90248 58.9601C8.85366 58.9128 8.796 58.8755 8.73273 58.8504C8.66948 58.8253 8.60186 58.8129 8.53378 58.8139C8.46571 58.8148 8.39849 58.8291 8.33597 58.856C8.27344 58.8828 8.21682 58.9217 8.16935 58.9704C8.12189 59.0191 8.0845 59.0766 8.05933 59.1397C7.73044 59.9615 7.46041 60.8055 7.25128 61.6654C7.23509 61.7315 7.23219 61.8002 7.24271 61.8675C7.25323 61.9347 7.27699 61.9993 7.31261 62.0574C7.34824 62.1154 7.39501 62.1659 7.45027 62.2059C7.50553 62.2459 7.56816 62.2746 7.63458 62.2904L7.73819 62.3058ZM66.1096 61.5466C66.1943 61.5467 66.2776 61.5261 66.3524 61.4866C66.4272 61.4471 66.4912 61.39 66.5387 61.3202C66.5863 61.2504 66.6159 61.17 66.6251 61.0861C66.6342 61.0022 66.6227 60.9174 66.5914 60.839C66.2486 59.9802 65.7519 59.1908 65.1255 58.5095C65.0792 58.4597 65.0236 58.4194 64.9617 58.391C64.8998 58.3626 64.833 58.3466 64.7649 58.344C64.6969 58.3413 64.6289 58.3521 64.5651 58.3756C64.5012 58.3992 64.4425 58.435 64.3925 58.4811C64.3425 58.5273 64.3022 58.5827 64.2737 58.6444C64.2452 58.7061 64.2291 58.7728 64.2265 58.8407C64.2238 58.9085 64.2346 58.9763 64.2582 59.04C64.2818 59.1037 64.3178 59.1621 64.364 59.212C64.9068 59.8025 65.3369 60.4869 65.6331 61.2315C65.672 61.3258 65.738 61.4066 65.8228 61.4636C65.9076 61.5206 66.0074 61.5512 66.1096 61.5517V61.5466ZM50.4769 60.2605C50.5762 60.2602 50.6733 60.2315 50.7566 60.1778C51.4649 59.7174 52.1962 59.2934 52.9477 58.9072C53.0103 58.8776 53.0664 58.8358 53.1125 58.7842C53.1586 58.7325 53.1938 58.6722 53.2161 58.6068C53.2384 58.5414 53.2473 58.4721 53.2423 58.4032C53.2373 58.3343 53.2184 58.267 53.1869 58.2055C53.1553 58.144 53.1117 58.0894 53.0586 58.0449C53.0055 58.0005 52.944 57.9672 52.8778 57.9469C52.8115 57.9266 52.7418 57.9198 52.6729 57.9268C52.6039 57.9338 52.5371 57.9546 52.4763 57.9879C51.6928 58.3896 50.9304 58.8309 50.1921 59.3101C50.0982 59.3706 50.0265 59.4596 49.9876 59.564C49.9486 59.6684 49.9446 59.7826 49.9761 59.8894C50.0075 59.9963 50.0728 60.0902 50.1621 60.157C50.2514 60.2239 50.3601 60.2602 50.4718 60.2605H50.4769ZM55.087 57.9414C55.1453 57.9407 55.2031 57.9302 55.2579 57.9104C56.042 57.6313 56.8499 57.4238 57.6717 57.2906C57.8091 57.2694 57.9324 57.1946 58.0145 57.0827C58.0965 56.9708 58.1307 56.831 58.1094 56.694C58.0881 56.557 58.0131 56.4341 57.9009 56.3523C57.7887 56.2704 57.6485 56.2363 57.5111 56.2576C56.6294 56.4011 55.7625 56.6241 54.9212 56.9239C54.8072 56.9651 54.7112 57.045 54.6502 57.1496C54.5892 57.2541 54.5669 57.3768 54.5872 57.496C54.6076 57.6153 54.6693 57.7237 54.7615 57.8022C54.8538 57.8808 54.9708 57.9246 55.0922 57.9259L55.087 57.9414ZM62.6599 57.8484C62.7784 57.8491 62.8936 57.8091 62.9862 57.7353C63.0787 57.6615 63.1431 57.5583 63.1686 57.4428C63.194 57.3274 63.179 57.2068 63.1261 57.101C63.0731 56.9953 62.9853 56.9109 62.8774 56.8619C62.0378 56.4798 61.1394 56.2423 60.2202 56.1594C60.1522 56.153 60.0835 56.16 60.0182 56.18C59.9529 56.2 59.8922 56.2326 59.8395 56.276C59.7868 56.3194 59.7432 56.3728 59.7112 56.433C59.6792 56.4932 59.6595 56.5591 59.653 56.6269C59.6466 56.6947 59.6535 56.7631 59.6736 56.8283C59.6937 56.8934 59.7264 56.954 59.7699 57.0065C59.8135 57.059 59.8669 57.1025 59.9273 57.1344C59.9877 57.1663 60.0537 57.186 60.1218 57.1925C60.9245 57.2654 61.7091 57.4732 62.4424 57.8071C62.511 57.8363 62.5852 57.8504 62.6599 57.8484ZM9.62365 57.492C9.71736 57.4918 9.80923 57.4662 9.8895 57.418C9.96978 57.3698 10.0354 57.3008 10.0795 57.2183C10.411 56.6088 10.7788 55.989 11.1828 55.3744C11.2199 55.3174 11.2453 55.2537 11.2577 55.1869C11.2701 55.1201 11.2691 55.0516 11.255 54.9851C11.2408 54.9187 11.2136 54.8557 11.175 54.7998C11.1364 54.7438 11.0871 54.696 11.03 54.659C10.9729 54.622 10.909 54.5967 10.842 54.5843C10.775 54.572 10.7063 54.5729 10.6396 54.587C10.573 54.6012 10.5098 54.6283 10.4537 54.6668C10.3976 54.7053 10.3496 54.7544 10.3126 54.8114C9.89301 55.4518 9.50969 56.0975 9.16782 56.7276C9.12585 56.8062 9.10498 56.8943 9.10722 56.9833C9.10946 57.0723 9.13473 57.1593 9.1806 57.2357C9.22647 57.3121 9.29136 57.3753 9.36899 57.4194C9.44662 57.4634 9.53435 57.4866 9.62365 57.4869V57.492Z" fill="#382C50"/>
</svg>
