<svg width="69" height="147" viewBox="0 0 69 147" fill="none" xmlns="http://www.w3.org/2000/svg">
<path d="M52.0521 31.8787L46.5097 44.125L40.5736 35.1171L52.0521 31.8787Z" fill="#9082FF"/>
<path d="M0 0L20.0407 43.9338C20.2304 44.3501 20.5024 44.724 20.8404 45.033C21.1785 45.342 21.5755 45.5798 22.0079 45.7322C22.4403 45.8846 22.899 45.9484 23.3567 45.9199C23.8144 45.8913 24.2616 45.7709 24.6715 45.566L68.151 23.8367C68.3947 23.7151 68.5964 23.5238 68.7303 23.2871C68.8642 23.0504 68.9242 22.7793 68.9025 22.5085C68.8808 22.2376 68.7784 21.9794 68.6085 21.7669C68.4386 21.5545 68.209 21.3975 67.949 21.3161L0 0Z" fill="#9082FF"/>
<path d="M40.874 37.4672L46.5096 44.125L45.0438 35.4064L40.874 37.4672Z" fill="#826AB3"/>
<path d="M12.0846 146.331C11.9804 146.331 11.8785 146.301 11.792 146.243C11.7056 146.185 11.6387 146.102 11.6001 146.006C11.5615 145.909 11.553 145.803 11.5757 145.702C11.5983 145.6 11.6512 145.508 11.7272 145.437L13.623 143.666C13.6716 143.614 13.7302 143.573 13.7954 143.544C13.8606 143.516 13.9308 143.502 14.0018 143.502C14.0729 143.502 14.1431 143.517 14.2082 143.545C14.2733 143.573 14.3319 143.615 14.3803 143.666C14.4287 143.718 14.4659 143.779 14.4896 143.846C14.5133 143.913 14.5229 143.984 14.518 144.054C14.513 144.125 14.4936 144.194 14.4608 144.257C14.428 144.32 14.3827 144.375 14.3275 144.42C13.6593 145.045 13.0274 145.633 12.4369 146.186C12.3421 146.277 12.2162 146.329 12.0846 146.331ZM15.8711 142.798C15.7669 142.798 15.6649 142.768 15.5785 142.71C15.4921 142.652 15.4252 142.569 15.3866 142.473C15.348 142.376 15.3394 142.27 15.3621 142.169C15.3848 142.067 15.4376 141.975 15.5137 141.904C16.1214 141.336 16.7465 140.744 17.3888 140.127C17.4896 140.045 17.6182 140.003 17.7487 140.01C17.8792 140.018 18.002 140.074 18.0924 140.168C18.1829 140.263 18.2343 140.387 18.2364 140.518C18.2384 140.648 18.191 140.774 18.1036 140.871C17.4578 141.488 16.8293 142.082 16.2181 142.653C16.1234 142.744 15.9975 142.796 15.8659 142.798H15.8711ZM19.6109 139.213C19.5085 139.213 19.4085 139.182 19.3235 139.125C19.2386 139.068 19.1725 138.987 19.1337 138.892C19.0949 138.798 19.0851 138.694 19.1055 138.594C19.1259 138.494 19.1756 138.402 19.2483 138.33C19.8492 137.741 20.4569 137.133 21.0716 136.507C21.1192 136.458 21.176 136.42 21.2386 136.393C21.3012 136.366 21.3684 136.352 21.4365 136.352C21.5046 136.351 21.5721 136.363 21.6353 136.389C21.6984 136.414 21.756 136.452 21.8046 136.499C21.8532 136.547 21.892 136.603 21.9187 136.665C21.9454 136.728 21.9595 136.795 21.9603 136.863C21.961 136.931 21.9483 136.998 21.9229 137.061C21.8975 137.124 21.8599 137.181 21.8123 137.23C21.1942 137.86 20.583 138.473 19.9787 139.069C19.9292 139.116 19.8708 139.153 19.8068 139.178C19.7428 139.203 19.6744 139.215 19.6058 139.213H19.6109ZM23.2368 135.515C23.1361 135.515 23.0378 135.485 22.9537 135.43C22.8696 135.375 22.8035 135.296 22.7634 135.204C22.7233 135.112 22.7109 135.011 22.7278 134.912C22.7448 134.813 22.7902 134.721 22.8587 134.647C23.4388 134.031 24.0207 133.399 24.6043 132.752C24.6977 132.658 24.8237 132.603 24.9563 132.599C25.0889 132.595 25.218 132.642 25.317 132.73C25.416 132.818 25.4773 132.941 25.4883 133.073C25.4993 133.205 25.4591 133.336 25.3761 133.439C24.789 134.093 24.202 134.73 23.6149 135.35C23.566 135.402 23.5067 135.444 23.4407 135.473C23.3747 135.501 23.3035 135.516 23.2316 135.515H23.2368ZM26.6918 131.667C26.5927 131.667 26.4958 131.639 26.4124 131.586C26.329 131.532 26.2626 131.456 26.2212 131.367C26.1798 131.277 26.165 131.177 26.1786 131.08C26.1923 130.982 26.2337 130.89 26.2981 130.815C26.8627 130.154 27.4117 129.487 27.9401 128.837C27.9818 128.781 28.0342 128.735 28.0942 128.7C28.1542 128.666 28.2206 128.643 28.2894 128.634C28.3582 128.626 28.4281 128.631 28.4949 128.65C28.5617 128.669 28.624 128.701 28.6781 128.744C28.7323 128.787 28.7771 128.841 28.8101 128.902C28.843 128.963 28.8634 129.029 28.8699 129.098C28.8764 129.167 28.869 129.237 28.8481 129.303C28.8272 129.369 28.7932 129.43 28.7481 129.482C28.2301 130.143 27.6552 130.82 27.0854 131.486C27.0362 131.544 26.975 131.59 26.9061 131.621C26.8372 131.652 26.7623 131.668 26.6866 131.667H26.6918ZM29.9343 127.633C29.8381 127.633 29.7438 127.607 29.662 127.556C29.5802 127.506 29.514 127.434 29.471 127.348C29.428 127.262 29.4098 127.166 29.4184 127.07C29.4271 126.975 29.4622 126.884 29.5199 126.807C30.0379 126.115 30.5559 125.417 31.0324 124.741C31.0716 124.685 31.1213 124.638 31.1787 124.601C31.2362 124.565 31.3003 124.54 31.3674 124.528C31.4345 124.517 31.5033 124.518 31.5698 124.533C31.6363 124.548 31.6992 124.575 31.755 124.614C31.8108 124.653 31.8583 124.703 31.8949 124.76C31.9314 124.817 31.9563 124.881 31.9681 124.948C31.9799 125.015 31.9784 125.084 31.9636 125.15C31.9488 125.216 31.921 125.279 31.8819 125.335C31.395 126.032 30.877 126.74 30.328 127.442C30.2798 127.501 30.219 127.549 30.15 127.582C30.0811 127.615 30.0057 127.633 29.9291 127.633H29.9343ZM32.9024 123.398C32.8095 123.398 32.7183 123.373 32.6384 123.325C32.5586 123.278 32.493 123.21 32.4485 123.129C32.404 123.047 32.3822 122.956 32.3855 122.863C32.3888 122.77 32.4171 122.68 32.4672 122.602C32.9334 121.879 33.3841 121.151 33.814 120.423C33.8894 120.319 34.0006 120.248 34.1261 120.221C34.2516 120.195 34.3824 120.216 34.4933 120.28C34.6041 120.344 34.6871 120.447 34.7262 120.569C34.7653 120.691 34.7577 120.823 34.7049 120.939C34.2698 121.678 33.8088 122.422 33.3374 123.155C33.2903 123.23 33.2246 123.292 33.1466 123.335C33.0686 123.377 32.9809 123.399 32.892 123.398H32.9024ZM35.5182 118.946C35.4289 118.945 35.3411 118.922 35.2635 118.878C35.1859 118.834 35.121 118.771 35.0751 118.694C35.0292 118.618 35.004 118.531 35.0017 118.442C34.9995 118.353 35.0204 118.265 35.0623 118.186C35.4664 117.427 35.8497 116.637 36.2071 115.898C36.2671 115.777 36.3724 115.684 36.5005 115.639C36.6285 115.594 36.7691 115.602 36.8919 115.659C37.0147 115.717 37.11 115.82 37.1573 115.947C37.2045 116.074 37.2 116.214 37.1446 116.337C36.7821 117.112 36.3884 117.887 35.9792 118.667C35.9357 118.753 35.8691 118.825 35.7867 118.875C35.7043 118.925 35.6095 118.951 35.513 118.951L35.5182 118.946ZM37.7092 114.297C37.6239 114.298 37.5399 114.277 37.4645 114.237C37.3891 114.197 37.3247 114.14 37.2771 114.069C37.2294 113.999 37.2 113.918 37.1913 113.833C37.1827 113.748 37.1951 113.663 37.2275 113.584C37.5486 112.789 37.8543 111.988 38.1236 111.198C38.1438 111.132 38.1773 111.07 38.2219 111.017C38.2666 110.963 38.3215 110.92 38.3835 110.888C38.4455 110.857 38.5133 110.838 38.5827 110.833C38.6522 110.828 38.7219 110.837 38.7878 110.86C38.8536 110.882 38.9142 110.918 38.9659 110.964C39.0177 111.011 39.0595 111.067 39.0889 111.13C39.1183 111.193 39.1346 111.261 39.137 111.331C39.1394 111.4 39.1276 111.469 39.1026 111.534C38.8281 112.345 38.5173 113.166 38.1858 113.977C38.1435 114.068 38.0753 114.145 37.9897 114.198C37.9042 114.252 37.8049 114.279 37.7041 114.276L37.7092 114.297ZM39.3771 109.416C39.3307 109.422 39.2837 109.422 39.2373 109.416C39.1716 109.398 39.1101 109.368 39.0564 109.326C39.0026 109.284 38.9576 109.232 38.9239 109.173C38.8902 109.114 38.8685 109.049 38.8601 108.982C38.8517 108.915 38.8566 108.846 38.8747 108.781C39.1026 107.96 39.3046 107.123 39.4756 106.307C39.5037 106.17 39.5853 106.05 39.7024 105.973C39.8194 105.896 39.9624 105.868 40.0997 105.896C40.2371 105.924 40.3577 106.006 40.4349 106.122C40.5121 106.239 40.5397 106.382 40.5115 106.519C40.3354 107.36 40.1282 108.213 39.8951 109.06C39.857 109.166 39.7853 109.256 39.6909 109.318C39.5965 109.379 39.4845 109.408 39.372 109.401L39.3771 109.416ZM40.4131 104.365H40.3406C40.2046 104.346 40.0818 104.273 39.9992 104.164C39.9167 104.054 39.8811 103.917 39.9003 103.781C40.0194 102.944 40.1075 102.092 40.1696 101.25C40.1744 101.182 40.1925 101.116 40.2229 101.055C40.2534 100.994 40.2955 100.94 40.347 100.896C40.3985 100.851 40.4582 100.817 40.5229 100.795C40.5876 100.774 40.6559 100.765 40.7239 100.77C40.7919 100.775 40.8583 100.793 40.9194 100.823C40.9804 100.853 41.0348 100.895 41.0796 100.947C41.1243 100.998 41.1584 101.058 41.1801 101.122C41.2017 101.187 41.2104 101.255 41.2056 101.323C41.1434 102.185 41.0502 103.063 40.9311 103.905C40.9104 104.025 40.8482 104.133 40.7554 104.211C40.6626 104.29 40.5451 104.333 40.4235 104.334L40.4131 104.365ZM40.7757 99.1997C40.6383 99.1997 40.5065 99.1453 40.4094 99.0484C40.3123 98.9516 40.2577 98.8202 40.2577 98.6832C40.2577 97.8413 40.2266 96.9891 40.1696 96.142C40.1649 96.0742 40.1736 96.0061 40.1952 95.9416C40.2168 95.8771 40.251 95.8175 40.2957 95.7662C40.3405 95.7149 40.3949 95.6728 40.4559 95.6425C40.5169 95.6122 40.5833 95.5941 40.6514 95.5894C40.7194 95.5846 40.7877 95.5933 40.8524 95.6148C40.917 95.6364 40.9768 95.6705 41.0283 95.7151C41.0797 95.7597 41.1219 95.8139 41.1523 95.8748C41.1827 95.9356 41.2008 96.0019 41.2056 96.0697C41.2678 96.9374 41.2988 97.8155 41.2988 98.6832C41.2988 98.8193 41.245 98.9499 41.149 99.0466C41.053 99.1433 40.9225 99.1983 40.786 99.1997H40.7757ZM40.4131 94.0347C40.2874 94.0359 40.1656 93.9915 40.0703 93.9098C39.975 93.8281 39.9127 93.7146 39.8951 93.5905C39.776 92.7589 39.6258 91.9118 39.4497 91.0803C39.4357 91.0124 39.4353 90.9425 39.4484 90.8746C39.4616 90.8066 39.488 90.7418 39.5263 90.684C39.5645 90.6262 39.6138 90.5765 39.6713 90.5377C39.7288 90.4989 39.7934 90.4718 39.8615 90.4579C39.9295 90.444 39.9996 90.4436 40.0677 90.4567C40.1359 90.4698 40.2009 90.4962 40.2588 90.5343C40.3168 90.5724 40.3666 90.6216 40.4056 90.6789C40.4445 90.7363 40.4717 90.8007 40.4856 90.8685C40.6669 91.7207 40.8223 92.5885 40.9415 93.451C40.9607 93.5866 40.9251 93.7243 40.8425 93.8337C40.7599 93.9432 40.6371 94.0155 40.5012 94.0347H40.4131ZM39.3461 88.9884C39.2298 88.9927 39.1155 88.9578 39.0215 88.8894C38.9275 88.821 38.8594 88.7231 38.8281 88.6114C38.6002 87.8056 38.3412 86.9896 38.0563 86.1787C38.011 86.0492 38.019 85.9071 38.0788 85.7836C38.1385 85.6601 38.245 85.5653 38.3748 85.5201C38.5047 85.4749 38.6472 85.483 38.771 85.5425C38.8949 85.6021 38.9899 85.7083 39.0353 85.8378C39.3253 86.6642 39.5895 87.5061 39.8226 88.3325C39.8593 88.464 39.8423 88.6046 39.7753 88.7236C39.7084 88.8427 39.5969 88.9305 39.4652 88.9678C39.429 88.9859 39.3907 88.9998 39.3512 89.0091L39.3461 88.9884ZM30.3124 85.0217C29.4371 85.0217 28.5565 84.9597 27.6966 84.8925C27.5593 84.8816 27.4319 84.8167 27.3425 84.7121C27.2531 84.6074 27.2091 84.4717 27.2201 84.3347C27.2311 84.1977 27.2962 84.0707 27.4011 83.9816C27.506 83.8925 27.6421 83.8486 27.7795 83.8595C28.6238 83.9267 29.4837 83.968 30.3332 83.9887C30.4705 83.9887 30.6023 84.0431 30.6994 84.14C30.7966 84.2368 30.8511 84.3682 30.8511 84.5052C30.8511 84.6422 30.7966 84.7735 30.6994 84.8704C30.6023 84.9673 30.4705 85.0217 30.3332 85.0217H30.3124ZM32.9024 85.0217C32.765 85.0217 32.6332 84.9673 32.5361 84.8704C32.439 84.7735 32.3844 84.6422 32.3844 84.5052C32.3844 84.3682 32.439 84.2368 32.5361 84.14C32.6332 84.0431 32.765 83.9887 32.9024 83.9887C33.7519 83.9577 34.6117 83.906 35.4612 83.8286C35.5292 83.8224 35.5978 83.8298 35.663 83.8501C35.7281 83.8704 35.7887 83.9033 35.8411 83.947C35.8935 83.9906 35.9368 84.0441 35.9685 84.1045C36.0002 84.1648 36.0197 84.2307 36.0258 84.2986C36.0319 84.3664 36.0246 84.4348 36.0042 84.4998C35.9838 84.5648 35.9508 84.6251 35.907 84.6774C35.8633 84.7297 35.8096 84.7729 35.7491 84.8045C35.6886 84.8361 35.6224 84.8555 35.5544 84.8616C34.6842 84.939 33.8088 84.9959 32.9645 85.0268L32.9024 85.0217ZM25.1326 84.6291H25.0601C24.1899 84.5052 23.3197 84.3554 22.4702 84.1798C22.4022 84.1659 22.3376 84.1388 22.28 84.0999C22.2225 84.0611 22.1733 84.0114 22.135 83.9536C22.0968 83.8958 22.0703 83.8311 22.0572 83.7631C22.044 83.6951 22.0444 83.6252 22.0584 83.5574C22.0723 83.4896 22.0995 83.4251 22.1384 83.3678C22.1774 83.3105 22.2272 83.2613 22.2852 83.2232C22.3432 83.185 22.4081 83.1587 22.4763 83.1456C22.5444 83.1325 22.6145 83.1329 22.6826 83.1468C23.501 83.3172 24.3505 83.467 25.2 83.5858C25.3373 83.5954 25.4653 83.659 25.5556 83.7626C25.6459 83.8663 25.6913 84.0015 25.6817 84.1385C25.6721 84.2754 25.6083 84.403 25.5043 84.4931C25.4004 84.5832 25.2648 84.6284 25.1274 84.6188L25.1326 84.6291ZM38.0407 84.5465C37.7472 84.2958 37.4485 84.0513 37.1446 83.8131C36.8235 83.0383 36.4661 82.2636 36.1087 81.4836C36.0534 81.361 36.0482 81.2216 36.0944 81.0952C36.1405 80.9688 36.2343 80.8654 36.3557 80.8069C36.4772 80.7483 36.6167 80.7393 36.7447 80.7818C36.8727 80.8243 36.979 80.9149 37.041 81.0343C37.4243 81.8245 37.7869 82.6251 38.1184 83.4154C38.1202 83.4412 38.1202 83.467 38.1184 83.4928C38.911 83.374 39.7087 83.2294 40.4804 83.0693C40.6178 83.0419 40.7605 83.07 40.8771 83.1475C40.9936 83.225 41.0746 83.3455 41.102 83.4825C41.1295 83.6195 41.1013 83.7617 41.0236 83.878C40.9459 83.9942 40.825 84.0749 40.6876 84.1023C39.8433 84.2779 38.9731 84.4277 38.0977 84.5568L38.0407 84.5465ZM20.0667 83.5651C20.0203 83.5714 19.9733 83.5714 19.9269 83.5651C19.0722 83.3224 18.2331 83.0486 17.425 82.7491C17.304 82.6958 17.208 82.5985 17.1567 82.477C17.1054 82.3554 17.1026 82.2189 17.149 82.0954C17.1953 81.9719 17.2873 81.8708 17.4061 81.8127C17.5248 81.7547 17.6613 81.7441 17.7876 81.7832C18.5698 82.0724 19.383 82.3359 20.2118 82.5735C20.3492 82.5919 20.4735 82.6641 20.5576 82.774C20.6416 82.884 20.6784 83.0227 20.6598 83.1597C20.6413 83.2967 20.5689 83.4207 20.4587 83.5045C20.3484 83.5883 20.2093 83.625 20.0719 83.6065L20.0667 83.5651ZM43.1118 83.5032C42.9744 83.521 42.8356 83.4836 42.7258 83.3994C42.616 83.3151 42.5443 83.1908 42.5265 83.0538C42.5086 82.9168 42.5461 82.7784 42.6306 82.6689C42.7151 82.5595 42.8397 82.488 42.9771 82.4702C43.8059 82.2481 44.6295 82.0001 45.4272 81.7315C45.4918 81.7098 45.5601 81.701 45.6281 81.7056C45.6961 81.7103 45.7626 81.7282 45.8237 81.7584C45.8848 81.7886 45.9393 81.8305 45.9841 81.8818C46.0289 81.933 46.0633 81.9925 46.085 82.0569C46.1068 82.1214 46.1156 82.1895 46.111 82.2573C46.1064 82.3251 46.0884 82.3914 46.0581 82.4523C46.0278 82.5132 45.9857 82.5676 45.9344 82.6123C45.883 82.657 45.8233 82.6912 45.7587 82.7129C44.9403 82.9867 44.0959 83.2294 43.2465 83.467C43.2083 83.4838 43.1684 83.4959 43.1273 83.5032H43.1118ZM48.0171 81.8503C47.8982 81.849 47.7834 81.8068 47.692 81.7311C47.6006 81.6553 47.5381 81.5504 47.515 81.4342C47.492 81.3179 47.5097 81.1972 47.5653 81.0924C47.6208 80.9876 47.7109 80.9051 47.8203 80.8587C48.6179 80.5281 49.3742 80.1717 50.1408 79.7998C50.2638 79.7382 50.4063 79.7278 50.5369 79.7709C50.6676 79.814 50.7757 79.9071 50.8375 80.0297C50.8993 80.1523 50.9098 80.2943 50.8665 80.4246C50.8233 80.5549 50.73 80.6627 50.607 80.7244C49.8404 81.1117 49.0531 81.4785 48.2191 81.8142C48.163 81.8364 48.1034 81.8486 48.043 81.8503H48.0171ZM15.2184 81.7625C15.1412 81.7621 15.0652 81.7444 14.9957 81.7109C14.1928 81.3338 13.4055 80.9155 12.6648 80.4764C12.5987 80.4467 12.5397 80.4034 12.4915 80.3495C12.4432 80.2955 12.4069 80.2321 12.3848 80.1633C12.3627 80.0944 12.3553 80.0217 12.3632 79.9499C12.371 79.8781 12.3939 79.8086 12.4303 79.7462C12.4667 79.6837 12.5159 79.6295 12.5746 79.5872C12.6334 79.5449 12.7004 79.5153 12.7713 79.5004C12.8422 79.4855 12.9155 79.4856 12.9864 79.5007C13.0572 79.5158 13.1241 79.5456 13.1828 79.5881C13.8924 80.0116 14.6487 80.4093 15.4256 80.776C15.5309 80.8269 15.6158 80.9118 15.6666 81.0169C15.7173 81.122 15.7309 81.2411 15.7051 81.3549C15.6793 81.4687 15.6155 81.5704 15.5244 81.6435C15.4332 81.7165 15.3199 81.7567 15.2029 81.7574L15.2184 81.7625ZM52.6323 79.5106C52.5195 79.5109 52.4097 79.4746 52.3195 79.407C52.2294 79.3395 52.1637 79.2445 52.1327 79.1363C52.1016 79.0282 52.1068 78.913 52.1474 78.808C52.188 78.7031 52.2619 78.6143 52.3578 78.555C53.0933 78.1005 53.7978 77.6202 54.4297 77.1243C54.4835 77.0797 54.5457 77.0464 54.6127 77.0263C54.6797 77.0063 54.7501 77.0001 54.8196 77.0079C54.8891 77.0158 54.9563 77.0376 55.0171 77.072C55.0779 77.1065 55.1311 77.1528 55.1735 77.2084C55.2159 77.2639 55.2465 77.3273 55.2636 77.395C55.2807 77.4626 55.2838 77.533 55.2729 77.6019C55.262 77.6708 55.2372 77.7368 55.2 77.7958C55.1628 77.8549 55.114 77.9058 55.0565 77.9456C54.3779 78.4621 53.6424 78.9786 52.881 79.4331C52.8141 79.4775 52.7379 79.5058 52.6582 79.5158L52.6323 79.5106ZM35.3628 79.4848C35.2696 79.485 35.1781 79.4602 35.0978 79.4129C35.0176 79.3657 34.9517 79.2977 34.9069 79.2162C34.5029 78.4827 34.0678 77.739 33.6172 77.0055C33.5734 76.8915 33.5717 76.7656 33.6122 76.6503C33.6526 76.5351 33.7328 76.4378 33.8384 76.3759C33.944 76.314 34.0681 76.2914 34.1888 76.3121C34.3096 76.3328 34.419 76.3955 34.4978 76.489C34.9588 77.2328 35.399 77.9921 35.8134 78.741C35.8564 78.8194 35.8783 78.9075 35.8769 78.9969C35.8756 79.0862 35.851 79.1737 35.8055 79.2507C35.7601 79.3277 35.6955 79.3917 35.6179 79.4363C35.5403 79.481 35.4524 79.5048 35.3628 79.5054V79.4848ZM10.7741 79.118C10.6638 79.1169 10.5568 79.0807 10.4685 79.0147C9.75372 78.4982 9.0648 77.9301 8.3966 77.3568C8.34177 77.3129 8.29645 77.2583 8.26344 77.1964C8.23043 77.1345 8.2104 77.0666 8.20457 76.9967C8.19875 76.9268 8.20727 76.8565 8.22958 76.79C8.25189 76.7235 8.28753 76.6623 8.33435 76.61C8.38117 76.5577 8.43819 76.5154 8.50191 76.4858C8.56564 76.4562 8.63473 76.4398 8.70501 76.4377C8.77529 76.4355 8.84528 76.4477 8.9107 76.4734C8.97611 76.4991 9.0356 76.5378 9.08553 76.5872C9.70193 77.1347 10.3701 77.6718 11.059 78.1832C11.146 78.2482 11.2102 78.3389 11.2427 78.4424C11.2751 78.5458 11.274 78.6569 11.2396 78.7597C11.2052 78.8626 11.1393 78.952 11.0511 79.0154C10.9629 79.0788 10.8569 79.1129 10.7482 79.1129L10.7741 79.118ZM56.7244 76.3702C56.6208 76.3709 56.5195 76.3405 56.4334 76.2832C56.3473 76.2258 56.2805 76.1441 56.2415 76.0484C56.2025 75.9528 56.193 75.8477 56.2145 75.7467C56.2359 75.6458 56.2872 75.5535 56.3618 75.4819C56.9651 74.9014 57.5276 74.2801 58.0452 73.6224C58.1297 73.5142 58.2539 73.4439 58.3903 73.427C58.5268 73.41 58.6645 73.4478 58.773 73.532C58.8815 73.6163 58.952 73.7401 58.969 73.8762C58.986 74.0123 58.9481 74.1495 58.8636 74.2577C58.3157 74.9537 57.7203 75.6112 57.0818 76.2256C56.9944 76.3128 56.8787 76.3659 56.7555 76.3754L56.7244 76.3702ZM6.92033 75.6833C6.84805 75.6831 6.77661 75.6679 6.7106 75.6385C6.64458 75.6092 6.58546 75.5664 6.53703 75.5129C5.93948 74.8572 5.38085 74.1674 4.86396 73.4468C4.8208 73.3921 4.78919 73.3293 4.77101 73.2621C4.75283 73.1949 4.74844 73.1247 4.75814 73.0558C4.76784 72.9868 4.79144 72.9205 4.82747 72.8609C4.86351 72.8013 4.91125 72.7496 4.96785 72.7088C5.02444 72.6681 5.08869 72.6391 5.15678 72.6238C5.22486 72.6084 5.29537 72.6069 5.36405 72.6194C5.43272 72.6319 5.49816 72.6581 5.55642 72.6964C5.61469 72.7348 5.66457 72.7845 5.70309 72.8425C6.19659 73.5235 6.72929 74.1754 7.29848 74.7949C7.36554 74.869 7.40962 74.9609 7.42542 75.0594C7.44122 75.158 7.42806 75.259 7.38751 75.3502C7.34696 75.4415 7.28079 75.519 7.19697 75.5736C7.11314 75.6281 7.01527 75.6572 6.91518 75.6575L6.92033 75.6833ZM32.6537 75.0841C32.5689 75.0843 32.4853 75.0636 32.4103 75.024C32.3354 74.9844 32.2713 74.927 32.2238 74.8569C31.7524 74.1596 31.2552 73.4572 30.7424 72.7909C30.7019 72.7363 30.6726 72.6743 30.6562 72.6084C30.6397 72.5425 30.6365 72.474 30.6466 72.4068C30.6567 72.3397 30.6799 72.2752 30.715 72.217C30.7501 72.1588 30.7964 72.1081 30.8511 72.0678C30.9059 72.0274 30.9681 71.9982 31.0342 71.9818C31.1003 71.9654 31.1689 71.9622 31.2363 71.9722C31.3036 71.9823 31.3683 72.0055 31.4266 72.0405C31.485 72.0755 31.5359 72.1216 31.5763 72.1762C32.0943 72.8787 32.6123 73.5966 33.0836 74.3042C33.1363 74.382 33.1668 74.4726 33.1718 74.5663C33.1767 74.66 33.156 74.7532 33.1118 74.8361C33.0676 74.9189 33.0016 74.9882 32.9209 75.0364C32.8402 75.0847 32.7478 75.1101 32.6537 75.11V75.0841ZM59.8841 72.3054C59.794 72.3056 59.7055 72.2824 59.6272 72.2382C59.5488 72.1939 59.4834 72.13 59.4374 72.0528C59.3914 71.9757 59.3664 71.8879 59.3647 71.7981C59.3631 71.7083 59.385 71.6197 59.4282 71.5409C59.8275 70.8136 60.1587 70.0511 60.4176 69.2632C60.4639 69.1377 60.5571 69.0351 60.6778 68.9768C60.7984 68.9186 60.9369 68.9092 61.0643 68.9506C61.1918 68.9921 61.2981 69.0812 61.361 69.1992C61.4239 69.3172 61.4386 69.4549 61.4018 69.5834C61.1222 70.4304 60.7649 71.2499 60.3347 72.0316C60.2944 72.1099 60.2347 72.1766 60.1613 72.2254C60.0878 72.2742 60.0031 72.3035 59.9151 72.3105L59.8841 72.3054ZM3.91604 71.4944C3.82234 71.4942 3.73046 71.4686 3.65019 71.4204C3.56992 71.3722 3.50426 71.3032 3.46021 71.2207C3.03946 70.4373 2.68095 69.6221 2.38799 68.7828C2.34907 68.6549 2.36142 68.5169 2.42245 68.3978C2.48347 68.2788 2.58844 68.1879 2.71523 68.1445C2.84203 68.101 2.98078 68.1082 3.10233 68.1647C3.22388 68.2211 3.31875 68.3223 3.36698 68.4471C3.64144 69.2348 3.97743 69.9998 4.37187 70.7352C4.41384 70.8138 4.43471 70.9019 4.43247 70.9909C4.43024 71.0799 4.40496 71.1668 4.3591 71.2432C4.31323 71.3196 4.24833 71.3829 4.1707 71.4269C4.09307 71.4709 4.00534 71.4942 3.91604 71.4944ZM29.5873 70.9263C29.5095 70.9259 29.4327 70.9081 29.3628 70.8741C29.2928 70.8401 29.2315 70.7909 29.1832 70.73C28.724 70.1584 28.2492 69.5834 27.7588 69.0049L27.5412 68.7518C27.497 68.7003 27.4634 68.6405 27.4424 68.576C27.4213 68.5115 27.4132 68.4435 27.4185 68.3759C27.4237 68.3083 27.4423 68.2424 27.4732 68.1819C27.504 68.1214 27.5465 68.0676 27.5982 68.0235C27.6499 67.9794 27.7098 67.9459 27.7745 67.9249C27.8392 67.9039 27.9074 67.8958 27.9752 67.9011C28.043 67.9064 28.1091 67.9249 28.1698 67.9557C28.2304 67.9864 28.2843 68.0288 28.3286 68.0804L28.5461 68.3386C29.0382 68.9171 29.5251 69.5059 29.9861 70.0896C30.0463 70.1655 30.0839 70.2568 30.0946 70.3531C30.1052 70.4493 30.0885 70.5466 30.0464 70.6339C30.0043 70.7211 29.9384 70.7948 29.8563 70.8465C29.7742 70.8982 29.6792 70.9258 29.5821 70.9263H29.5873ZM61.4743 67.4296H61.4121C61.2763 67.4128 61.1526 67.343 61.0682 67.2356C60.9837 67.1282 60.9454 66.9918 60.9615 66.8562C61.0235 66.3421 61.0546 65.8246 61.0547 65.3067C61.0547 65.0037 61.0443 64.699 61.0236 64.3925C61.0151 64.2563 61.061 64.1223 61.1513 64.0197C61.2415 63.9171 61.3688 63.8543 61.5053 63.845C61.6419 63.8365 61.7764 63.8823 61.8793 63.9723C61.9821 64.0623 62.0451 64.1892 62.0544 64.3254C62.0786 64.6697 62.0907 64.9985 62.0907 65.3119C62.0903 65.8764 62.0557 66.4405 61.9871 67.0009C61.9684 67.1171 61.9104 67.2235 61.8228 67.3024C61.7352 67.3813 61.6232 67.428 61.5053 67.4347L61.4743 67.4296ZM26.2152 67.0112C26.1442 67.011 26.0739 66.9962 26.0089 66.9677C25.9438 66.9393 25.8854 66.8978 25.8371 66.8459C25.2466 66.2106 24.6405 65.5908 24.05 65.0123C24.0014 64.9648 23.9626 64.9083 23.9359 64.8459C23.9092 64.7834 23.8951 64.7164 23.8944 64.6485C23.8936 64.5806 23.9063 64.5133 23.9317 64.4503C23.9571 64.3873 23.9947 64.33 24.0423 64.2815C24.0899 64.233 24.1466 64.1943 24.2092 64.1677C24.2718 64.141 24.3391 64.127 24.4071 64.1262C24.4752 64.1255 24.5427 64.1382 24.6059 64.1635C24.669 64.1888 24.7266 64.2262 24.7752 64.2737C25.3813 64.8677 25.9925 65.4927 26.5985 66.1435C26.667 66.217 26.7124 66.3089 26.7293 66.4079C26.7462 66.5068 26.7339 66.6085 26.6938 66.7005C26.6537 66.7926 26.5876 66.871 26.5035 66.9261C26.4194 66.9813 26.321 67.0109 26.2204 67.0112H26.2152ZM2.28957 66.629C2.16388 66.6302 2.04203 66.5858 1.94673 66.5041C1.85143 66.4224 1.78918 66.3089 1.77159 66.1848C1.68729 65.6136 1.64402 65.037 1.64209 64.4597C1.64209 64.1343 1.6421 63.8089 1.68354 63.4938C1.68966 63.426 1.70914 63.36 1.74082 63.2997C1.77251 63.2394 1.8158 63.1858 1.86823 63.1422C1.92066 63.0985 1.9812 63.0656 2.04638 63.0453C2.11157 63.025 2.18013 63.0177 2.24815 63.0238C2.31617 63.0299 2.3823 63.0493 2.44281 63.0809C2.50331 63.1125 2.55699 63.1557 2.60076 63.2079C2.64453 63.2602 2.67753 63.3206 2.69791 63.3856C2.71828 63.4506 2.72562 63.5189 2.7195 63.5868C2.7195 63.8708 2.68324 64.1653 2.68324 64.4648C2.68513 64.9938 2.72497 65.522 2.8024 66.0453C2.82161 66.1809 2.78601 66.3186 2.70344 66.4281C2.62088 66.5375 2.49809 66.6098 2.36209 66.629H2.28957ZM22.5427 63.4008C22.4168 63.4007 22.2953 63.3547 22.2008 63.2717C21.543 62.6932 20.88 62.1509 20.2273 61.6499C20.1732 61.6085 20.1279 61.5569 20.0938 61.4981C20.0597 61.4392 20.0376 61.3742 20.0287 61.3068C20.0198 61.2394 20.0243 61.171 20.0419 61.1053C20.0596 61.0397 20.09 60.9781 20.1315 60.9242C20.173 60.8703 20.2247 60.825 20.2837 60.791C20.3428 60.7571 20.4079 60.735 20.4755 60.7261C20.5431 60.7173 20.6118 60.7217 20.6776 60.7393C20.7435 60.7569 20.8052 60.7873 20.8593 60.8286C21.5275 61.3451 22.206 61.8978 22.8846 62.4918C22.9634 62.5611 23.0193 62.6528 23.0446 62.7545C23.07 62.8563 23.0637 62.9633 23.0266 63.0614C22.9895 63.1595 22.9234 63.2441 22.8369 63.3038C22.7505 63.3635 22.6479 63.3955 22.5427 63.3957V63.4008ZM61.1687 62.3058C61.0496 62.309 60.9331 62.2712 60.8388 62.1988C60.7445 62.1263 60.678 62.0237 60.6507 61.9081C60.452 61.0957 60.1958 60.2983 59.8841 59.5219C59.8589 59.4588 59.8464 59.3914 59.8474 59.3235C59.8483 59.2556 59.8627 59.1886 59.8897 59.1263C59.9166 59.0639 59.9556 59.0075 60.0044 58.9601C60.0532 58.9128 60.1109 58.8755 60.1741 58.8504C60.2374 58.8253 60.305 58.8129 60.3731 58.8139C60.4412 58.8148 60.5084 58.8291 60.5709 58.856C60.6334 58.8828 60.69 58.9217 60.7375 58.9704C60.785 59.0191 60.8224 59.0766 60.8475 59.1397C61.1764 59.9615 61.4464 60.8055 61.6556 61.6654C61.6718 61.7315 61.6747 61.8002 61.6641 61.8675C61.6536 61.9347 61.6299 61.9993 61.5942 62.0574C61.5586 62.1154 61.5119 62.1659 61.4566 62.2059C61.4013 62.2459 61.3387 62.2746 61.2723 62.2904L61.1687 62.3058ZM2.79721 61.5466C2.71259 61.5467 2.62924 61.5261 2.55444 61.4866C2.47964 61.4471 2.41566 61.39 2.36813 61.3202C2.3206 61.2504 2.29097 61.17 2.28179 61.0861C2.27261 61.0022 2.28418 60.9174 2.31549 60.839C2.65826 59.9802 3.15497 59.1908 3.78136 58.5095C3.82762 58.4597 3.88329 58.4194 3.94516 58.391C4.00703 58.3626 4.07387 58.3466 4.14193 58.344C4.20999 58.3413 4.27791 58.3521 4.3418 58.3756C4.40569 58.3992 4.46433 58.435 4.51433 58.4811C4.56432 58.5273 4.60471 58.5827 4.6332 58.6444C4.66169 58.7061 4.67772 58.7728 4.68037 58.8407C4.68301 58.9085 4.67223 58.9763 4.64863 59.04C4.62503 59.1037 4.58907 59.1621 4.54281 59.212C4.00004 59.8025 3.56997 60.4869 3.27375 61.2315C3.23489 61.3258 3.16889 61.4066 3.08409 61.4636C2.99928 61.5206 2.89948 61.5512 2.79721 61.5517V61.5466ZM18.4299 60.2605C18.3307 60.2602 18.2336 60.2315 18.1502 60.1778C17.442 59.7174 16.7107 59.2934 15.9591 58.9072C15.8965 58.8776 15.8405 58.8358 15.7944 58.7842C15.7483 58.7325 15.7131 58.6722 15.6908 58.6068C15.6685 58.5414 15.6595 58.4721 15.6645 58.4032C15.6696 58.3343 15.6884 58.267 15.72 58.2055C15.7515 58.144 15.7951 58.0894 15.8482 58.0449C15.9013 58.0005 15.9628 57.9672 16.0291 57.9469C16.0954 57.9266 16.165 57.9198 16.234 57.9268C16.3029 57.9338 16.3698 57.9546 16.4305 57.9879C17.214 58.3896 17.9764 58.8309 18.7148 59.3101C18.8086 59.3706 18.8804 59.4596 18.9193 59.564C18.9582 59.6684 18.9622 59.7826 18.9308 59.8894C18.8993 59.9963 18.8341 60.0902 18.7447 60.157C18.6554 60.2239 18.5468 60.2602 18.4351 60.2605H18.4299ZM13.8199 57.9414C13.7615 57.9407 13.7038 57.9302 13.649 57.9104C12.8649 57.6313 12.0569 57.4238 11.2351 57.2906C11.0978 57.2694 10.9745 57.1946 10.8924 57.0827C10.8103 56.9708 10.7762 56.831 10.7975 56.694C10.8188 56.557 10.8937 56.4341 11.0059 56.3523C11.1181 56.2704 11.2583 56.2363 11.3957 56.2576C12.2775 56.4011 13.1443 56.6241 13.9856 56.9239C14.0997 56.9651 14.1956 57.045 14.2567 57.1496C14.3177 57.2541 14.34 57.3768 14.3196 57.496C14.2993 57.6153 14.2376 57.7237 14.1453 57.8022C14.053 57.8808 13.936 57.9246 13.8147 57.9259L13.8199 57.9414ZM6.24696 57.8484C6.12843 57.8491 6.01327 57.8091 5.92069 57.7353C5.82811 57.6615 5.76373 57.5583 5.73828 57.4428C5.71282 57.3274 5.72781 57.2068 5.7808 57.101C5.83378 56.9953 5.92155 56.9109 6.02942 56.8619C6.86905 56.4798 7.7675 56.2423 8.68667 56.1594C8.75469 56.153 8.82331 56.16 8.88863 56.18C8.95395 56.2 9.01468 56.2326 9.06735 56.276C9.12002 56.3194 9.16361 56.3728 9.19561 56.433C9.22761 56.4932 9.24739 56.5591 9.25385 56.6269C9.26031 56.6947 9.25333 56.7631 9.23327 56.8283C9.21321 56.8934 9.18046 56.954 9.13694 57.0065C9.09341 57.059 9.03993 57.1025 8.97956 57.1344C8.91918 57.1663 8.85311 57.186 8.78509 57.1925C7.98235 57.2654 7.19774 57.4732 6.46451 57.8071C6.39582 57.8363 6.32162 57.8504 6.24696 57.8484ZM59.2832 57.492C59.1895 57.4918 59.0976 57.4662 59.0174 57.418C58.9371 57.3698 58.8714 57.3008 58.8274 57.2183C58.4959 56.6088 58.1281 55.989 57.7241 55.3744C57.687 55.3174 57.6616 55.2537 57.6492 55.1869C57.6368 55.1201 57.6377 55.0516 57.6519 54.9851C57.6661 54.9187 57.6933 54.8557 57.7319 54.7998C57.7705 54.7438 57.8197 54.696 57.8769 54.659C57.934 54.622 57.9979 54.5967 58.0649 54.5843C58.1319 54.572 58.2006 54.5729 58.2672 54.587C58.3338 54.6012 58.397 54.6283 58.4532 54.6668C58.5093 54.7053 58.5572 54.7544 58.5943 54.8114C59.0138 55.4518 59.3972 56.0975 59.739 56.7276C59.781 56.8062 59.8019 56.8943 59.7996 56.9833C59.7974 57.0723 59.7721 57.1593 59.7263 57.2357C59.6804 57.3121 59.6155 57.3753 59.5379 57.4194C59.4602 57.4634 59.3725 57.4866 59.2832 57.4869V57.492Z" fill="#382C50"/>
</svg>
