<svg width="127" height="110" viewBox="0 0 127 110" fill="none" xmlns="http://www.w3.org/2000/svg">
<path d="M77.5126 72.5477L62.7562 52.2791L66.654 27.5126L86.9227 12.7561L111.689 16.6539L126.446 36.9227L122.548 61.6891L102.279 76.4455L77.5126 72.5477Z" fill="black"/>
<path d="M77.6824 72.2711L63.0721 52.2031L66.9313 27.6818L86.9993 13.0715L111.521 16.9307L126.131 36.9987L122.272 61.52L102.204 76.1303L77.6824 72.2711Z" fill="white"/>
<path d="M110.572 18.4801L124.365 37.4243L120.721 60.5724L101.777 74.3645L78.6292 70.7214L64.837 51.7772L68.4801 28.6291L87.4243 14.837L110.572 18.4801Z" fill="#9082FF"/>
<path d="M119.404 41.6146C119.347 42.1228 119.253 42.6326 119.17 43.1532C119.09 43.6636 119.025 44.1785 118.946 44.6844C118.865 45.1961 118.41 47.7872 118.338 48.0194C118.066 48.8923 117.484 49.4481 116.898 49.929C116.75 50.0509 116.605 50.1914 116.444 50.2779C116.279 50.3675 116.088 50.4368 115.894 50.4968C115.129 50.731 114.216 50.7585 113.154 50.6341C112.639 50.5739 112.081 50.4712 111.554 50.3909C111.316 50.3545 111.021 50.3138 110.792 50.32C110.568 50.3268 110.311 50.3755 110.264 50.5586C110.251 50.6111 110.126 51.4365 110.088 51.6775C109.851 53.1854 109.216 56.9936 109.207 57.1132C109.186 57.4126 109.008 57.7763 108.775 57.8038C108.764 57.8052 108.757 57.8079 108.741 57.8068C108.513 57.7877 105.638 57.3603 105.539 57.3359C105.558 57.1402 107.92 42.7498 107.976 42.5374C108.003 42.4337 108.726 38.0386 108.896 36.9592C108.927 36.7574 108.941 36.4328 109.011 36.3338C109.084 36.2284 109.595 36.3088 109.676 36.3317C109.782 36.3603 110.813 36.4113 111.208 36.4735C112.555 36.6854 113.878 36.8607 115.213 37.0709C115.759 37.1568 116.305 37.187 116.756 37.3635C118.602 38.0839 119.657 39.3605 119.404 41.6146ZM115.756 42.1742C115.778 42.0696 115.822 41.951 115.819 41.879C115.816 41.8142 115.892 41.4807 115.901 41.3559C115.905 41.3112 115.865 41.2095 115.843 41.1407C115.689 40.6522 114.613 40.1169 114.474 40.0675C114.279 39.9981 114.108 39.9687 113.856 39.929C113.713 39.9066 113.564 39.8686 113.442 39.8639C113.321 39.8592 112.032 39.6386 111.868 39.8224C111.818 39.8794 111.767 39.9974 111.748 40.1087C111.689 40.4759 110.951 44.9621 110.879 45.4228C110.828 45.7463 110.779 46.11 110.725 46.4541C110.706 46.5764 110.699 46.7798 110.699 46.7798C110.699 46.7798 112.619 47.0574 112.812 47.0877C113.639 47.2178 114.209 47.0145 114.726 46.7046C114.783 46.6708 115.017 46.2525 115.046 46.1033C115.047 46.0964 115.048 46.0894 115.05 46.082C115.199 45.2909 115.696 42.4471 115.756 42.1742L115.756 42.1742Z" fill="white"/>
<path d="M105.741 39.8726C105.652 40.6861 105.48 41.5799 105.34 42.4732C105.138 43.7517 104.927 45.0976 104.723 46.3922C104.689 46.6078 104.68 46.8437 104.614 47.0347C104.552 47.214 104.464 48.0372 104.421 48.3075C104.292 49.1333 104.136 50.1239 104.007 50.9389C103.811 52.1882 103.549 53.1034 103.073 53.9174C102.5 54.8963 101.675 55.5644 100.652 55.936C100.448 56.0101 98.9165 56.0485 98.4105 56.0699C98.3229 56.0735 97.3242 55.9233 97.1421 55.8867C95.4011 55.5374 93.8002 55.1061 92.8058 54.2229C92.401 53.8629 91.9089 52.7766 91.882 52.7497C91.8001 52.6663 91.7528 52.5139 91.7229 52.3865C91.6811 52.2054 91.6588 52.0126 91.64 51.8045C91.6055 51.4159 91.5607 50.9873 91.6322 50.5333C92.2351 46.7025 92.8461 42.82 93.4483 38.9935C93.5279 38.4881 93.5808 37.9975 93.6887 37.5716C94.0149 36.2867 94.7139 35.4819 95.6094 34.9298C96.206 34.5619 96.9021 34.3046 97.6278 34.1508C99.1353 34.3729 100.71 34.6276 102.246 34.8693C102.446 34.9008 102.626 34.9827 102.791 35.054C104.746 35.9 106.01 37.3971 105.741 39.8726ZM102.291 39.9729C102.4 39.281 102.294 38.8273 101.9 38.493C101.501 38.1528 100.933 38.0687 100.206 37.9541C99.8702 37.9014 99.5416 37.8496 99.2075 37.7971C98.8809 37.7457 98.5481 37.6675 98.2014 37.6387C97.7141 37.5982 97.3531 37.8138 97.1338 38.1882C96.9233 38.5478 96.8588 39.0905 96.7697 39.6565C96.2999 42.6414 95.1112 49.3443 95.0997 49.4221C95.0759 49.5871 94.9031 50.7351 94.8731 50.8619C95.0293 51.593 95.4775 52.0868 96.436 52.2377C97.3414 52.3802 98.3702 52.5421 99.2921 52.6872C99.694 52.5597 100.015 52.3226 100.259 51.9818C100.291 51.7822 100.324 51.574 100.356 51.3702C100.388 51.1674 101.88 42.5846 102.291 39.9729Z" fill="white"/>
<path d="M93.3678 33.6452C93.2201 34.584 93.0723 35.5229 92.9245 36.4617C91.7156 36.2715 90.5066 36.0812 89.2977 35.8909C88.321 41.974 87.3737 48.0986 86.4083 54.1973C85.394 54.0376 84.3798 53.878 83.3655 53.7184C84.326 47.6156 85.2863 41.5136 86.2468 35.4108C85.0568 35.2235 83.8668 35.0362 82.6767 34.8489C82.8232 33.9181 82.9697 32.9873 83.1162 32.0566C83.1173 32.045 83.1183 32.0336 83.1281 32.0337C86.5413 32.5709 89.9549 33.1081 93.3678 33.6452Z" fill="white"/>
<path d="M73.3723 45.3817C73.3723 45.3817 73.2752 45.9873 73.255 46.1155C73.1947 46.4988 73.096 46.888 73.1665 47.2066C73.2296 47.4904 73.3928 47.7146 73.622 47.905C73.6938 47.9645 73.7737 48.0399 73.8533 48.0733C73.945 48.1118 74.0874 48.1185 74.209 48.1376C74.3561 48.1607 74.5328 48.216 74.6497 48.1905C74.8427 48.1484 75.0565 48.0228 75.2316 47.9274C75.6113 47.7209 75.9128 47.4848 76.1694 47.0936C76.2889 46.9118 76.4159 46.6658 76.4363 46.4016C76.4425 46.325 76.5356 45.7748 76.5478 45.6935C76.5752 45.5151 76.4988 45.2738 76.4268 45.0889C76.2226 44.5637 75.8682 44.0836 75.5546 43.657C75.1081 43.049 74.6069 42.4911 74.1192 41.9466C73.6224 41.3918 73.0889 40.8568 72.5619 40.3243C72.44 40.201 72.3568 40.0079 72.2721 39.8416C72.0222 39.3494 71.7862 38.7876 71.6707 38.2214C71.5879 37.8139 71.5458 37.3771 71.6243 36.8781C71.7025 36.3816 71.7872 35.8434 71.8688 35.325C72.0308 34.2954 72.4212 33.4617 72.8288 32.8702C73.6023 31.7485 74.7555 31.1218 76.2228 30.9057C76.4324 30.8747 76.6614 30.8221 76.8579 30.8325C77.084 30.8443 77.4281 30.8796 77.7429 30.9325C78.0594 30.9858 78.3941 31.1313 78.6701 31.2579C79.7108 31.7358 80.3816 32.7481 80.8604 33.7714C81.2025 34.5015 81.4161 35.4179 81.235 36.5683C81.2062 36.7517 81.1752 36.9486 81.1438 37.1478C81.115 37.3309 81.0539 37.7191 81.0539 37.7191L80.653 37.9942L78.5113 37.6268C78.5113 37.6268 78.0552 37.577 78.0233 37.0439C78.0059 36.7456 78.076 36.1018 78.0923 35.8263C78.1253 35.2821 77.9238 34.8803 77.4767 34.6657C77.2562 34.5595 76.9801 34.5132 76.6524 34.4617C76.6048 34.4542 76.4871 34.5062 76.4169 34.5318C75.6408 34.8166 75.0078 35.345 74.7996 36.3554C74.7257 36.7145 74.804 37.0203 74.9136 37.3217C75.1148 37.8743 75.4339 38.3877 75.7531 38.8557C76.4167 39.8281 77.1531 40.6786 77.9305 41.5569C78.3253 42.0025 78.6587 42.4288 78.9401 42.961C79.4851 43.9911 79.7283 45.2199 79.6086 46.7442C79.3778 49.6897 77.9349 51.2371 75.9745 51.9779C75.6919 52.0847 75.3962 52.1925 75.1011 52.2446C74.9408 52.2729 74.7436 52.2536 74.5679 52.2514C74.3833 52.249 74.1952 52.2466 74.0211 52.2394C73.6548 52.2249 73.2513 52.0829 72.9422 51.9625C71.2075 51.2864 70.4131 49.8604 70.0072 48.2101C69.9702 48.0584 69.9092 47.8951 69.904 47.7568C69.8963 47.5374 69.9333 47.3 69.9455 47.0706C69.9578 46.8475 69.9652 46.624 69.9763 46.3992C69.9926 46.0753 70.0841 45.6616 70.1418 45.2954C70.1618 45.168 70.1649 45.0162 70.1987 44.9334C70.2229 44.8743 70.3115 44.8378 70.3795 44.7887C70.4428 44.7433 70.5176 44.6619 70.5971 44.6745C71.235 44.7749 72.4428 44.9643 73.11 45.0699C73.1847 45.0817 73.3723 45.3817 73.3723 45.3817L73.3723 45.3817Z" fill="white"/>
<path d="M31.1167 3.67742C11.17 9.02212 -0.667269 29.5248 4.67743 49.4715C10.0221 69.4182 30.5249 81.2555 50.4716 75.9108C70.4183 70.5661 82.2555 50.0633 76.9108 30.1167C71.5661 10.17 51.0634 -1.66728 31.1167 3.67742Z" fill="white"/>
<path d="M50.0719 74.4234C30.947 79.5479 11.289 68.1984 6.16447 49.0735C1.03997 29.9486 12.3895 10.2906 31.5144 5.1661C50.6393 0.0415983 70.2973 11.3912 75.4218 30.5161C80.5463 49.6409 69.1968 69.2989 50.0719 74.4234Z" fill="#996CD2"/>
<path d="M30.6357 70.0084L21.0445 34.2136C20.1467 30.8629 22.1355 27.419 25.486 26.5212L55.5356 18.4694L57.7802 26.8462L31.3236 33.9352C30.6536 34.1147 30.2561 34.8038 30.4356 35.4736L39.0827 67.745L30.6357 70.0084Z" fill="white"/>
<path d="M51.0235 11.2845L66.2637 20.0834L57.4648 35.3237L45.5653 38.5122L54.3643 23.2719L39.1241 14.4729L51.0235 11.2845Z" fill="white"/>
<path opacity="0.988" d="M73.0301 98.3024C71.8776 95.1599 69.5517 90.9971 69.5158 90.9317C62.4774 90.1893 58.2648 74.3327 49.2195 73.0104L49.22 73.0102C47.6638 73.0461 46.6054 72.6144 46.2702 71.777C45.7394 70.451 47.2225 68.6101 49.5829 67.6652C51.9433 66.7203 53.7751 67.6806 54.8272 68.1127C57.3764 69.1597 59.2105 69.8489 61.707 71.4251L60.0237 67.2102L51.1074 44.9172C50.1817 42.6048 50.972 40.1285 52.8794 39.3649C54.7868 38.6013 57.0677 39.8482 57.9934 42.1606L65.8136 61.6957L61.3387 50.5177C60.413 48.2053 61.2034 45.729 63.1108 44.9654C65.0181 44.2019 67.2989 45.4488 68.2246 47.7611L72.4201 58.2414L70.1468 52.5628C69.2211 50.2505 70.0114 47.7741 71.9188 47.0106C73.8262 46.247 76.1071 47.494 77.0327 49.8063L80.1209 57.5201L78.8384 54.317C77.9126 52.0046 78.5151 49.6035 80.1892 48.9333C81.8632 48.2632 83.9563 49.5857 84.8818 51.8977C88.8686 60.4148 92.4331 72.0792 93.3629 77.63C93.6897 78.6154 93.5665 80.126 93.9373 81.1553C94.7757 83.4825 96.1275 87.555 96.6471 88.8481L73.0301 98.3024Z" fill="#FFE6CA" stroke="#4E4055" stroke-width="2.90662" stroke-linecap="round" stroke-linejoin="round"/>
</svg>
