<svg width="66" height="46" viewBox="0 0 66 46" fill="none" xmlns="http://www.w3.org/2000/svg">
<rect x="0.444458" y="0.055542" width="65.5556" height="45.8889" rx="5" fill="#24A9E6"/>
<path d="M45.6101 11.9375C44.5698 12.5769 43.4202 13.0419 42.1915 13.2908C41.2127 12.2055 39.8138 11.5278 38.2652 11.5278C35.296 11.5278 32.8876 14.0287 32.8876 17.1131C32.8876 17.5512 32.9338 17.9758 33.0262 18.3848C28.5553 18.1516 24.5919 15.9299 21.9371 12.5471C21.4736 13.3751 21.2089 14.3357 21.2089 15.3579C21.2089 17.2945 22.1583 19.0044 23.6019 20.0067C22.7219 19.9798 21.8902 19.7253 21.1641 19.3099V19.3787C21.1641 22.0859 23.0188 24.3437 25.4811 24.8555C25.0302 24.9867 24.5548 25.0519 24.0633 25.0519C23.7168 25.0519 23.3786 25.0186 23.0502 24.9526C23.735 27.1707 25.7205 28.7863 28.0757 28.8295C26.2351 30.3288 23.9142 31.222 21.3945 31.222C20.9604 31.222 20.5312 31.1965 20.1111 31.1454C22.4922 32.7277 25.3214 33.6528 28.3578 33.6528C38.2547 33.6528 43.6645 25.1433 43.6645 17.7617C43.6645 17.5186 43.6596 17.2761 43.6505 17.0379C44.7014 16.2504 45.6143 15.2671 46.3334 14.1471C45.37 14.5916 44.3324 14.8914 43.2444 15.0261C44.3555 14.3357 45.2083 13.2411 45.6101 11.9375Z" fill="white"/>
</svg>
